{"glyphs":{"0":{"ha":497,"x_min":-1,"x_max":501,"o":"m 251 807 q 377 849 319 851 q 468 797 435 846 q 501 651 501 747 q 454 414 501 556 q 342 173 404 267 q 219 35 279 79 q 107 -2 158 -8 q 27 56 56 4 q 1 205 -1 108 q 49 439 3 301 q 67 493 58 469 q 83 537 75 517 q 101 576 92 557 q 122 615 110 594 q 141 631 129 628 q 164 631 153 633 q 160 670 160 649 q 170 715 161 692 q 199 761 179 738 q 251 807 218 785 m 367 428 q 409 591 400 522 q 410 699 418 660 q 380 748 403 739 q 326 732 357 757 q 266 672 286 697 q 244 624 246 647 q 235 642 239 628 q 239 679 232 657 q 268 728 246 701 q 338 785 290 756 q 310 772 326 783 q 277 747 293 761 q 248 716 261 732 q 232 689 235 700 q 235 712 232 699 q 244 740 238 725 q 261 770 250 756 q 289 797 272 785 q 242 761 264 782 q 203 717 219 740 q 178 672 188 694 q 167 631 168 649 q 188 621 178 628 q 206 606 199 614 q 217 590 214 599 q 218 576 221 582 q 187 508 203 544 q 156 428 171 472 q 94 172 94 264 q 132 74 94 81 q 234 152 169 67 q 367 428 299 238 z "},"1":{"ha":506,"x_min":-26,"x_max":525,"o":"m 422 821 q 446 846 428 842 q 481 844 464 850 q 512 826 499 838 q 521 804 525 814 q 467 660 501 751 q 391 466 432 569 q 309 262 350 363 q 235 89 268 161 l 371 97 q 381 83 379 97 q 376 50 382 68 q 359 17 371 32 q 328 0 347 1 q 259 1 308 0 q 155 1 210 1 q 52 1 100 1 q -11 0 4 0 q -19 19 -26 0 q 3 56 -11 38 q 30 83 18 74 q 33 74 42 92 l 172 82 q 164 83 169 82 q 153 83 158 83 l 140 83 q 235 296 185 183 q 328 525 285 408 q 294 477 315 501 q 249 433 274 453 q 200 401 225 413 q 153 392 175 389 q 190 415 175 404 q 221 444 206 425 q 147 417 182 421 q 81 421 113 414 q 181 461 135 431 q 251 524 226 492 q 166 469 194 478 q 124 460 138 460 q 235 540 185 494 q 322 633 285 585 q 385 731 360 682 q 422 821 410 779 z "},"2":{"ha":529,"x_min":-7,"x_max":528,"o":"m 482 849 q 509 836 499 843 q 524 817 519 829 q 526 787 528 806 q 519 740 525 768 q 485 619 510 696 q 422 453 461 542 q 328 272 382 364 q 207 103 275 179 q 254 80 228 89 q 300 71 281 71 q 335 78 319 71 q 357 100 350 86 q 352 68 363 89 q 303 46 342 47 q 326 48 313 44 q 352 59 339 51 q 376 76 365 67 q 393 97 388 86 q 388 74 393 86 q 374 50 383 61 q 352 30 364 39 q 328 18 340 21 q 367 28 343 21 q 401 42 390 35 q 349 1 382 14 q 278 -12 317 -12 q 201 0 240 -12 q 129 35 161 13 q 79 3 104 11 q 35 -1 54 -6 q 5 19 17 4 q -7 58 -7 35 q 4 92 -7 75 q 36 122 15 110 q 88 136 57 133 q 160 128 118 139 q 155 131 157 129 q 150 133 153 132 q 144 135 147 135 q 230 267 188 192 q 310 426 272 343 q 382 592 349 508 q 440 751 415 676 q 413 726 432 750 q 371 668 394 703 q 323 592 347 633 q 278 514 299 550 q 246 451 258 478 q 235 419 233 425 q 236 478 214 425 q 317 636 258 532 q 282 589 301 618 q 244 525 263 560 q 212 453 225 490 q 197 379 199 415 q 187 424 185 394 q 199 485 189 453 q 224 550 208 518 q 254 603 239 582 q 230 572 242 590 q 209 533 218 553 q 194 494 200 513 q 188 468 188 476 q 183 496 181 478 q 193 535 185 514 q 215 583 201 557 q 243 636 228 608 q 295 720 269 682 q 349 787 321 758 q 410 831 378 815 q 482 849 442 847 m 93 54 q 99 53 96 54 q 78 56 90 58 q 55 50 65 54 q 38 42 44 46 q 33 36 31 38 q 90 54 57 24 l 93 54 z "},"3":{"ha":1413,"x_min":225,"x_max":1100,"o":"m 532 790 q 536 808 532 801 q 550 815 540 815 q 563 808 558 815 q 568 790 568 801 q 563 775 568 782 q 550 768 558 768 q 537 775 542 768 q 532 790 532 782 m 804 814 l 811 814 q 835 793 835 814 q 810 768 835 768 l 804 768 l 804 814 m 740 776 q 742 783 740 782 q 743 786 742 785 q 752 778 749 783 q 758 771 756 774 q 749 767 756 767 q 740 776 740 767 m 1100 867 l 1100 0 l 225 0 l 225 867 l 1100 867 m 474 831 l 1063 831 l 1063 840 l 474 840 l 474 831 m 1013 788 q 1013 800 1013 794 q 1011 813 1013 806 l 1013 813 q 1022 793 1017 803 l 1039 765 l 1047 765 l 1047 819 l 1042 819 l 1042 797 l 1042 772 q 1031 790 1038 783 l 1013 819 l 1004 819 l 1004 765 l 1013 765 l 1013 788 m 978 768 q 961 774 968 768 q 954 790 954 779 q 961 808 954 801 q 978 814 968 814 q 990 813 988 814 l 992 818 q 978 819 990 819 q 950 790 950 819 q 951 779 950 785 q 957 771 951 774 q 978 763 963 763 q 987 764 982 763 q 994 767 992 765 l 994 793 l 975 793 l 975 788 l 988 788 l 988 771 q 983 769 986 771 q 978 768 981 768 m 932 819 l 932 765 l 939 765 l 939 819 l 932 819 m 904 789 q 914 779 914 788 q 904 768 914 768 q 897 769 900 768 q 889 772 893 771 l 888 767 q 895 764 890 765 q 903 763 900 763 q 918 767 914 763 q 922 779 922 772 q 907 794 922 789 q 899 806 899 801 q 907 814 899 814 q 918 813 917 814 l 921 818 q 907 819 918 819 q 889 806 889 819 q 904 789 889 796 m 857 794 l 857 814 l 881 814 l 881 819 l 851 819 l 851 765 l 881 765 l 881 771 l 857 771 l 857 789 l 881 789 l 881 794 l 857 794 m 840 793 q 835 814 840 803 q 811 819 828 819 l 796 819 l 796 765 q 802 764 799 765 q 808 763 806 763 q 835 771 824 763 q 840 793 840 782 m 739 797 q 743 789 739 790 q 735 775 735 783 q 749 763 735 763 q 761 768 753 763 q 765 765 767 765 l 771 765 q 765 772 767 767 q 767 779 767 775 q 771 789 768 783 l 765 789 q 761 775 765 781 q 750 788 758 779 q 761 800 761 792 q 750 810 761 810 q 739 797 739 810 m 693 789 q 703 779 703 788 q 692 768 703 768 q 685 769 689 768 q 678 772 682 771 l 676 767 q 683 764 679 765 q 692 763 686 763 q 707 767 703 763 q 711 779 711 772 q 708 789 711 786 q 697 794 704 792 q 685 806 685 803 q 696 814 685 814 q 707 813 706 814 l 707 818 q 697 819 706 819 q 678 806 678 819 q 693 789 678 796 m 651 814 l 651 765 l 656 765 l 656 814 l 674 814 l 674 819 l 633 819 l 633 814 l 651 814 m 590 813 q 596 803 593 807 q 601 793 599 799 l 619 765 l 628 765 l 628 819 l 619 819 l 619 797 q 619 785 619 790 q 622 772 619 779 q 617 783 619 778 q 611 790 614 788 l 593 819 l 585 819 l 585 765 l 590 765 l 590 788 l 590 813 m 576 793 q 550 819 576 819 q 532 813 539 819 q 525 790 525 806 q 532 771 525 779 q 550 763 539 763 q 569 770 561 763 q 576 793 576 778 m 494 794 l 494 814 l 517 814 l 517 819 l 489 819 l 489 765 l 494 765 l 494 789 l 515 789 l 515 794 l 494 794 m 474 743 l 1063 743 l 1063 753 l 474 753 l 474 743 m 1044 632 q 1039 671 1044 653 q 1019 701 1033 689 q 954 728 994 728 q 885 701 910 728 q 861 629 861 669 q 888 557 861 586 q 953 529 913 529 q 1018 558 993 529 q 1044 632 1044 583 m 736 585 q 728 628 728 597 q 757 688 728 688 q 776 678 768 688 q 782 667 781 675 q 786 651 783 660 l 836 651 q 830 683 835 669 q 814 707 825 696 q 757 728 794 728 q 692 701 713 728 q 669 628 669 675 q 693 557 669 579 q 757 529 718 529 q 811 547 789 529 q 836 601 833 565 l 786 606 q 757 572 782 572 q 736 585 742 572 m 647 629 q 622 697 647 665 q 550 725 599 725 l 474 725 l 474 535 l 554 535 q 619 560 599 535 q 647 629 647 590 m 294 736 q 269 714 278 733 q 263 671 260 694 q 282 633 268 647 q 313 622 296 619 q 310 608 310 618 q 324 568 310 583 q 344 549 331 557 q 375 538 358 542 q 410 533 392 535 q 450 532 429 532 l 450 539 q 419 540 435 539 q 390 543 404 542 q 381 544 386 543 q 372 547 376 546 q 356 553 367 547 q 341 561 349 557 q 329 572 333 565 q 324 585 326 579 q 321 600 321 592 q 333 583 326 589 q 350 572 340 578 q 356 569 353 571 q 361 567 358 568 q 403 560 381 561 q 450 558 426 558 l 450 571 q 405 572 426 571 q 367 579 383 574 q 352 585 358 582 q 339 590 346 588 q 328 603 332 597 q 321 618 324 610 l 321 624 q 325 636 324 631 q 329 644 326 642 q 375 671 343 664 q 385 674 381 674 q 394 675 390 674 q 397 676 397 675 q 399 676 397 676 q 403 678 399 678 q 408 681 404 681 l 411 681 l 413 681 l 418 681 q 425 676 418 679 l 426 676 q 428 678 426 678 q 431 681 429 678 q 440 685 435 685 q 450 688 442 688 l 450 840 q 358 802 383 838 q 329 718 333 767 q 313 733 322 726 q 294 736 304 739 m 450 644 q 435 649 443 644 q 425 656 428 653 q 411 651 422 651 q 393 663 396 651 l 393 660 q 411 646 393 646 q 425 651 419 646 q 450 640 432 640 l 450 644 m 1063 514 l 263 514 l 263 32 l 1063 32 l 1063 514 m 754 800 q 749 790 754 794 q 744 794 746 793 q 743 800 743 796 q 750 806 743 806 q 754 800 754 806 m 550 685 q 576 669 567 685 q 586 629 586 650 q 576 590 586 607 q 550 575 564 575 l 532 575 l 532 685 l 550 685 m 922 628 q 954 688 922 688 q 983 633 983 688 q 982 604 983 617 q 975 585 981 592 q 953 571 971 571 q 922 628 922 571 m 307 632 q 290 639 299 629 q 278 656 281 649 q 271 695 268 676 q 288 721 274 714 q 309 720 301 726 q 325 703 317 714 q 325 678 329 700 q 313 676 317 678 q 324 671 319 676 q 313 672 318 674 q 306 669 308 671 q 311 665 307 667 q 319 660 315 664 q 306 658 308 660 q 310 656 308 657 q 314 654 313 656 l 317 651 q 307 632 313 635 m 397 693 q 372 706 381 696 q 367 717 364 717 q 422 718 407 739 q 418 704 422 715 q 399 693 414 693 l 397 693 m 310 331 q 321 330 317 331 q 328 328 325 329 q 333 314 333 319 q 332 307 333 310 q 328 300 331 304 q 320 297 325 299 q 310 296 315 296 l 307 296 l 307 276 l 294 276 l 294 329 q 310 331 299 331 m 310 306 q 321 313 321 306 q 310 321 321 321 l 307 321 l 307 306 l 310 306 m 353 321 l 353 308 l 372 308 l 372 300 l 353 300 l 353 286 l 375 286 l 375 276 l 342 276 l 342 331 l 375 331 l 375 321 l 353 321 m 421 314 q 413 303 421 307 q 419 292 417 297 q 422 276 422 281 l 411 276 q 410 281 411 278 q 407 290 408 283 q 399 299 407 299 l 394 299 l 394 276 l 382 276 l 382 329 q 390 331 385 331 q 399 331 394 331 q 410 330 406 331 q 418 328 414 329 q 421 314 421 322 m 400 307 q 408 314 408 307 q 400 321 408 321 l 394 321 l 394 307 l 400 307 m 444 286 q 451 292 451 286 q 444 299 451 294 q 429 314 429 306 q 450 331 429 331 q 457 330 454 331 q 463 329 460 329 l 460 319 q 456 320 458 319 q 450 321 453 321 q 442 317 442 321 q 451 308 442 310 q 464 292 464 304 q 460 281 464 286 q 444 276 456 276 q 426 281 432 276 l 431 290 q 444 286 435 286 m 469 303 q 496 331 469 331 q 515 324 510 331 q 521 306 521 317 q 496 276 521 276 q 469 303 469 276 m 510 306 q 506 316 510 311 q 496 321 503 321 q 483 303 483 321 q 496 286 483 286 q 510 306 510 286 m 550 299 q 546 306 549 301 q 542 317 543 311 l 539 317 q 542 305 542 310 q 542 292 542 300 l 542 276 l 529 276 l 529 331 l 543 331 l 557 310 q 564 292 558 306 l 564 314 l 564 331 l 575 331 l 575 276 l 561 276 l 550 299 m 597 331 l 614 331 l 629 276 l 618 276 l 614 290 l 597 290 l 593 276 l 582 276 l 597 331 m 600 300 l 611 300 l 607 310 q 606 316 607 313 q 606 321 606 319 q 604 310 604 319 l 600 300 m 651 331 l 651 286 l 671 286 l 671 276 l 638 276 l 638 331 l 651 331 m 706 331 l 706 300 q 717 286 706 286 q 725 300 725 286 l 725 331 l 739 331 l 739 300 q 717 276 739 276 q 693 300 693 276 l 693 331 l 706 331 m 764 286 q 771 292 771 286 q 761 299 771 294 q 746 314 746 306 q 767 331 746 331 q 774 330 771 331 q 782 329 778 329 l 779 319 q 774 320 776 319 q 767 321 771 321 q 758 317 758 321 q 768 308 758 311 q 783 292 783 304 q 778 281 783 286 q 761 276 772 276 q 746 281 750 276 l 749 290 q 764 286 754 286 m 804 321 l 804 308 l 824 308 l 824 300 l 804 300 l 804 286 l 826 286 l 826 276 l 790 276 l 790 331 l 824 331 l 824 321 l 804 321 m 847 303 q 874 331 847 331 q 892 324 885 331 q 900 306 900 317 q 892 283 900 290 q 874 276 885 276 q 847 303 847 276 m 885 306 q 882 316 885 311 q 874 321 879 321 q 861 303 861 321 q 874 286 861 286 q 885 306 885 286 m 926 299 q 923 306 925 301 q 918 317 921 311 l 918 292 l 918 276 l 906 276 l 906 331 l 921 331 l 932 310 q 937 302 935 307 q 940 292 939 297 l 940 314 l 940 331 l 950 331 l 950 276 l 939 276 l 926 299 m 972 331 l 972 286 l 996 286 l 996 276 l 961 276 l 961 331 l 972 331 m 1008 276 l 1008 299 l 990 331 l 1004 331 l 1011 317 q 1015 307 1014 308 q 1017 312 1017 310 q 1018 317 1017 314 l 1024 331 l 1038 331 l 1019 299 l 1019 276 l 1008 276 m 301 229 l 301 211 q 307 201 301 201 q 313 211 313 201 l 313 229 l 319 229 l 319 211 q 307 196 319 196 q 292 211 292 196 l 292 229 l 301 229 m 335 201 q 339 207 339 201 q 335 211 339 208 q 325 221 325 214 q 338 231 325 231 q 343 230 340 231 q 347 229 346 229 l 346 222 q 342 224 343 222 q 338 225 340 225 q 333 221 333 225 q 339 215 333 219 q 347 207 347 215 q 335 196 347 196 q 325 197 328 196 l 328 204 q 335 201 329 201 m 361 229 l 371 229 l 382 196 l 375 196 l 371 204 l 361 204 l 357 196 l 353 196 l 361 229 m 361 211 l 371 211 l 368 218 q 367 225 367 221 q 366 223 367 224 q 365 221 365 222 q 364 218 364 219 l 361 211 m 403 225 q 394 222 399 225 q 390 213 390 219 q 400 201 390 201 l 404 201 l 404 211 l 400 211 l 400 215 l 413 215 l 413 197 q 407 196 411 196 q 400 196 403 196 q 389 200 390 196 q 382 213 382 207 q 403 231 382 231 q 407 230 406 231 q 411 229 408 229 l 408 222 q 406 224 407 222 q 403 225 404 224 m 425 222 l 425 215 l 438 215 l 438 211 l 425 211 l 425 201 l 440 201 l 440 196 l 419 196 l 419 229 l 440 229 l 440 222 l 425 222 m 467 231 q 476 226 469 231 q 478 218 478 225 q 476 213 478 213 q 464 208 474 208 l 463 208 l 463 196 l 456 196 l 456 229 q 460 230 458 229 q 467 231 461 231 m 464 215 q 472 218 472 215 q 467 225 472 225 l 463 225 l 463 215 l 464 215 m 490 222 l 490 215 l 503 215 l 503 211 l 490 211 l 490 201 l 506 201 l 506 196 l 485 196 l 485 229 l 506 229 l 506 222 l 490 222 m 535 221 q 528 213 535 213 q 531 210 531 211 q 535 207 532 208 q 535 200 535 203 q 536 196 536 197 l 528 196 q 525 204 528 200 q 519 211 525 207 l 517 211 l 517 196 l 511 196 l 511 229 q 516 230 514 229 q 521 231 518 231 q 532 226 528 231 q 535 221 535 226 m 521 215 q 528 221 528 215 q 521 225 528 225 l 517 225 l 517 215 l 521 215 m 549 201 q 554 207 554 201 q 549 211 554 207 q 539 221 539 213 q 553 231 539 231 q 557 230 556 231 q 560 229 558 229 l 558 222 q 556 224 557 222 q 553 225 554 225 q 546 221 546 225 q 553 215 546 219 q 561 207 561 215 q 549 196 561 196 q 538 197 539 196 l 539 204 q 549 201 542 201 m 564 213 q 582 231 564 231 q 597 213 597 231 q 582 196 597 196 q 564 213 564 196 m 589 213 q 587 221 589 217 q 582 225 585 225 q 575 221 578 225 q 572 213 572 217 q 582 201 572 201 q 589 213 589 201 m 615 208 q 613 214 614 211 q 608 221 611 217 l 608 207 l 608 196 l 604 196 l 604 229 l 611 229 l 618 215 q 624 207 621 215 l 624 221 l 624 229 l 629 229 l 629 196 l 622 196 l 615 208 m 649 208 q 646 214 647 211 q 644 221 644 217 l 644 207 l 644 196 l 636 196 l 636 229 l 647 229 l 651 215 q 658 207 653 215 q 657 213 658 210 q 656 221 656 217 l 656 229 l 665 229 l 665 196 l 656 196 l 649 208 m 678 222 l 678 215 l 692 215 l 692 211 l 678 211 l 678 201 l 692 201 l 692 196 l 671 196 l 671 229 l 692 229 l 692 222 l 678 222 m 706 229 l 706 201 l 718 201 l 718 196 l 697 196 l 697 229 l 706 229 m 740 229 l 740 211 q 746 201 740 201 q 753 211 753 201 l 753 229 l 761 229 l 761 211 q 746 196 761 196 q 732 211 732 196 l 732 229 l 740 229 m 779 208 q 772 221 776 213 l 772 207 l 772 196 l 767 196 l 767 229 l 775 229 l 783 215 q 788 207 788 215 l 788 221 l 788 229 l 793 229 l 793 196 l 788 196 l 779 208 m 801 196 l 801 229 l 808 229 l 808 196 l 801 196 m 847 213 q 844 204 847 208 q 838 197 840 200 q 842 197 840 197 q 847 196 843 196 l 844 190 q 831 196 836 192 l 829 196 q 814 213 814 196 q 831 231 814 231 q 847 213 847 231 m 831 201 q 838 213 838 201 q 835 221 838 217 q 831 225 833 225 q 824 221 825 225 q 822 213 822 217 q 831 201 822 201 m 858 229 l 858 211 q 865 201 858 201 q 871 211 871 201 l 871 229 l 878 229 l 878 211 q 865 196 878 196 q 851 211 851 196 l 851 229 l 858 229 m 892 222 l 892 215 l 904 215 l 904 211 l 892 211 l 892 201 l 906 201 l 906 196 l 885 196 l 885 229 l 906 229 l 906 222 l 892 222 m 935 229 l 946 229 l 947 196 l 940 196 l 939 208 l 939 222 q 938 217 939 219 q 935 211 936 214 l 931 196 l 925 196 l 922 211 q 921 217 921 214 q 918 222 921 219 l 918 208 l 918 196 l 910 196 l 913 229 l 922 229 l 926 218 q 927 213 926 215 q 928 207 928 210 q 931 213 931 210 q 932 218 931 215 l 935 229 m 961 222 l 961 215 l 972 215 l 972 211 l 961 211 l 961 201 l 975 201 l 975 196 l 953 196 l 953 229 l 972 229 l 972 222 l 961 222 m 992 208 q 989 214 990 211 q 986 221 988 217 l 986 207 l 986 196 l 979 196 l 979 229 l 988 229 l 996 215 q 1000 207 1000 215 l 1000 221 l 1000 229 l 1008 229 l 1008 196 l 1000 196 l 992 208 m 1019 196 l 1019 222 l 1013 222 l 1013 229 l 1038 229 l 1038 222 l 1029 222 l 1029 196 l 1019 196 m 379 126 q 394 113 394 126 q 379 99 394 99 q 367 113 367 99 q 379 126 367 126 m 379 100 q 393 113 393 100 q 379 124 393 124 q 371 113 371 124 q 379 100 371 100 m 382 106 q 386 108 385 106 l 386 106 q 383 104 385 104 l 382 104 q 372 113 372 104 q 382 121 372 121 q 386 118 386 121 l 386 117 l 385 117 q 383 117 383 117 q 382 118 383 118 q 375 113 375 118 q 382 106 375 106 m 421 104 l 421 96 l 415 96 l 415 100 l 413 100 q 407 96 413 96 q 397 108 397 96 q 401 117 397 113 q 407 121 404 121 q 413 117 413 121 l 413 128 l 421 128 l 421 104 m 413 110 q 408 114 413 114 q 404 108 404 114 q 408 101 404 101 q 411 103 410 101 l 413 104 l 413 106 l 413 110 m 438 114 q 431 108 431 114 q 433 103 431 106 q 438 101 436 101 l 442 101 l 442 99 q 436 96 442 96 q 425 108 425 96 q 428 117 425 113 q 438 121 431 121 q 441 119 440 121 q 444 118 442 118 l 442 114 l 438 114 m 456 121 q 465 117 463 121 q 468 108 468 113 q 456 96 468 96 q 444 108 444 96 q 448 117 444 113 q 456 121 451 121 m 456 101 q 460 108 460 101 q 456 114 460 114 q 451 108 451 114 q 456 101 451 101 m 494 104 l 494 96 l 489 96 l 489 100 l 488 100 q 481 96 488 96 q 469 108 469 96 q 474 117 469 113 q 481 121 478 121 q 488 117 488 121 l 488 128 l 494 128 l 494 104 m 488 110 q 483 114 488 114 q 478 108 478 114 q 483 101 478 101 q 486 103 483 101 q 488 104 488 103 l 488 106 l 488 110 m 517 99 q 510 96 515 96 q 499 108 499 96 q 501 116 499 111 q 510 121 503 121 q 517 117 515 121 q 519 108 519 113 l 519 106 l 506 106 q 511 101 506 101 l 517 101 l 517 99 m 510 114 q 506 110 506 114 l 514 110 q 510 114 514 114 m 532 101 q 529 106 532 104 q 524 113 524 106 q 532 121 524 121 q 534 120 533 121 q 536 119 535 119 l 538 118 l 538 114 l 532 114 q 529 113 529 114 l 535 110 q 539 104 539 107 q 529 96 539 96 q 526 97 528 96 q 521 99 524 99 l 524 101 l 529 101 l 532 101 m 546 128 q 550 124 550 128 l 546 124 l 543 124 q 546 128 543 128 m 543 118 l 550 118 l 550 96 l 543 96 l 543 118 m 564 92 q 571 99 571 92 l 571 100 q 564 99 568 99 q 554 108 554 99 q 557 117 554 113 q 564 121 560 121 q 571 117 571 121 l 571 118 l 576 118 l 576 113 l 576 100 q 572 90 576 92 q 564 88 571 88 q 557 90 558 88 l 558 94 q 560 93 558 93 q 564 92 561 92 m 571 110 q 567 114 567 114 q 561 108 561 114 q 567 101 561 101 q 568 103 568 101 q 571 104 568 104 l 571 106 l 571 110 m 594 121 q 604 110 604 121 l 604 96 l 597 96 l 597 108 q 593 114 597 114 q 590 113 590 114 q 589 113 590 113 l 589 110 l 589 96 l 582 96 l 582 113 l 582 118 l 589 118 l 589 117 l 590 118 q 594 121 593 121 m 619 106 l 607 106 l 607 110 l 619 110 l 619 106 m 638 114 l 651 114 l 651 99 q 646 97 649 99 q 640 96 643 96 q 628 100 632 96 q 625 106 626 103 q 624 113 624 110 q 640 128 624 128 q 643 127 642 128 q 646 126 644 126 l 649 126 l 649 121 q 645 122 647 121 q 640 124 643 124 q 629 113 629 124 q 640 101 629 101 l 644 101 l 644 108 l 638 108 l 638 114 m 656 96 l 656 113 q 654 118 656 117 l 660 118 l 663 114 q 669 121 663 121 l 669 118 l 669 113 l 667 113 q 663 110 663 113 l 663 108 l 663 96 l 656 96 m 693 107 q 692 106 693 106 l 676 106 q 685 101 678 101 l 692 101 l 692 99 q 683 96 689 96 q 671 108 671 96 q 674 116 671 111 q 683 121 676 121 q 690 117 688 121 q 693 108 693 113 l 693 107 m 685 110 q 683 114 685 114 q 676 110 678 114 l 685 110 m 706 92 q 711 99 711 92 l 711 100 q 706 99 710 99 q 696 108 696 99 q 698 117 696 113 q 706 121 700 121 q 711 117 707 121 l 711 118 l 718 118 l 718 113 l 718 100 q 714 90 718 92 q 706 88 711 88 q 697 90 699 88 l 699 94 q 700 93 699 93 q 706 92 701 92 m 711 110 l 710 110 q 707 114 710 114 q 701 108 701 114 q 707 101 701 101 q 710 103 710 101 l 710 104 l 711 106 l 711 110 m 743 108 q 735 96 743 96 q 721 108 721 96 q 724 117 721 113 q 735 121 728 121 q 741 117 739 121 q 743 108 743 113 m 731 108 q 735 101 731 101 q 739 108 739 101 q 735 114 739 114 q 731 108 731 114 m 749 96 l 749 113 l 749 118 l 754 118 l 754 114 l 757 114 q 761 121 757 121 q 764 118 764 121 l 764 113 l 761 113 q 757 110 757 113 l 757 108 l 757 96 l 749 96 m 772 96 l 772 99 l 765 118 l 772 118 l 776 108 l 776 104 q 779 108 776 106 l 782 118 l 789 118 l 783 104 q 775 90 778 93 q 772 88 772 88 q 768 85 771 88 l 767 92 q 768 93 768 92 q 771 94 768 94 l 772 96 m 833 126 l 835 96 l 829 96 l 826 108 l 826 121 q 825 115 826 118 q 822 110 824 113 l 819 99 l 814 99 l 810 108 q 809 115 810 111 q 808 121 808 118 l 808 108 l 806 96 l 800 96 l 801 126 l 811 126 l 814 117 q 815 106 815 114 l 818 106 q 819 117 818 114 l 824 126 l 833 126 m 849 121 q 857 117 856 121 q 858 108 858 113 l 858 106 l 844 106 q 851 101 844 101 l 857 101 l 858 99 q 851 96 856 96 q 838 108 838 96 q 840 116 838 111 q 849 121 842 121 m 853 110 q 849 114 853 114 q 844 110 844 114 l 853 110 m 885 104 l 885 96 l 881 96 l 881 100 q 876 97 878 99 q 871 96 874 96 q 863 108 863 96 q 865 117 861 113 q 871 121 868 121 q 878 117 878 121 l 878 128 l 885 128 l 885 104 m 878 110 q 874 114 878 114 q 869 108 869 114 q 874 101 869 101 q 876 103 874 101 q 878 104 878 103 l 878 106 l 878 110 m 894 128 q 899 124 899 128 l 894 124 l 889 124 q 894 128 889 128 m 889 118 l 899 118 l 899 96 l 889 96 l 889 118 m 917 121 q 925 110 925 121 l 925 96 l 917 96 l 917 108 q 914 114 917 114 q 913 113 913 114 q 911 113 913 113 l 910 113 l 910 110 l 910 96 l 904 96 l 904 113 q 903 115 904 114 q 903 118 903 117 l 907 118 l 910 117 l 911 118 q 917 121 914 121 m 950 101 l 950 96 l 943 96 l 943 100 l 940 100 q 935 96 940 96 q 928 104 928 96 q 940 113 928 113 l 939 113 q 936 114 938 113 q 931 113 932 114 l 931 118 q 933 119 932 118 q 935 120 935 119 q 939 121 936 121 q 947 117 944 121 q 950 110 950 113 l 950 101 m 940 108 q 935 104 935 108 q 939 101 935 101 q 940 104 939 101 l 940 108 m 331 385 l 308 385 l 308 485 q 322 488 313 488 q 339 488 331 488 q 372 478 361 488 q 379 458 379 472 q 364 433 379 439 l 364 431 q 375 413 375 428 q 380 395 378 403 q 385 385 382 388 l 361 385 q 353 408 360 386 q 349 422 353 419 q 338 425 344 425 l 331 425 l 331 385 m 331 442 l 339 442 q 357 456 357 442 q 342 469 357 469 l 331 469 l 331 442 m 463 385 l 399 385 l 399 488 l 460 488 l 460 468 l 421 468 l 421 444 l 458 444 l 458 426 l 421 426 l 421 403 l 463 403 l 463 385 m 499 385 l 476 385 l 483 488 l 514 488 l 524 451 q 528 433 526 443 q 532 415 529 424 l 535 415 q 538 434 536 424 q 543 451 540 444 l 554 488 l 585 488 l 589 385 l 567 385 l 564 422 l 564 467 q 558 445 561 456 q 553 425 556 435 l 539 386 l 521 386 l 511 425 q 506 445 508 435 q 501 467 504 456 l 501 422 l 499 385 m 629 385 l 607 385 l 607 488 l 629 488 l 629 385 m 674 385 l 651 385 l 651 488 l 676 488 l 699 449 q 708 431 704 440 q 717 415 713 422 q 714 434 714 424 q 714 456 714 444 l 714 488 l 736 488 l 736 385 l 711 385 l 689 422 q 680 442 685 433 q 671 460 675 450 q 672 438 671 449 q 674 415 674 426 l 674 385 m 829 397 q 809 386 821 390 q 782 382 797 382 q 765 383 771 382 q 754 385 760 385 l 754 485 q 769 488 761 488 q 788 488 778 488 q 829 476 814 488 q 842 460 836 469 q 847 438 847 451 q 842 413 847 424 q 829 397 836 403 m 779 400 l 788 400 q 822 438 822 400 q 789 469 822 469 q 783 469 785 469 q 779 468 782 468 l 779 400 m 926 385 l 861 385 l 861 488 l 925 488 l 925 468 l 883 468 l 883 444 l 922 444 l 922 426 l 883 426 l 883 403 l 926 403 l 926 385 m 965 385 l 943 385 l 943 485 q 956 488 949 488 q 972 488 964 488 q 1006 478 994 488 q 1017 458 1017 471 q 1010 442 1017 447 q 997 433 1004 436 l 997 431 q 1011 413 1007 429 q 1015 395 1014 403 q 1018 385 1017 388 l 996 385 q 988 408 994 386 q 983 422 986 419 q 972 425 979 425 l 965 425 l 965 385 m 965 442 l 972 442 q 992 456 992 442 q 975 469 992 469 l 965 469 l 965 442 m 1039 353 l 290 353 l 290 361 l 1039 361 l 1039 353 m 1039 244 l 290 244 l 290 254 l 1039 254 l 1039 244 m 1039 169 l 290 169 l 290 178 l 1039 178 l 1039 169 m 528 72 l 532 72 l 525 51 l 521 51 l 517 65 l 514 51 l 510 51 l 501 72 l 507 72 l 511 58 l 515 72 l 519 72 l 524 58 l 528 72 m 558 72 l 561 72 l 557 51 l 553 51 l 549 65 l 543 51 l 539 51 l 532 72 l 538 72 l 542 58 l 546 72 l 550 72 l 554 58 l 558 72 m 589 72 l 593 72 l 586 51 l 582 51 l 579 65 l 575 51 l 571 51 l 561 72 l 568 72 l 572 58 l 576 72 l 582 72 l 585 58 l 589 72 m 594 57 l 601 57 l 601 51 l 594 51 l 594 57 m 619 79 l 626 79 l 626 51 l 619 51 l 619 54 q 618 53 619 53 q 614 51 615 51 q 607 54 610 51 q 606 61 606 57 q 607 69 606 67 q 614 74 608 74 q 619 69 617 74 l 619 79 m 618 57 q 619 61 619 58 q 618 67 619 65 l 615 69 q 614 68 614 69 q 611 67 614 67 l 611 63 l 611 57 q 613 56 611 56 q 615 54 614 54 l 618 57 m 642 58 l 649 58 q 644 53 649 54 q 638 51 644 51 q 632 54 635 51 q 629 61 629 54 q 632 69 629 67 q 638 74 633 74 q 640 73 639 74 q 643 72 642 72 l 644 72 q 649 65 649 68 l 642 65 l 642 67 q 640 68 640 67 q 638 69 640 69 l 636 67 q 635 65 636 65 q 633 63 633 65 q 635 59 633 60 q 636 57 636 58 q 638 56 636 56 q 640 54 638 54 l 642 57 l 642 58 m 660 74 q 669 69 665 74 q 672 65 671 67 q 674 61 674 64 q 672 58 674 58 q 669 54 671 57 q 665 52 667 53 q 660 51 664 51 l 658 51 q 656 53 657 51 q 651 57 651 53 l 651 63 l 651 67 q 656 72 651 72 q 658 73 658 72 q 660 74 658 74 m 665 57 q 667 61 667 58 q 665 67 667 65 l 660 67 l 658 67 q 656 61 656 65 q 658 57 656 58 l 660 54 q 664 56 663 54 q 665 57 665 56 m 688 63 l 696 51 l 689 51 l 685 58 l 681 51 l 674 51 l 681 63 l 674 72 l 681 72 l 685 67 l 688 72 l 696 72 l 688 63 m 711 72 l 717 72 l 710 53 l 707 49 l 707 47 l 706 44 l 703 44 q 701 43 703 43 q 697 44 699 43 l 697 49 l 699 47 l 701 47 l 701 49 q 703 50 701 49 l 703 51 l 696 72 l 701 72 l 706 57 l 711 72 m 718 57 l 721 57 l 721 51 l 718 51 l 718 57 m 740 58 l 746 58 q 744 56 746 57 q 743 53 743 54 q 736 51 743 51 q 731 54 733 51 q 725 61 725 54 q 731 69 725 64 q 736 74 732 74 q 739 73 738 74 q 742 72 740 72 l 743 72 q 746 65 743 69 l 740 65 l 740 67 q 739 68 739 67 q 736 69 739 69 l 735 67 q 732 63 732 65 q 735 57 732 58 l 736 54 q 740 57 739 54 l 740 58 m 758 74 q 767 69 764 74 q 769 65 768 67 q 771 61 771 64 q 769 58 771 58 q 767 54 768 57 q 758 51 764 51 q 754 53 757 51 q 750 57 750 53 q 749 63 749 57 l 749 64 q 750 67 749 65 q 754 72 750 72 l 756 72 q 757 73 757 72 q 758 74 757 74 m 764 57 q 765 61 765 58 q 764 67 765 65 l 758 67 l 757 67 q 754 61 754 65 q 757 57 754 58 l 758 54 q 763 56 761 54 q 764 57 764 56 m 804 69 l 804 65 l 804 51 l 797 51 l 797 63 l 797 67 l 797 68 l 796 69 l 794 69 q 793 67 793 69 l 792 67 q 790 65 790 67 l 790 61 l 790 51 l 786 51 l 786 63 l 786 67 q 785 69 786 68 l 783 69 l 782 69 l 782 67 l 781 67 q 779 65 779 67 l 779 61 l 779 51 l 772 51 l 772 72 l 779 72 l 779 69 q 786 74 783 74 q 789 72 788 74 l 790 69 q 792 72 790 72 l 793 72 q 797 74 796 74 q 800 73 800 74 q 801 72 800 72 l 804 69 z "},"4":{"ha":1413,"x_min":225,"x_max":1100,"o":"m 532 790 q 536 808 532 801 q 550 815 540 815 q 563 808 558 815 q 568 790 568 801 q 563 775 568 782 q 550 768 558 768 q 537 775 542 768 q 532 790 532 782 m 804 814 l 811 814 q 835 793 835 814 q 810 768 835 768 l 804 768 l 804 814 m 740 776 q 742 783 740 782 q 743 786 742 785 q 752 778 749 783 q 758 771 756 774 q 749 767 756 767 q 740 776 740 767 m 1100 867 l 1100 0 l 225 0 l 225 867 l 1100 867 m 474 831 l 1063 831 l 1063 840 l 474 840 l 474 831 m 1013 788 q 1013 800 1013 794 q 1011 813 1013 806 l 1013 813 q 1022 793 1017 803 l 1039 765 l 1047 765 l 1047 819 l 1042 819 l 1042 797 l 1042 772 q 1031 790 1038 783 l 1013 819 l 1004 819 l 1004 765 l 1013 765 l 1013 788 m 978 768 q 961 774 968 768 q 954 790 954 779 q 961 808 954 801 q 978 814 968 814 q 990 813 988 814 l 992 818 q 978 819 990 819 q 950 790 950 819 q 951 779 950 785 q 957 771 951 774 q 978 763 963 763 q 987 764 982 763 q 994 767 992 765 l 994 793 l 975 793 l 975 788 l 988 788 l 988 771 q 983 769 986 771 q 978 768 981 768 m 932 819 l 932 765 l 939 765 l 939 819 l 932 819 m 904 789 q 914 779 914 788 q 904 768 914 768 q 897 769 900 768 q 889 772 893 771 l 888 767 q 895 764 890 765 q 903 763 900 763 q 918 767 914 763 q 922 779 922 772 q 907 794 922 789 q 899 806 899 801 q 907 814 899 814 q 918 813 917 814 l 921 818 q 907 819 918 819 q 889 806 889 819 q 904 789 889 796 m 857 794 l 857 814 l 881 814 l 881 819 l 851 819 l 851 765 l 881 765 l 881 771 l 857 771 l 857 789 l 881 789 l 881 794 l 857 794 m 840 793 q 835 814 840 803 q 811 819 828 819 l 796 819 l 796 765 q 802 764 799 765 q 808 763 806 763 q 835 771 824 763 q 840 793 840 782 m 739 797 q 743 789 739 790 q 735 775 735 783 q 749 763 735 763 q 761 768 753 763 q 765 765 767 765 l 771 765 q 765 772 767 767 q 767 779 767 775 q 771 789 768 783 l 765 789 q 761 775 765 781 q 750 788 758 779 q 761 800 761 792 q 750 810 761 810 q 739 797 739 810 m 693 789 q 703 779 703 788 q 692 768 703 768 q 685 769 689 768 q 678 772 682 771 l 676 767 q 683 764 679 765 q 692 763 686 763 q 707 767 703 763 q 711 779 711 772 q 708 789 711 786 q 697 794 704 792 q 685 806 685 803 q 696 814 685 814 q 707 813 706 814 l 707 818 q 697 819 706 819 q 678 806 678 819 q 693 789 678 796 m 651 814 l 651 765 l 656 765 l 656 814 l 674 814 l 674 819 l 633 819 l 633 814 l 651 814 m 590 813 q 596 803 593 807 q 601 793 599 799 l 619 765 l 628 765 l 628 819 l 619 819 l 619 797 q 619 785 619 790 q 622 772 619 779 q 617 783 619 778 q 611 790 614 788 l 593 819 l 585 819 l 585 765 l 590 765 l 590 788 l 590 813 m 576 793 q 550 819 576 819 q 532 813 539 819 q 525 790 525 806 q 532 771 525 779 q 550 763 539 763 q 569 770 561 763 q 576 793 576 778 m 494 794 l 494 814 l 517 814 l 517 819 l 489 819 l 489 765 l 494 765 l 494 789 l 515 789 l 515 794 l 494 794 m 474 743 l 1063 743 l 1063 753 l 474 753 l 474 743 m 1044 632 q 1039 671 1044 653 q 1019 701 1033 689 q 954 728 994 728 q 885 701 910 728 q 861 629 861 669 q 888 557 861 586 q 953 529 913 529 q 1018 558 993 529 q 1044 632 1044 583 m 736 585 q 728 628 728 597 q 757 688 728 688 q 776 678 768 688 q 782 667 781 675 q 786 651 783 660 l 836 651 q 830 683 835 669 q 814 707 825 696 q 757 728 794 728 q 692 701 713 728 q 669 628 669 675 q 693 557 669 579 q 757 529 718 529 q 811 547 789 529 q 836 601 833 565 l 786 606 q 757 572 782 572 q 736 585 742 572 m 647 629 q 622 697 647 665 q 550 725 599 725 l 474 725 l 474 535 l 554 535 q 619 560 599 535 q 647 629 647 590 m 294 736 q 269 714 278 733 q 263 671 260 694 q 282 633 268 647 q 313 622 296 619 q 310 608 310 618 q 324 568 310 583 q 344 549 331 557 q 375 538 358 542 q 410 533 392 535 q 450 532 429 532 l 450 539 q 419 540 435 539 q 390 543 404 542 q 381 544 386 543 q 372 547 376 546 q 356 553 367 547 q 341 561 349 557 q 329 572 333 565 q 324 585 326 579 q 321 600 321 592 q 333 583 326 589 q 350 572 340 578 q 356 569 353 571 q 361 567 358 568 q 403 560 381 561 q 450 558 426 558 l 450 571 q 405 572 426 571 q 367 579 383 574 q 352 585 358 582 q 339 590 346 588 q 328 603 332 597 q 321 618 324 610 l 321 624 q 325 636 324 631 q 329 644 326 642 q 375 671 343 664 q 385 674 381 674 q 394 675 390 674 q 397 676 397 675 q 399 676 397 676 q 403 678 399 678 q 408 681 404 681 l 411 681 l 413 681 l 418 681 q 425 676 418 679 l 426 676 q 428 678 426 678 q 431 681 429 678 q 440 685 435 685 q 450 688 442 688 l 450 840 q 358 802 383 838 q 329 718 333 767 q 313 733 322 726 q 294 736 304 739 m 450 644 q 435 649 443 644 q 425 656 428 653 q 411 651 422 651 q 393 663 396 651 l 393 660 q 411 646 393 646 q 425 651 419 646 q 450 640 432 640 l 450 644 m 1063 514 l 263 514 l 263 32 l 1063 32 l 1063 514 m 754 800 q 749 790 754 794 q 744 794 746 793 q 743 800 743 796 q 750 806 743 806 q 754 800 754 806 m 550 685 q 576 669 567 685 q 586 629 586 650 q 576 590 586 607 q 550 575 564 575 l 532 575 l 532 685 l 550 685 m 922 628 q 954 688 922 688 q 983 633 983 688 q 982 604 983 617 q 975 585 981 592 q 953 571 971 571 q 922 628 922 571 m 307 632 q 290 639 299 629 q 278 656 281 649 q 271 695 268 676 q 288 721 274 714 q 309 720 301 726 q 325 703 317 714 q 325 678 329 700 q 313 676 317 678 q 324 671 319 676 q 313 672 318 674 q 306 669 308 671 q 311 665 307 667 q 319 660 315 664 q 306 658 308 660 q 310 656 308 657 q 314 654 313 656 l 317 651 q 307 632 313 635 m 397 693 q 372 706 381 696 q 367 717 364 717 q 422 718 407 739 q 418 704 422 715 q 399 693 414 693 l 397 693 m 310 331 q 321 330 317 331 q 328 328 325 329 q 333 314 333 319 q 332 307 333 310 q 328 300 331 304 q 320 297 325 299 q 310 296 315 296 l 307 296 l 307 276 l 294 276 l 294 329 q 310 331 299 331 m 310 306 q 321 313 321 306 q 310 321 321 321 l 307 321 l 307 306 l 310 306 m 353 321 l 353 308 l 372 308 l 372 300 l 353 300 l 353 286 l 375 286 l 375 276 l 342 276 l 342 331 l 375 331 l 375 321 l 353 321 m 421 314 q 413 303 421 307 q 419 292 417 297 q 422 276 422 281 l 411 276 q 410 281 411 278 q 407 290 408 283 q 399 299 407 299 l 394 299 l 394 276 l 382 276 l 382 329 q 390 331 385 331 q 399 331 394 331 q 410 330 406 331 q 418 328 414 329 q 421 314 421 322 m 400 307 q 408 314 408 307 q 400 321 408 321 l 394 321 l 394 307 l 400 307 m 444 286 q 451 292 451 286 q 444 299 451 294 q 429 314 429 306 q 450 331 429 331 q 457 330 454 331 q 463 329 460 329 l 460 319 q 456 320 458 319 q 450 321 453 321 q 442 317 442 321 q 451 308 442 310 q 464 292 464 304 q 460 281 464 286 q 444 276 456 276 q 426 281 432 276 l 431 290 q 444 286 435 286 m 469 303 q 496 331 469 331 q 515 324 510 331 q 521 306 521 317 q 496 276 521 276 q 469 303 469 276 m 510 306 q 506 316 510 311 q 496 321 503 321 q 483 303 483 321 q 496 286 483 286 q 510 306 510 286 m 550 299 q 546 306 549 301 q 542 317 543 311 l 539 317 q 542 305 542 310 q 542 292 542 300 l 542 276 l 529 276 l 529 331 l 543 331 l 557 310 q 564 292 558 306 l 564 314 l 564 331 l 575 331 l 575 276 l 561 276 l 550 299 m 597 331 l 614 331 l 629 276 l 618 276 l 614 290 l 597 290 l 593 276 l 582 276 l 597 331 m 600 300 l 611 300 l 607 310 q 606 316 607 313 q 606 321 606 319 q 604 310 604 319 l 600 300 m 651 331 l 651 286 l 671 286 l 671 276 l 638 276 l 638 331 l 651 331 m 706 331 l 706 300 q 717 286 706 286 q 725 300 725 286 l 725 331 l 739 331 l 739 300 q 717 276 739 276 q 693 300 693 276 l 693 331 l 706 331 m 764 286 q 771 292 771 286 q 761 299 771 294 q 746 314 746 306 q 767 331 746 331 q 774 330 771 331 q 782 329 778 329 l 779 319 q 774 320 776 319 q 767 321 771 321 q 758 317 758 321 q 768 308 758 311 q 783 292 783 304 q 778 281 783 286 q 761 276 772 276 q 746 281 750 276 l 749 290 q 764 286 754 286 m 804 321 l 804 308 l 824 308 l 824 300 l 804 300 l 804 286 l 826 286 l 826 276 l 790 276 l 790 331 l 824 331 l 824 321 l 804 321 m 847 303 q 874 331 847 331 q 892 324 885 331 q 900 306 900 317 q 892 283 900 290 q 874 276 885 276 q 847 303 847 276 m 885 306 q 882 316 885 311 q 874 321 879 321 q 861 303 861 321 q 874 286 861 286 q 885 306 885 286 m 926 299 q 923 306 925 301 q 918 317 921 311 l 918 292 l 918 276 l 906 276 l 906 331 l 921 331 l 932 310 q 937 302 935 307 q 940 292 939 297 l 940 314 l 940 331 l 950 331 l 950 276 l 939 276 l 926 299 m 972 331 l 972 286 l 996 286 l 996 276 l 961 276 l 961 331 l 972 331 m 1008 276 l 1008 299 l 990 331 l 1004 331 l 1011 317 q 1015 307 1014 308 q 1017 312 1017 310 q 1018 317 1017 314 l 1024 331 l 1038 331 l 1019 299 l 1019 276 l 1008 276 m 301 229 l 301 211 q 307 201 301 201 q 313 211 313 201 l 313 229 l 319 229 l 319 211 q 307 196 319 196 q 292 211 292 196 l 292 229 l 301 229 m 335 201 q 339 207 339 201 q 335 211 339 208 q 325 221 325 214 q 338 231 325 231 q 343 230 340 231 q 347 229 346 229 l 346 222 q 342 224 343 222 q 338 225 340 225 q 333 221 333 225 q 339 215 333 219 q 347 207 347 215 q 335 196 347 196 q 325 197 328 196 l 328 204 q 335 201 329 201 m 361 229 l 371 229 l 382 196 l 375 196 l 371 204 l 361 204 l 357 196 l 353 196 l 361 229 m 361 211 l 371 211 l 368 218 q 367 225 367 221 q 366 223 367 224 q 365 221 365 222 q 364 218 364 219 l 361 211 m 403 225 q 394 222 399 225 q 390 213 390 219 q 400 201 390 201 l 404 201 l 404 211 l 400 211 l 400 215 l 413 215 l 413 197 q 407 196 411 196 q 400 196 403 196 q 389 200 390 196 q 382 213 382 207 q 403 231 382 231 q 407 230 406 231 q 411 229 408 229 l 408 222 q 406 224 407 222 q 403 225 404 224 m 425 222 l 425 215 l 438 215 l 438 211 l 425 211 l 425 201 l 440 201 l 440 196 l 419 196 l 419 229 l 440 229 l 440 222 l 425 222 m 467 231 q 476 226 469 231 q 478 218 478 225 q 476 213 478 213 q 464 208 474 208 l 463 208 l 463 196 l 456 196 l 456 229 q 460 230 458 229 q 467 231 461 231 m 464 215 q 472 218 472 215 q 467 225 472 225 l 463 225 l 463 215 l 464 215 m 490 222 l 490 215 l 503 215 l 503 211 l 490 211 l 490 201 l 506 201 l 506 196 l 485 196 l 485 229 l 506 229 l 506 222 l 490 222 m 535 221 q 528 213 535 213 q 531 210 531 211 q 535 207 532 208 q 535 200 535 203 q 536 196 536 197 l 528 196 q 525 204 528 200 q 519 211 525 207 l 517 211 l 517 196 l 511 196 l 511 229 q 516 230 514 229 q 521 231 518 231 q 532 226 528 231 q 535 221 535 226 m 521 215 q 528 221 528 215 q 521 225 528 225 l 517 225 l 517 215 l 521 215 m 549 201 q 554 207 554 201 q 549 211 554 207 q 539 221 539 213 q 553 231 539 231 q 557 230 556 231 q 560 229 558 229 l 558 222 q 556 224 557 222 q 553 225 554 225 q 546 221 546 225 q 553 215 546 219 q 561 207 561 215 q 549 196 561 196 q 538 197 539 196 l 539 204 q 549 201 542 201 m 564 213 q 582 231 564 231 q 597 213 597 231 q 582 196 597 196 q 564 213 564 196 m 589 213 q 587 221 589 217 q 582 225 585 225 q 575 221 578 225 q 572 213 572 217 q 582 201 572 201 q 589 213 589 201 m 615 208 q 613 214 614 211 q 608 221 611 217 l 608 207 l 608 196 l 604 196 l 604 229 l 611 229 l 618 215 q 624 207 621 215 l 624 221 l 624 229 l 629 229 l 629 196 l 622 196 l 615 208 m 649 208 q 646 214 647 211 q 644 221 644 217 l 644 207 l 644 196 l 636 196 l 636 229 l 647 229 l 651 215 q 658 207 653 215 q 657 213 658 210 q 656 221 656 217 l 656 229 l 665 229 l 665 196 l 656 196 l 649 208 m 678 222 l 678 215 l 692 215 l 692 211 l 678 211 l 678 201 l 692 201 l 692 196 l 671 196 l 671 229 l 692 229 l 692 222 l 678 222 m 706 229 l 706 201 l 718 201 l 718 196 l 697 196 l 697 229 l 706 229 m 740 229 l 740 211 q 746 201 740 201 q 753 211 753 201 l 753 229 l 761 229 l 761 211 q 746 196 761 196 q 732 211 732 196 l 732 229 l 740 229 m 779 208 q 772 221 776 213 l 772 207 l 772 196 l 767 196 l 767 229 l 775 229 l 783 215 q 788 207 788 215 l 788 221 l 788 229 l 793 229 l 793 196 l 788 196 l 779 208 m 801 196 l 801 229 l 808 229 l 808 196 l 801 196 m 847 213 q 844 204 847 208 q 838 197 840 200 q 842 197 840 197 q 847 196 843 196 l 844 190 q 831 196 836 192 l 829 196 q 814 213 814 196 q 831 231 814 231 q 847 213 847 231 m 831 201 q 838 213 838 201 q 835 221 838 217 q 831 225 833 225 q 824 221 825 225 q 822 213 822 217 q 831 201 822 201 m 858 229 l 858 211 q 865 201 858 201 q 871 211 871 201 l 871 229 l 878 229 l 878 211 q 865 196 878 196 q 851 211 851 196 l 851 229 l 858 229 m 892 222 l 892 215 l 904 215 l 904 211 l 892 211 l 892 201 l 906 201 l 906 196 l 885 196 l 885 229 l 906 229 l 906 222 l 892 222 m 935 229 l 946 229 l 947 196 l 940 196 l 939 208 l 939 222 q 938 217 939 219 q 935 211 936 214 l 931 196 l 925 196 l 922 211 q 921 217 921 214 q 918 222 921 219 l 918 208 l 918 196 l 910 196 l 913 229 l 922 229 l 926 218 q 927 213 926 215 q 928 207 928 210 q 931 213 931 210 q 932 218 931 215 l 935 229 m 961 222 l 961 215 l 972 215 l 972 211 l 961 211 l 961 201 l 975 201 l 975 196 l 953 196 l 953 229 l 972 229 l 972 222 l 961 222 m 992 208 q 989 214 990 211 q 986 221 988 217 l 986 207 l 986 196 l 979 196 l 979 229 l 988 229 l 996 215 q 1000 207 1000 215 l 1000 221 l 1000 229 l 1008 229 l 1008 196 l 1000 196 l 992 208 m 1019 196 l 1019 222 l 1013 222 l 1013 229 l 1038 229 l 1038 222 l 1029 222 l 1029 196 l 1019 196 m 379 126 q 394 113 394 126 q 379 99 394 99 q 367 113 367 99 q 379 126 367 126 m 379 100 q 393 113 393 100 q 379 124 393 124 q 371 113 371 124 q 379 100 371 100 m 382 106 q 386 108 385 106 l 386 106 q 383 104 385 104 l 382 104 q 372 113 372 104 q 382 121 372 121 q 386 118 386 121 l 386 117 l 385 117 q 383 117 383 117 q 382 118 383 118 q 375 113 375 118 q 382 106 375 106 m 421 104 l 421 96 l 415 96 l 415 100 l 413 100 q 407 96 413 96 q 397 108 397 96 q 401 117 397 113 q 407 121 404 121 q 413 117 413 121 l 413 128 l 421 128 l 421 104 m 413 110 q 408 114 413 114 q 404 108 404 114 q 408 101 404 101 q 411 103 410 101 l 413 104 l 413 106 l 413 110 m 438 114 q 431 108 431 114 q 433 103 431 106 q 438 101 436 101 l 442 101 l 442 99 q 436 96 442 96 q 425 108 425 96 q 428 117 425 113 q 438 121 431 121 q 441 119 440 121 q 444 118 442 118 l 442 114 l 438 114 m 456 121 q 465 117 463 121 q 468 108 468 113 q 456 96 468 96 q 444 108 444 96 q 448 117 444 113 q 456 121 451 121 m 456 101 q 460 108 460 101 q 456 114 460 114 q 451 108 451 114 q 456 101 451 101 m 494 104 l 494 96 l 489 96 l 489 100 l 488 100 q 481 96 488 96 q 469 108 469 96 q 474 117 469 113 q 481 121 478 121 q 488 117 488 121 l 488 128 l 494 128 l 494 104 m 488 110 q 483 114 488 114 q 478 108 478 114 q 483 101 478 101 q 486 103 483 101 q 488 104 488 103 l 488 106 l 488 110 m 517 99 q 510 96 515 96 q 499 108 499 96 q 501 116 499 111 q 510 121 503 121 q 517 117 515 121 q 519 108 519 113 l 519 106 l 506 106 q 511 101 506 101 l 517 101 l 517 99 m 510 114 q 506 110 506 114 l 514 110 q 510 114 514 114 m 532 101 q 529 106 532 104 q 524 113 524 106 q 532 121 524 121 q 534 120 533 121 q 536 119 535 119 l 538 118 l 538 114 l 532 114 q 529 113 529 114 l 535 110 q 539 104 539 107 q 529 96 539 96 q 526 97 528 96 q 521 99 524 99 l 524 101 l 529 101 l 532 101 m 546 128 q 550 124 550 128 l 546 124 l 543 124 q 546 128 543 128 m 543 118 l 550 118 l 550 96 l 543 96 l 543 118 m 564 92 q 571 99 571 92 l 571 100 q 564 99 568 99 q 554 108 554 99 q 557 117 554 113 q 564 121 560 121 q 571 117 571 121 l 571 118 l 576 118 l 576 113 l 576 100 q 572 90 576 92 q 564 88 571 88 q 557 90 558 88 l 558 94 q 560 93 558 93 q 564 92 561 92 m 571 110 q 567 114 567 114 q 561 108 561 114 q 567 101 561 101 q 568 103 568 101 q 571 104 568 104 l 571 106 l 571 110 m 594 121 q 604 110 604 121 l 604 96 l 597 96 l 597 108 q 593 114 597 114 q 590 113 590 114 q 589 113 590 113 l 589 110 l 589 96 l 582 96 l 582 113 l 582 118 l 589 118 l 589 117 l 590 118 q 594 121 593 121 m 619 106 l 607 106 l 607 110 l 619 110 l 619 106 m 638 114 l 651 114 l 651 99 q 646 97 649 99 q 640 96 643 96 q 628 100 632 96 q 625 106 626 103 q 624 113 624 110 q 640 128 624 128 q 643 127 642 128 q 646 126 644 126 l 649 126 l 649 121 q 645 122 647 121 q 640 124 643 124 q 629 113 629 124 q 640 101 629 101 l 644 101 l 644 108 l 638 108 l 638 114 m 656 96 l 656 113 q 654 118 656 117 l 660 118 l 663 114 q 669 121 663 121 l 669 118 l 669 113 l 667 113 q 663 110 663 113 l 663 108 l 663 96 l 656 96 m 693 107 q 692 106 693 106 l 676 106 q 685 101 678 101 l 692 101 l 692 99 q 683 96 689 96 q 671 108 671 96 q 674 116 671 111 q 683 121 676 121 q 690 117 688 121 q 693 108 693 113 l 693 107 m 685 110 q 683 114 685 114 q 676 110 678 114 l 685 110 m 706 92 q 711 99 711 92 l 711 100 q 706 99 710 99 q 696 108 696 99 q 698 117 696 113 q 706 121 700 121 q 711 117 707 121 l 711 118 l 718 118 l 718 113 l 718 100 q 714 90 718 92 q 706 88 711 88 q 697 90 699 88 l 699 94 q 700 93 699 93 q 706 92 701 92 m 711 110 l 710 110 q 707 114 710 114 q 701 108 701 114 q 707 101 701 101 q 710 103 710 101 l 710 104 l 711 106 l 711 110 m 743 108 q 735 96 743 96 q 721 108 721 96 q 724 117 721 113 q 735 121 728 121 q 741 117 739 121 q 743 108 743 113 m 731 108 q 735 101 731 101 q 739 108 739 101 q 735 114 739 114 q 731 108 731 114 m 749 96 l 749 113 l 749 118 l 754 118 l 754 114 l 757 114 q 761 121 757 121 q 764 118 764 121 l 764 113 l 761 113 q 757 110 757 113 l 757 108 l 757 96 l 749 96 m 772 96 l 772 99 l 765 118 l 772 118 l 776 108 l 776 104 q 779 108 776 106 l 782 118 l 789 118 l 783 104 q 775 90 778 93 q 772 88 772 88 q 768 85 771 88 l 767 92 q 768 93 768 92 q 771 94 768 94 l 772 96 m 833 126 l 835 96 l 829 96 l 826 108 l 826 121 q 825 115 826 118 q 822 110 824 113 l 819 99 l 814 99 l 810 108 q 809 115 810 111 q 808 121 808 118 l 808 108 l 806 96 l 800 96 l 801 126 l 811 126 l 814 117 q 815 106 815 114 l 818 106 q 819 117 818 114 l 824 126 l 833 126 m 849 121 q 857 117 856 121 q 858 108 858 113 l 858 106 l 844 106 q 851 101 844 101 l 857 101 l 858 99 q 851 96 856 96 q 838 108 838 96 q 840 116 838 111 q 849 121 842 121 m 853 110 q 849 114 853 114 q 844 110 844 114 l 853 110 m 885 104 l 885 96 l 881 96 l 881 100 q 876 97 878 99 q 871 96 874 96 q 863 108 863 96 q 865 117 861 113 q 871 121 868 121 q 878 117 878 121 l 878 128 l 885 128 l 885 104 m 878 110 q 874 114 878 114 q 869 108 869 114 q 874 101 869 101 q 876 103 874 101 q 878 104 878 103 l 878 106 l 878 110 m 894 128 q 899 124 899 128 l 894 124 l 889 124 q 894 128 889 128 m 889 118 l 899 118 l 899 96 l 889 96 l 889 118 m 917 121 q 925 110 925 121 l 925 96 l 917 96 l 917 108 q 914 114 917 114 q 913 113 913 114 q 911 113 913 113 l 910 113 l 910 110 l 910 96 l 904 96 l 904 113 q 903 115 904 114 q 903 118 903 117 l 907 118 l 910 117 l 911 118 q 917 121 914 121 m 950 101 l 950 96 l 943 96 l 943 100 l 940 100 q 935 96 940 96 q 928 104 928 96 q 940 113 928 113 l 939 113 q 936 114 938 113 q 931 113 932 114 l 931 118 q 933 119 932 118 q 935 120 935 119 q 939 121 936 121 q 947 117 944 121 q 950 110 950 113 l 950 101 m 940 108 q 935 104 935 108 q 939 101 935 101 q 940 104 939 101 l 940 108 m 331 385 l 308 385 l 308 485 q 322 488 313 488 q 339 488 331 488 q 372 478 361 488 q 379 458 379 472 q 364 433 379 439 l 364 431 q 375 413 375 428 q 380 395 378 403 q 385 385 382 388 l 361 385 q 353 408 360 386 q 349 422 353 419 q 338 425 344 425 l 331 425 l 331 385 m 331 442 l 339 442 q 357 456 357 442 q 342 469 357 469 l 331 469 l 331 442 m 463 385 l 399 385 l 399 488 l 460 488 l 460 468 l 421 468 l 421 444 l 458 444 l 458 426 l 421 426 l 421 403 l 463 403 l 463 385 m 499 385 l 476 385 l 483 488 l 514 488 l 524 451 q 528 433 526 443 q 532 415 529 424 l 535 415 q 538 434 536 424 q 543 451 540 444 l 554 488 l 585 488 l 589 385 l 567 385 l 564 422 l 564 467 q 558 445 561 456 q 553 425 556 435 l 539 386 l 521 386 l 511 425 q 506 445 508 435 q 501 467 504 456 l 501 422 l 499 385 m 629 385 l 607 385 l 607 488 l 629 488 l 629 385 m 674 385 l 651 385 l 651 488 l 676 488 l 699 449 q 708 431 704 440 q 717 415 713 422 q 714 434 714 424 q 714 456 714 444 l 714 488 l 736 488 l 736 385 l 711 385 l 689 422 q 680 442 685 433 q 671 460 675 450 q 672 438 671 449 q 674 415 674 426 l 674 385 m 829 397 q 809 386 821 390 q 782 382 797 382 q 765 383 771 382 q 754 385 760 385 l 754 485 q 769 488 761 488 q 788 488 778 488 q 829 476 814 488 q 842 460 836 469 q 847 438 847 451 q 842 413 847 424 q 829 397 836 403 m 779 400 l 788 400 q 822 438 822 400 q 789 469 822 469 q 783 469 785 469 q 779 468 782 468 l 779 400 m 926 385 l 861 385 l 861 488 l 925 488 l 925 468 l 883 468 l 883 444 l 922 444 l 922 426 l 883 426 l 883 403 l 926 403 l 926 385 m 965 385 l 943 385 l 943 485 q 956 488 949 488 q 972 488 964 488 q 1006 478 994 488 q 1017 458 1017 471 q 1010 442 1017 447 q 997 433 1004 436 l 997 431 q 1011 413 1007 429 q 1015 395 1014 403 q 1018 385 1017 388 l 996 385 q 988 408 994 386 q 983 422 986 419 q 972 425 979 425 l 965 425 l 965 385 m 965 442 l 972 442 q 992 456 992 442 q 975 469 992 469 l 965 469 l 965 442 m 1039 353 l 290 353 l 290 361 l 1039 361 l 1039 353 m 1039 244 l 290 244 l 290 254 l 1039 254 l 1039 244 m 1039 169 l 290 169 l 290 178 l 1039 178 l 1039 169 m 528 72 l 532 72 l 525 51 l 521 51 l 517 65 l 514 51 l 510 51 l 501 72 l 507 72 l 511 58 l 515 72 l 519 72 l 524 58 l 528 72 m 558 72 l 561 72 l 557 51 l 553 51 l 549 65 l 543 51 l 539 51 l 532 72 l 538 72 l 542 58 l 546 72 l 550 72 l 554 58 l 558 72 m 589 72 l 593 72 l 586 51 l 582 51 l 579 65 l 575 51 l 571 51 l 561 72 l 568 72 l 572 58 l 576 72 l 582 72 l 585 58 l 589 72 m 594 57 l 601 57 l 601 51 l 594 51 l 594 57 m 619 79 l 626 79 l 626 51 l 619 51 l 619 54 q 618 53 619 53 q 614 51 615 51 q 607 54 610 51 q 606 61 606 57 q 607 69 606 67 q 614 74 608 74 q 619 69 617 74 l 619 79 m 618 57 q 619 61 619 58 q 618 67 619 65 l 615 69 q 614 68 614 69 q 611 67 614 67 l 611 63 l 611 57 q 613 56 611 56 q 615 54 614 54 l 618 57 m 642 58 l 649 58 q 644 53 649 54 q 638 51 644 51 q 632 54 635 51 q 629 61 629 54 q 632 69 629 67 q 638 74 633 74 q 640 73 639 74 q 643 72 642 72 l 644 72 q 649 65 649 68 l 642 65 l 642 67 q 640 68 640 67 q 638 69 640 69 l 636 67 q 635 65 636 65 q 633 63 633 65 q 635 59 633 60 q 636 57 636 58 q 638 56 636 56 q 640 54 638 54 l 642 57 l 642 58 m 660 74 q 669 69 665 74 q 672 65 671 67 q 674 61 674 64 q 672 58 674 58 q 669 54 671 57 q 665 52 667 53 q 660 51 664 51 l 658 51 q 656 53 657 51 q 651 57 651 53 l 651 63 l 651 67 q 656 72 651 72 q 658 73 658 72 q 660 74 658 74 m 665 57 q 667 61 667 58 q 665 67 667 65 l 660 67 l 658 67 q 656 61 656 65 q 658 57 656 58 l 660 54 q 664 56 663 54 q 665 57 665 56 m 688 63 l 696 51 l 689 51 l 685 58 l 681 51 l 674 51 l 681 63 l 674 72 l 681 72 l 685 67 l 688 72 l 696 72 l 688 63 m 711 72 l 717 72 l 710 53 l 707 49 l 707 47 l 706 44 l 703 44 q 701 43 703 43 q 697 44 699 43 l 697 49 l 699 47 l 701 47 l 701 49 q 703 50 701 49 l 703 51 l 696 72 l 701 72 l 706 57 l 711 72 m 718 57 l 721 57 l 721 51 l 718 51 l 718 57 m 740 58 l 746 58 q 744 56 746 57 q 743 53 743 54 q 736 51 743 51 q 731 54 733 51 q 725 61 725 54 q 731 69 725 64 q 736 74 732 74 q 739 73 738 74 q 742 72 740 72 l 743 72 q 746 65 743 69 l 740 65 l 740 67 q 739 68 739 67 q 736 69 739 69 l 735 67 q 732 63 732 65 q 735 57 732 58 l 736 54 q 740 57 739 54 l 740 58 m 758 74 q 767 69 764 74 q 769 65 768 67 q 771 61 771 64 q 769 58 771 58 q 767 54 768 57 q 758 51 764 51 q 754 53 757 51 q 750 57 750 53 q 749 63 749 57 l 749 64 q 750 67 749 65 q 754 72 750 72 l 756 72 q 757 73 757 72 q 758 74 757 74 m 764 57 q 765 61 765 58 q 764 67 765 65 l 758 67 l 757 67 q 754 61 754 65 q 757 57 754 58 l 758 54 q 763 56 761 54 q 764 57 764 56 m 804 69 l 804 65 l 804 51 l 797 51 l 797 63 l 797 67 l 797 68 l 796 69 l 794 69 q 793 67 793 69 l 792 67 q 790 65 790 67 l 790 61 l 790 51 l 786 51 l 786 63 l 786 67 q 785 69 786 68 l 783 69 l 782 69 l 782 67 l 781 67 q 779 65 779 67 l 779 61 l 779 51 l 772 51 l 772 72 l 779 72 l 779 69 q 786 74 783 74 q 789 72 788 74 l 790 69 q 792 72 790 72 l 793 72 q 797 74 796 74 q 800 73 800 74 q 801 72 800 72 l 804 69 z "},"5":{"ha":1413,"x_min":225,"x_max":1100,"o":"m 532 790 q 536 808 532 801 q 550 815 540 815 q 563 808 558 815 q 568 790 568 801 q 563 775 568 782 q 550 768 558 768 q 537 775 542 768 q 532 790 532 782 m 804 814 l 811 814 q 835 793 835 814 q 810 768 835 768 l 804 768 l 804 814 m 740 776 q 742 783 740 782 q 743 786 742 785 q 752 778 749 783 q 758 771 756 774 q 749 767 756 767 q 740 776 740 767 m 1100 867 l 1100 0 l 225 0 l 225 867 l 1100 867 m 474 831 l 1063 831 l 1063 840 l 474 840 l 474 831 m 1013 788 q 1013 800 1013 794 q 1011 813 1013 806 l 1013 813 q 1022 793 1017 803 l 1039 765 l 1047 765 l 1047 819 l 1042 819 l 1042 797 l 1042 772 q 1031 790 1038 783 l 1013 819 l 1004 819 l 1004 765 l 1013 765 l 1013 788 m 978 768 q 961 774 968 768 q 954 790 954 779 q 961 808 954 801 q 978 814 968 814 q 990 813 988 814 l 992 818 q 978 819 990 819 q 950 790 950 819 q 951 779 950 785 q 957 771 951 774 q 978 763 963 763 q 987 764 982 763 q 994 767 992 765 l 994 793 l 975 793 l 975 788 l 988 788 l 988 771 q 983 769 986 771 q 978 768 981 768 m 932 819 l 932 765 l 939 765 l 939 819 l 932 819 m 904 789 q 914 779 914 788 q 904 768 914 768 q 897 769 900 768 q 889 772 893 771 l 888 767 q 895 764 890 765 q 903 763 900 763 q 918 767 914 763 q 922 779 922 772 q 907 794 922 789 q 899 806 899 801 q 907 814 899 814 q 918 813 917 814 l 921 818 q 907 819 918 819 q 889 806 889 819 q 904 789 889 796 m 857 794 l 857 814 l 881 814 l 881 819 l 851 819 l 851 765 l 881 765 l 881 771 l 857 771 l 857 789 l 881 789 l 881 794 l 857 794 m 840 793 q 835 814 840 803 q 811 819 828 819 l 796 819 l 796 765 q 802 764 799 765 q 808 763 806 763 q 835 771 824 763 q 840 793 840 782 m 739 797 q 743 789 739 790 q 735 775 735 783 q 749 763 735 763 q 761 768 753 763 q 765 765 767 765 l 771 765 q 765 772 767 767 q 767 779 767 775 q 771 789 768 783 l 765 789 q 761 775 765 781 q 750 788 758 779 q 761 800 761 792 q 750 810 761 810 q 739 797 739 810 m 693 789 q 703 779 703 788 q 692 768 703 768 q 685 769 689 768 q 678 772 682 771 l 676 767 q 683 764 679 765 q 692 763 686 763 q 707 767 703 763 q 711 779 711 772 q 708 789 711 786 q 697 794 704 792 q 685 806 685 803 q 696 814 685 814 q 707 813 706 814 l 707 818 q 697 819 706 819 q 678 806 678 819 q 693 789 678 796 m 651 814 l 651 765 l 656 765 l 656 814 l 674 814 l 674 819 l 633 819 l 633 814 l 651 814 m 590 813 q 596 803 593 807 q 601 793 599 799 l 619 765 l 628 765 l 628 819 l 619 819 l 619 797 q 619 785 619 790 q 622 772 619 779 q 617 783 619 778 q 611 790 614 788 l 593 819 l 585 819 l 585 765 l 590 765 l 590 788 l 590 813 m 576 793 q 550 819 576 819 q 532 813 539 819 q 525 790 525 806 q 532 771 525 779 q 550 763 539 763 q 569 770 561 763 q 576 793 576 778 m 494 794 l 494 814 l 517 814 l 517 819 l 489 819 l 489 765 l 494 765 l 494 789 l 515 789 l 515 794 l 494 794 m 474 743 l 1063 743 l 1063 753 l 474 753 l 474 743 m 1044 632 q 1039 671 1044 653 q 1019 701 1033 689 q 954 728 994 728 q 885 701 910 728 q 861 629 861 669 q 888 557 861 586 q 953 529 913 529 q 1018 558 993 529 q 1044 632 1044 583 m 736 585 q 728 628 728 597 q 757 688 728 688 q 776 678 768 688 q 782 667 781 675 q 786 651 783 660 l 836 651 q 830 683 835 669 q 814 707 825 696 q 757 728 794 728 q 692 701 713 728 q 669 628 669 675 q 693 557 669 579 q 757 529 718 529 q 811 547 789 529 q 836 601 833 565 l 786 606 q 757 572 782 572 q 736 585 742 572 m 647 629 q 622 697 647 665 q 550 725 599 725 l 474 725 l 474 535 l 554 535 q 619 560 599 535 q 647 629 647 590 m 294 736 q 269 714 278 733 q 263 671 260 694 q 282 633 268 647 q 313 622 296 619 q 310 608 310 618 q 324 568 310 583 q 344 549 331 557 q 375 538 358 542 q 410 533 392 535 q 450 532 429 532 l 450 539 q 419 540 435 539 q 390 543 404 542 q 381 544 386 543 q 372 547 376 546 q 356 553 367 547 q 341 561 349 557 q 329 572 333 565 q 324 585 326 579 q 321 600 321 592 q 333 583 326 589 q 350 572 340 578 q 356 569 353 571 q 361 567 358 568 q 403 560 381 561 q 450 558 426 558 l 450 571 q 405 572 426 571 q 367 579 383 574 q 352 585 358 582 q 339 590 346 588 q 328 603 332 597 q 321 618 324 610 l 321 624 q 325 636 324 631 q 329 644 326 642 q 375 671 343 664 q 385 674 381 674 q 394 675 390 674 q 397 676 397 675 q 399 676 397 676 q 403 678 399 678 q 408 681 404 681 l 411 681 l 413 681 l 418 681 q 425 676 418 679 l 426 676 q 428 678 426 678 q 431 681 429 678 q 440 685 435 685 q 450 688 442 688 l 450 840 q 358 802 383 838 q 329 718 333 767 q 313 733 322 726 q 294 736 304 739 m 450 644 q 435 649 443 644 q 425 656 428 653 q 411 651 422 651 q 393 663 396 651 l 393 660 q 411 646 393 646 q 425 651 419 646 q 450 640 432 640 l 450 644 m 1063 514 l 263 514 l 263 32 l 1063 32 l 1063 514 m 754 800 q 749 790 754 794 q 744 794 746 793 q 743 800 743 796 q 750 806 743 806 q 754 800 754 806 m 550 685 q 576 669 567 685 q 586 629 586 650 q 576 590 586 607 q 550 575 564 575 l 532 575 l 532 685 l 550 685 m 922 628 q 954 688 922 688 q 983 633 983 688 q 982 604 983 617 q 975 585 981 592 q 953 571 971 571 q 922 628 922 571 m 307 632 q 290 639 299 629 q 278 656 281 649 q 271 695 268 676 q 288 721 274 714 q 309 720 301 726 q 325 703 317 714 q 325 678 329 700 q 313 676 317 678 q 324 671 319 676 q 313 672 318 674 q 306 669 308 671 q 311 665 307 667 q 319 660 315 664 q 306 658 308 660 q 310 656 308 657 q 314 654 313 656 l 317 651 q 307 632 313 635 m 397 693 q 372 706 381 696 q 367 717 364 717 q 422 718 407 739 q 418 704 422 715 q 399 693 414 693 l 397 693 m 310 331 q 321 330 317 331 q 328 328 325 329 q 333 314 333 319 q 332 307 333 310 q 328 300 331 304 q 320 297 325 299 q 310 296 315 296 l 307 296 l 307 276 l 294 276 l 294 329 q 310 331 299 331 m 310 306 q 321 313 321 306 q 310 321 321 321 l 307 321 l 307 306 l 310 306 m 353 321 l 353 308 l 372 308 l 372 300 l 353 300 l 353 286 l 375 286 l 375 276 l 342 276 l 342 331 l 375 331 l 375 321 l 353 321 m 421 314 q 413 303 421 307 q 419 292 417 297 q 422 276 422 281 l 411 276 q 410 281 411 278 q 407 290 408 283 q 399 299 407 299 l 394 299 l 394 276 l 382 276 l 382 329 q 390 331 385 331 q 399 331 394 331 q 410 330 406 331 q 418 328 414 329 q 421 314 421 322 m 400 307 q 408 314 408 307 q 400 321 408 321 l 394 321 l 394 307 l 400 307 m 444 286 q 451 292 451 286 q 444 299 451 294 q 429 314 429 306 q 450 331 429 331 q 457 330 454 331 q 463 329 460 329 l 460 319 q 456 320 458 319 q 450 321 453 321 q 442 317 442 321 q 451 308 442 310 q 464 292 464 304 q 460 281 464 286 q 444 276 456 276 q 426 281 432 276 l 431 290 q 444 286 435 286 m 469 303 q 496 331 469 331 q 515 324 510 331 q 521 306 521 317 q 496 276 521 276 q 469 303 469 276 m 510 306 q 506 316 510 311 q 496 321 503 321 q 483 303 483 321 q 496 286 483 286 q 510 306 510 286 m 550 299 q 546 306 549 301 q 542 317 543 311 l 539 317 q 542 305 542 310 q 542 292 542 300 l 542 276 l 529 276 l 529 331 l 543 331 l 557 310 q 564 292 558 306 l 564 314 l 564 331 l 575 331 l 575 276 l 561 276 l 550 299 m 597 331 l 614 331 l 629 276 l 618 276 l 614 290 l 597 290 l 593 276 l 582 276 l 597 331 m 600 300 l 611 300 l 607 310 q 606 316 607 313 q 606 321 606 319 q 604 310 604 319 l 600 300 m 651 331 l 651 286 l 671 286 l 671 276 l 638 276 l 638 331 l 651 331 m 706 331 l 706 300 q 717 286 706 286 q 725 300 725 286 l 725 331 l 739 331 l 739 300 q 717 276 739 276 q 693 300 693 276 l 693 331 l 706 331 m 764 286 q 771 292 771 286 q 761 299 771 294 q 746 314 746 306 q 767 331 746 331 q 774 330 771 331 q 782 329 778 329 l 779 319 q 774 320 776 319 q 767 321 771 321 q 758 317 758 321 q 768 308 758 311 q 783 292 783 304 q 778 281 783 286 q 761 276 772 276 q 746 281 750 276 l 749 290 q 764 286 754 286 m 804 321 l 804 308 l 824 308 l 824 300 l 804 300 l 804 286 l 826 286 l 826 276 l 790 276 l 790 331 l 824 331 l 824 321 l 804 321 m 847 303 q 874 331 847 331 q 892 324 885 331 q 900 306 900 317 q 892 283 900 290 q 874 276 885 276 q 847 303 847 276 m 885 306 q 882 316 885 311 q 874 321 879 321 q 861 303 861 321 q 874 286 861 286 q 885 306 885 286 m 926 299 q 923 306 925 301 q 918 317 921 311 l 918 292 l 918 276 l 906 276 l 906 331 l 921 331 l 932 310 q 937 302 935 307 q 940 292 939 297 l 940 314 l 940 331 l 950 331 l 950 276 l 939 276 l 926 299 m 972 331 l 972 286 l 996 286 l 996 276 l 961 276 l 961 331 l 972 331 m 1008 276 l 1008 299 l 990 331 l 1004 331 l 1011 317 q 1015 307 1014 308 q 1017 312 1017 310 q 1018 317 1017 314 l 1024 331 l 1038 331 l 1019 299 l 1019 276 l 1008 276 m 301 229 l 301 211 q 307 201 301 201 q 313 211 313 201 l 313 229 l 319 229 l 319 211 q 307 196 319 196 q 292 211 292 196 l 292 229 l 301 229 m 335 201 q 339 207 339 201 q 335 211 339 208 q 325 221 325 214 q 338 231 325 231 q 343 230 340 231 q 347 229 346 229 l 346 222 q 342 224 343 222 q 338 225 340 225 q 333 221 333 225 q 339 215 333 219 q 347 207 347 215 q 335 196 347 196 q 325 197 328 196 l 328 204 q 335 201 329 201 m 361 229 l 371 229 l 382 196 l 375 196 l 371 204 l 361 204 l 357 196 l 353 196 l 361 229 m 361 211 l 371 211 l 368 218 q 367 225 367 221 q 366 223 367 224 q 365 221 365 222 q 364 218 364 219 l 361 211 m 403 225 q 394 222 399 225 q 390 213 390 219 q 400 201 390 201 l 404 201 l 404 211 l 400 211 l 400 215 l 413 215 l 413 197 q 407 196 411 196 q 400 196 403 196 q 389 200 390 196 q 382 213 382 207 q 403 231 382 231 q 407 230 406 231 q 411 229 408 229 l 408 222 q 406 224 407 222 q 403 225 404 224 m 425 222 l 425 215 l 438 215 l 438 211 l 425 211 l 425 201 l 440 201 l 440 196 l 419 196 l 419 229 l 440 229 l 440 222 l 425 222 m 467 231 q 476 226 469 231 q 478 218 478 225 q 476 213 478 213 q 464 208 474 208 l 463 208 l 463 196 l 456 196 l 456 229 q 460 230 458 229 q 467 231 461 231 m 464 215 q 472 218 472 215 q 467 225 472 225 l 463 225 l 463 215 l 464 215 m 490 222 l 490 215 l 503 215 l 503 211 l 490 211 l 490 201 l 506 201 l 506 196 l 485 196 l 485 229 l 506 229 l 506 222 l 490 222 m 535 221 q 528 213 535 213 q 531 210 531 211 q 535 207 532 208 q 535 200 535 203 q 536 196 536 197 l 528 196 q 525 204 528 200 q 519 211 525 207 l 517 211 l 517 196 l 511 196 l 511 229 q 516 230 514 229 q 521 231 518 231 q 532 226 528 231 q 535 221 535 226 m 521 215 q 528 221 528 215 q 521 225 528 225 l 517 225 l 517 215 l 521 215 m 549 201 q 554 207 554 201 q 549 211 554 207 q 539 221 539 213 q 553 231 539 231 q 557 230 556 231 q 560 229 558 229 l 558 222 q 556 224 557 222 q 553 225 554 225 q 546 221 546 225 q 553 215 546 219 q 561 207 561 215 q 549 196 561 196 q 538 197 539 196 l 539 204 q 549 201 542 201 m 564 213 q 582 231 564 231 q 597 213 597 231 q 582 196 597 196 q 564 213 564 196 m 589 213 q 587 221 589 217 q 582 225 585 225 q 575 221 578 225 q 572 213 572 217 q 582 201 572 201 q 589 213 589 201 m 615 208 q 613 214 614 211 q 608 221 611 217 l 608 207 l 608 196 l 604 196 l 604 229 l 611 229 l 618 215 q 624 207 621 215 l 624 221 l 624 229 l 629 229 l 629 196 l 622 196 l 615 208 m 649 208 q 646 214 647 211 q 644 221 644 217 l 644 207 l 644 196 l 636 196 l 636 229 l 647 229 l 651 215 q 658 207 653 215 q 657 213 658 210 q 656 221 656 217 l 656 229 l 665 229 l 665 196 l 656 196 l 649 208 m 678 222 l 678 215 l 692 215 l 692 211 l 678 211 l 678 201 l 692 201 l 692 196 l 671 196 l 671 229 l 692 229 l 692 222 l 678 222 m 706 229 l 706 201 l 718 201 l 718 196 l 697 196 l 697 229 l 706 229 m 740 229 l 740 211 q 746 201 740 201 q 753 211 753 201 l 753 229 l 761 229 l 761 211 q 746 196 761 196 q 732 211 732 196 l 732 229 l 740 229 m 779 208 q 772 221 776 213 l 772 207 l 772 196 l 767 196 l 767 229 l 775 229 l 783 215 q 788 207 788 215 l 788 221 l 788 229 l 793 229 l 793 196 l 788 196 l 779 208 m 801 196 l 801 229 l 808 229 l 808 196 l 801 196 m 847 213 q 844 204 847 208 q 838 197 840 200 q 842 197 840 197 q 847 196 843 196 l 844 190 q 831 196 836 192 l 829 196 q 814 213 814 196 q 831 231 814 231 q 847 213 847 231 m 831 201 q 838 213 838 201 q 835 221 838 217 q 831 225 833 225 q 824 221 825 225 q 822 213 822 217 q 831 201 822 201 m 858 229 l 858 211 q 865 201 858 201 q 871 211 871 201 l 871 229 l 878 229 l 878 211 q 865 196 878 196 q 851 211 851 196 l 851 229 l 858 229 m 892 222 l 892 215 l 904 215 l 904 211 l 892 211 l 892 201 l 906 201 l 906 196 l 885 196 l 885 229 l 906 229 l 906 222 l 892 222 m 935 229 l 946 229 l 947 196 l 940 196 l 939 208 l 939 222 q 938 217 939 219 q 935 211 936 214 l 931 196 l 925 196 l 922 211 q 921 217 921 214 q 918 222 921 219 l 918 208 l 918 196 l 910 196 l 913 229 l 922 229 l 926 218 q 927 213 926 215 q 928 207 928 210 q 931 213 931 210 q 932 218 931 215 l 935 229 m 961 222 l 961 215 l 972 215 l 972 211 l 961 211 l 961 201 l 975 201 l 975 196 l 953 196 l 953 229 l 972 229 l 972 222 l 961 222 m 992 208 q 989 214 990 211 q 986 221 988 217 l 986 207 l 986 196 l 979 196 l 979 229 l 988 229 l 996 215 q 1000 207 1000 215 l 1000 221 l 1000 229 l 1008 229 l 1008 196 l 1000 196 l 992 208 m 1019 196 l 1019 222 l 1013 222 l 1013 229 l 1038 229 l 1038 222 l 1029 222 l 1029 196 l 1019 196 m 379 126 q 394 113 394 126 q 379 99 394 99 q 367 113 367 99 q 379 126 367 126 m 379 100 q 393 113 393 100 q 379 124 393 124 q 371 113 371 124 q 379 100 371 100 m 382 106 q 386 108 385 106 l 386 106 q 383 104 385 104 l 382 104 q 372 113 372 104 q 382 121 372 121 q 386 118 386 121 l 386 117 l 385 117 q 383 117 383 117 q 382 118 383 118 q 375 113 375 118 q 382 106 375 106 m 421 104 l 421 96 l 415 96 l 415 100 l 413 100 q 407 96 413 96 q 397 108 397 96 q 401 117 397 113 q 407 121 404 121 q 413 117 413 121 l 413 128 l 421 128 l 421 104 m 413 110 q 408 114 413 114 q 404 108 404 114 q 408 101 404 101 q 411 103 410 101 l 413 104 l 413 106 l 413 110 m 438 114 q 431 108 431 114 q 433 103 431 106 q 438 101 436 101 l 442 101 l 442 99 q 436 96 442 96 q 425 108 425 96 q 428 117 425 113 q 438 121 431 121 q 441 119 440 121 q 444 118 442 118 l 442 114 l 438 114 m 456 121 q 465 117 463 121 q 468 108 468 113 q 456 96 468 96 q 444 108 444 96 q 448 117 444 113 q 456 121 451 121 m 456 101 q 460 108 460 101 q 456 114 460 114 q 451 108 451 114 q 456 101 451 101 m 494 104 l 494 96 l 489 96 l 489 100 l 488 100 q 481 96 488 96 q 469 108 469 96 q 474 117 469 113 q 481 121 478 121 q 488 117 488 121 l 488 128 l 494 128 l 494 104 m 488 110 q 483 114 488 114 q 478 108 478 114 q 483 101 478 101 q 486 103 483 101 q 488 104 488 103 l 488 106 l 488 110 m 517 99 q 510 96 515 96 q 499 108 499 96 q 501 116 499 111 q 510 121 503 121 q 517 117 515 121 q 519 108 519 113 l 519 106 l 506 106 q 511 101 506 101 l 517 101 l 517 99 m 510 114 q 506 110 506 114 l 514 110 q 510 114 514 114 m 532 101 q 529 106 532 104 q 524 113 524 106 q 532 121 524 121 q 534 120 533 121 q 536 119 535 119 l 538 118 l 538 114 l 532 114 q 529 113 529 114 l 535 110 q 539 104 539 107 q 529 96 539 96 q 526 97 528 96 q 521 99 524 99 l 524 101 l 529 101 l 532 101 m 546 128 q 550 124 550 128 l 546 124 l 543 124 q 546 128 543 128 m 543 118 l 550 118 l 550 96 l 543 96 l 543 118 m 564 92 q 571 99 571 92 l 571 100 q 564 99 568 99 q 554 108 554 99 q 557 117 554 113 q 564 121 560 121 q 571 117 571 121 l 571 118 l 576 118 l 576 113 l 576 100 q 572 90 576 92 q 564 88 571 88 q 557 90 558 88 l 558 94 q 560 93 558 93 q 564 92 561 92 m 571 110 q 567 114 567 114 q 561 108 561 114 q 567 101 561 101 q 568 103 568 101 q 571 104 568 104 l 571 106 l 571 110 m 594 121 q 604 110 604 121 l 604 96 l 597 96 l 597 108 q 593 114 597 114 q 590 113 590 114 q 589 113 590 113 l 589 110 l 589 96 l 582 96 l 582 113 l 582 118 l 589 118 l 589 117 l 590 118 q 594 121 593 121 m 619 106 l 607 106 l 607 110 l 619 110 l 619 106 m 638 114 l 651 114 l 651 99 q 646 97 649 99 q 640 96 643 96 q 628 100 632 96 q 625 106 626 103 q 624 113 624 110 q 640 128 624 128 q 643 127 642 128 q 646 126 644 126 l 649 126 l 649 121 q 645 122 647 121 q 640 124 643 124 q 629 113 629 124 q 640 101 629 101 l 644 101 l 644 108 l 638 108 l 638 114 m 656 96 l 656 113 q 654 118 656 117 l 660 118 l 663 114 q 669 121 663 121 l 669 118 l 669 113 l 667 113 q 663 110 663 113 l 663 108 l 663 96 l 656 96 m 693 107 q 692 106 693 106 l 676 106 q 685 101 678 101 l 692 101 l 692 99 q 683 96 689 96 q 671 108 671 96 q 674 116 671 111 q 683 121 676 121 q 690 117 688 121 q 693 108 693 113 l 693 107 m 685 110 q 683 114 685 114 q 676 110 678 114 l 685 110 m 706 92 q 711 99 711 92 l 711 100 q 706 99 710 99 q 696 108 696 99 q 698 117 696 113 q 706 121 700 121 q 711 117 707 121 l 711 118 l 718 118 l 718 113 l 718 100 q 714 90 718 92 q 706 88 711 88 q 697 90 699 88 l 699 94 q 700 93 699 93 q 706 92 701 92 m 711 110 l 710 110 q 707 114 710 114 q 701 108 701 114 q 707 101 701 101 q 710 103 710 101 l 710 104 l 711 106 l 711 110 m 743 108 q 735 96 743 96 q 721 108 721 96 q 724 117 721 113 q 735 121 728 121 q 741 117 739 121 q 743 108 743 113 m 731 108 q 735 101 731 101 q 739 108 739 101 q 735 114 739 114 q 731 108 731 114 m 749 96 l 749 113 l 749 118 l 754 118 l 754 114 l 757 114 q 761 121 757 121 q 764 118 764 121 l 764 113 l 761 113 q 757 110 757 113 l 757 108 l 757 96 l 749 96 m 772 96 l 772 99 l 765 118 l 772 118 l 776 108 l 776 104 q 779 108 776 106 l 782 118 l 789 118 l 783 104 q 775 90 778 93 q 772 88 772 88 q 768 85 771 88 l 767 92 q 768 93 768 92 q 771 94 768 94 l 772 96 m 833 126 l 835 96 l 829 96 l 826 108 l 826 121 q 825 115 826 118 q 822 110 824 113 l 819 99 l 814 99 l 810 108 q 809 115 810 111 q 808 121 808 118 l 808 108 l 806 96 l 800 96 l 801 126 l 811 126 l 814 117 q 815 106 815 114 l 818 106 q 819 117 818 114 l 824 126 l 833 126 m 849 121 q 857 117 856 121 q 858 108 858 113 l 858 106 l 844 106 q 851 101 844 101 l 857 101 l 858 99 q 851 96 856 96 q 838 108 838 96 q 840 116 838 111 q 849 121 842 121 m 853 110 q 849 114 853 114 q 844 110 844 114 l 853 110 m 885 104 l 885 96 l 881 96 l 881 100 q 876 97 878 99 q 871 96 874 96 q 863 108 863 96 q 865 117 861 113 q 871 121 868 121 q 878 117 878 121 l 878 128 l 885 128 l 885 104 m 878 110 q 874 114 878 114 q 869 108 869 114 q 874 101 869 101 q 876 103 874 101 q 878 104 878 103 l 878 106 l 878 110 m 894 128 q 899 124 899 128 l 894 124 l 889 124 q 894 128 889 128 m 889 118 l 899 118 l 899 96 l 889 96 l 889 118 m 917 121 q 925 110 925 121 l 925 96 l 917 96 l 917 108 q 914 114 917 114 q 913 113 913 114 q 911 113 913 113 l 910 113 l 910 110 l 910 96 l 904 96 l 904 113 q 903 115 904 114 q 903 118 903 117 l 907 118 l 910 117 l 911 118 q 917 121 914 121 m 950 101 l 950 96 l 943 96 l 943 100 l 940 100 q 935 96 940 96 q 928 104 928 96 q 940 113 928 113 l 939 113 q 936 114 938 113 q 931 113 932 114 l 931 118 q 933 119 932 118 q 935 120 935 119 q 939 121 936 121 q 947 117 944 121 q 950 110 950 113 l 950 101 m 940 108 q 935 104 935 108 q 939 101 935 101 q 940 104 939 101 l 940 108 m 331 385 l 308 385 l 308 485 q 322 488 313 488 q 339 488 331 488 q 372 478 361 488 q 379 458 379 472 q 364 433 379 439 l 364 431 q 375 413 375 428 q 380 395 378 403 q 385 385 382 388 l 361 385 q 353 408 360 386 q 349 422 353 419 q 338 425 344 425 l 331 425 l 331 385 m 331 442 l 339 442 q 357 456 357 442 q 342 469 357 469 l 331 469 l 331 442 m 463 385 l 399 385 l 399 488 l 460 488 l 460 468 l 421 468 l 421 444 l 458 444 l 458 426 l 421 426 l 421 403 l 463 403 l 463 385 m 499 385 l 476 385 l 483 488 l 514 488 l 524 451 q 528 433 526 443 q 532 415 529 424 l 535 415 q 538 434 536 424 q 543 451 540 444 l 554 488 l 585 488 l 589 385 l 567 385 l 564 422 l 564 467 q 558 445 561 456 q 553 425 556 435 l 539 386 l 521 386 l 511 425 q 506 445 508 435 q 501 467 504 456 l 501 422 l 499 385 m 629 385 l 607 385 l 607 488 l 629 488 l 629 385 m 674 385 l 651 385 l 651 488 l 676 488 l 699 449 q 708 431 704 440 q 717 415 713 422 q 714 434 714 424 q 714 456 714 444 l 714 488 l 736 488 l 736 385 l 711 385 l 689 422 q 680 442 685 433 q 671 460 675 450 q 672 438 671 449 q 674 415 674 426 l 674 385 m 829 397 q 809 386 821 390 q 782 382 797 382 q 765 383 771 382 q 754 385 760 385 l 754 485 q 769 488 761 488 q 788 488 778 488 q 829 476 814 488 q 842 460 836 469 q 847 438 847 451 q 842 413 847 424 q 829 397 836 403 m 779 400 l 788 400 q 822 438 822 400 q 789 469 822 469 q 783 469 785 469 q 779 468 782 468 l 779 400 m 926 385 l 861 385 l 861 488 l 925 488 l 925 468 l 883 468 l 883 444 l 922 444 l 922 426 l 883 426 l 883 403 l 926 403 l 926 385 m 965 385 l 943 385 l 943 485 q 956 488 949 488 q 972 488 964 488 q 1006 478 994 488 q 1017 458 1017 471 q 1010 442 1017 447 q 997 433 1004 436 l 997 431 q 1011 413 1007 429 q 1015 395 1014 403 q 1018 385 1017 388 l 996 385 q 988 408 994 386 q 983 422 986 419 q 972 425 979 425 l 965 425 l 965 385 m 965 442 l 972 442 q 992 456 992 442 q 975 469 992 469 l 965 469 l 965 442 m 1039 353 l 290 353 l 290 361 l 1039 361 l 1039 353 m 1039 244 l 290 244 l 290 254 l 1039 254 l 1039 244 m 1039 169 l 290 169 l 290 178 l 1039 178 l 1039 169 m 528 72 l 532 72 l 525 51 l 521 51 l 517 65 l 514 51 l 510 51 l 501 72 l 507 72 l 511 58 l 515 72 l 519 72 l 524 58 l 528 72 m 558 72 l 561 72 l 557 51 l 553 51 l 549 65 l 543 51 l 539 51 l 532 72 l 538 72 l 542 58 l 546 72 l 550 72 l 554 58 l 558 72 m 589 72 l 593 72 l 586 51 l 582 51 l 579 65 l 575 51 l 571 51 l 561 72 l 568 72 l 572 58 l 576 72 l 582 72 l 585 58 l 589 72 m 594 57 l 601 57 l 601 51 l 594 51 l 594 57 m 619 79 l 626 79 l 626 51 l 619 51 l 619 54 q 618 53 619 53 q 614 51 615 51 q 607 54 610 51 q 606 61 606 57 q 607 69 606 67 q 614 74 608 74 q 619 69 617 74 l 619 79 m 618 57 q 619 61 619 58 q 618 67 619 65 l 615 69 q 614 68 614 69 q 611 67 614 67 l 611 63 l 611 57 q 613 56 611 56 q 615 54 614 54 l 618 57 m 642 58 l 649 58 q 644 53 649 54 q 638 51 644 51 q 632 54 635 51 q 629 61 629 54 q 632 69 629 67 q 638 74 633 74 q 640 73 639 74 q 643 72 642 72 l 644 72 q 649 65 649 68 l 642 65 l 642 67 q 640 68 640 67 q 638 69 640 69 l 636 67 q 635 65 636 65 q 633 63 633 65 q 635 59 633 60 q 636 57 636 58 q 638 56 636 56 q 640 54 638 54 l 642 57 l 642 58 m 660 74 q 669 69 665 74 q 672 65 671 67 q 674 61 674 64 q 672 58 674 58 q 669 54 671 57 q 665 52 667 53 q 660 51 664 51 l 658 51 q 656 53 657 51 q 651 57 651 53 l 651 63 l 651 67 q 656 72 651 72 q 658 73 658 72 q 660 74 658 74 m 665 57 q 667 61 667 58 q 665 67 667 65 l 660 67 l 658 67 q 656 61 656 65 q 658 57 656 58 l 660 54 q 664 56 663 54 q 665 57 665 56 m 688 63 l 696 51 l 689 51 l 685 58 l 681 51 l 674 51 l 681 63 l 674 72 l 681 72 l 685 67 l 688 72 l 696 72 l 688 63 m 711 72 l 717 72 l 710 53 l 707 49 l 707 47 l 706 44 l 703 44 q 701 43 703 43 q 697 44 699 43 l 697 49 l 699 47 l 701 47 l 701 49 q 703 50 701 49 l 703 51 l 696 72 l 701 72 l 706 57 l 711 72 m 718 57 l 721 57 l 721 51 l 718 51 l 718 57 m 740 58 l 746 58 q 744 56 746 57 q 743 53 743 54 q 736 51 743 51 q 731 54 733 51 q 725 61 725 54 q 731 69 725 64 q 736 74 732 74 q 739 73 738 74 q 742 72 740 72 l 743 72 q 746 65 743 69 l 740 65 l 740 67 q 739 68 739 67 q 736 69 739 69 l 735 67 q 732 63 732 65 q 735 57 732 58 l 736 54 q 740 57 739 54 l 740 58 m 758 74 q 767 69 764 74 q 769 65 768 67 q 771 61 771 64 q 769 58 771 58 q 767 54 768 57 q 758 51 764 51 q 754 53 757 51 q 750 57 750 53 q 749 63 749 57 l 749 64 q 750 67 749 65 q 754 72 750 72 l 756 72 q 757 73 757 72 q 758 74 757 74 m 764 57 q 765 61 765 58 q 764 67 765 65 l 758 67 l 757 67 q 754 61 754 65 q 757 57 754 58 l 758 54 q 763 56 761 54 q 764 57 764 56 m 804 69 l 804 65 l 804 51 l 797 51 l 797 63 l 797 67 l 797 68 l 796 69 l 794 69 q 793 67 793 69 l 792 67 q 790 65 790 67 l 790 61 l 790 51 l 786 51 l 786 63 l 786 67 q 785 69 786 68 l 783 69 l 782 69 l 782 67 l 781 67 q 779 65 779 67 l 779 61 l 779 51 l 772 51 l 772 72 l 779 72 l 779 69 q 786 74 783 74 q 789 72 788 74 l 790 69 q 792 72 790 72 l 793 72 q 797 74 796 74 q 800 73 800 74 q 801 72 800 72 l 804 69 z "},"6":{"ha":1413,"x_min":225,"x_max":1100,"o":"m 532 790 q 536 808 532 801 q 550 815 540 815 q 563 808 558 815 q 568 790 568 801 q 563 775 568 782 q 550 768 558 768 q 537 775 542 768 q 532 790 532 782 m 804 814 l 811 814 q 835 793 835 814 q 810 768 835 768 l 804 768 l 804 814 m 740 776 q 742 783 740 782 q 743 786 742 785 q 752 778 749 783 q 758 771 756 774 q 749 767 756 767 q 740 776 740 767 m 1100 867 l 1100 0 l 225 0 l 225 867 l 1100 867 m 474 831 l 1063 831 l 1063 840 l 474 840 l 474 831 m 1013 788 q 1013 800 1013 794 q 1011 813 1013 806 l 1013 813 q 1022 793 1017 803 l 1039 765 l 1047 765 l 1047 819 l 1042 819 l 1042 797 l 1042 772 q 1031 790 1038 783 l 1013 819 l 1004 819 l 1004 765 l 1013 765 l 1013 788 m 978 768 q 961 774 968 768 q 954 790 954 779 q 961 808 954 801 q 978 814 968 814 q 990 813 988 814 l 992 818 q 978 819 990 819 q 950 790 950 819 q 951 779 950 785 q 957 771 951 774 q 978 763 963 763 q 987 764 982 763 q 994 767 992 765 l 994 793 l 975 793 l 975 788 l 988 788 l 988 771 q 983 769 986 771 q 978 768 981 768 m 932 819 l 932 765 l 939 765 l 939 819 l 932 819 m 904 789 q 914 779 914 788 q 904 768 914 768 q 897 769 900 768 q 889 772 893 771 l 888 767 q 895 764 890 765 q 903 763 900 763 q 918 767 914 763 q 922 779 922 772 q 907 794 922 789 q 899 806 899 801 q 907 814 899 814 q 918 813 917 814 l 921 818 q 907 819 918 819 q 889 806 889 819 q 904 789 889 796 m 857 794 l 857 814 l 881 814 l 881 819 l 851 819 l 851 765 l 881 765 l 881 771 l 857 771 l 857 789 l 881 789 l 881 794 l 857 794 m 840 793 q 835 814 840 803 q 811 819 828 819 l 796 819 l 796 765 q 802 764 799 765 q 808 763 806 763 q 835 771 824 763 q 840 793 840 782 m 739 797 q 743 789 739 790 q 735 775 735 783 q 749 763 735 763 q 761 768 753 763 q 765 765 767 765 l 771 765 q 765 772 767 767 q 767 779 767 775 q 771 789 768 783 l 765 789 q 761 775 765 781 q 750 788 758 779 q 761 800 761 792 q 750 810 761 810 q 739 797 739 810 m 693 789 q 703 779 703 788 q 692 768 703 768 q 685 769 689 768 q 678 772 682 771 l 676 767 q 683 764 679 765 q 692 763 686 763 q 707 767 703 763 q 711 779 711 772 q 708 789 711 786 q 697 794 704 792 q 685 806 685 803 q 696 814 685 814 q 707 813 706 814 l 707 818 q 697 819 706 819 q 678 806 678 819 q 693 789 678 796 m 651 814 l 651 765 l 656 765 l 656 814 l 674 814 l 674 819 l 633 819 l 633 814 l 651 814 m 590 813 q 596 803 593 807 q 601 793 599 799 l 619 765 l 628 765 l 628 819 l 619 819 l 619 797 q 619 785 619 790 q 622 772 619 779 q 617 783 619 778 q 611 790 614 788 l 593 819 l 585 819 l 585 765 l 590 765 l 590 788 l 590 813 m 576 793 q 550 819 576 819 q 532 813 539 819 q 525 790 525 806 q 532 771 525 779 q 550 763 539 763 q 569 770 561 763 q 576 793 576 778 m 494 794 l 494 814 l 517 814 l 517 819 l 489 819 l 489 765 l 494 765 l 494 789 l 515 789 l 515 794 l 494 794 m 474 743 l 1063 743 l 1063 753 l 474 753 l 474 743 m 1044 632 q 1039 671 1044 653 q 1019 701 1033 689 q 954 728 994 728 q 885 701 910 728 q 861 629 861 669 q 888 557 861 586 q 953 529 913 529 q 1018 558 993 529 q 1044 632 1044 583 m 736 585 q 728 628 728 597 q 757 688 728 688 q 776 678 768 688 q 782 667 781 675 q 786 651 783 660 l 836 651 q 830 683 835 669 q 814 707 825 696 q 757 728 794 728 q 692 701 713 728 q 669 628 669 675 q 693 557 669 579 q 757 529 718 529 q 811 547 789 529 q 836 601 833 565 l 786 606 q 757 572 782 572 q 736 585 742 572 m 647 629 q 622 697 647 665 q 550 725 599 725 l 474 725 l 474 535 l 554 535 q 619 560 599 535 q 647 629 647 590 m 294 736 q 269 714 278 733 q 263 671 260 694 q 282 633 268 647 q 313 622 296 619 q 310 608 310 618 q 324 568 310 583 q 344 549 331 557 q 375 538 358 542 q 410 533 392 535 q 450 532 429 532 l 450 539 q 419 540 435 539 q 390 543 404 542 q 381 544 386 543 q 372 547 376 546 q 356 553 367 547 q 341 561 349 557 q 329 572 333 565 q 324 585 326 579 q 321 600 321 592 q 333 583 326 589 q 350 572 340 578 q 356 569 353 571 q 361 567 358 568 q 403 560 381 561 q 450 558 426 558 l 450 571 q 405 572 426 571 q 367 579 383 574 q 352 585 358 582 q 339 590 346 588 q 328 603 332 597 q 321 618 324 610 l 321 624 q 325 636 324 631 q 329 644 326 642 q 375 671 343 664 q 385 674 381 674 q 394 675 390 674 q 397 676 397 675 q 399 676 397 676 q 403 678 399 678 q 408 681 404 681 l 411 681 l 413 681 l 418 681 q 425 676 418 679 l 426 676 q 428 678 426 678 q 431 681 429 678 q 440 685 435 685 q 450 688 442 688 l 450 840 q 358 802 383 838 q 329 718 333 767 q 313 733 322 726 q 294 736 304 739 m 450 644 q 435 649 443 644 q 425 656 428 653 q 411 651 422 651 q 393 663 396 651 l 393 660 q 411 646 393 646 q 425 651 419 646 q 450 640 432 640 l 450 644 m 1063 514 l 263 514 l 263 32 l 1063 32 l 1063 514 m 754 800 q 749 790 754 794 q 744 794 746 793 q 743 800 743 796 q 750 806 743 806 q 754 800 754 806 m 550 685 q 576 669 567 685 q 586 629 586 650 q 576 590 586 607 q 550 575 564 575 l 532 575 l 532 685 l 550 685 m 922 628 q 954 688 922 688 q 983 633 983 688 q 982 604 983 617 q 975 585 981 592 q 953 571 971 571 q 922 628 922 571 m 307 632 q 290 639 299 629 q 278 656 281 649 q 271 695 268 676 q 288 721 274 714 q 309 720 301 726 q 325 703 317 714 q 325 678 329 700 q 313 676 317 678 q 324 671 319 676 q 313 672 318 674 q 306 669 308 671 q 311 665 307 667 q 319 660 315 664 q 306 658 308 660 q 310 656 308 657 q 314 654 313 656 l 317 651 q 307 632 313 635 m 397 693 q 372 706 381 696 q 367 717 364 717 q 422 718 407 739 q 418 704 422 715 q 399 693 414 693 l 397 693 m 310 331 q 321 330 317 331 q 328 328 325 329 q 333 314 333 319 q 332 307 333 310 q 328 300 331 304 q 320 297 325 299 q 310 296 315 296 l 307 296 l 307 276 l 294 276 l 294 329 q 310 331 299 331 m 310 306 q 321 313 321 306 q 310 321 321 321 l 307 321 l 307 306 l 310 306 m 353 321 l 353 308 l 372 308 l 372 300 l 353 300 l 353 286 l 375 286 l 375 276 l 342 276 l 342 331 l 375 331 l 375 321 l 353 321 m 421 314 q 413 303 421 307 q 419 292 417 297 q 422 276 422 281 l 411 276 q 410 281 411 278 q 407 290 408 283 q 399 299 407 299 l 394 299 l 394 276 l 382 276 l 382 329 q 390 331 385 331 q 399 331 394 331 q 410 330 406 331 q 418 328 414 329 q 421 314 421 322 m 400 307 q 408 314 408 307 q 400 321 408 321 l 394 321 l 394 307 l 400 307 m 444 286 q 451 292 451 286 q 444 299 451 294 q 429 314 429 306 q 450 331 429 331 q 457 330 454 331 q 463 329 460 329 l 460 319 q 456 320 458 319 q 450 321 453 321 q 442 317 442 321 q 451 308 442 310 q 464 292 464 304 q 460 281 464 286 q 444 276 456 276 q 426 281 432 276 l 431 290 q 444 286 435 286 m 469 303 q 496 331 469 331 q 515 324 510 331 q 521 306 521 317 q 496 276 521 276 q 469 303 469 276 m 510 306 q 506 316 510 311 q 496 321 503 321 q 483 303 483 321 q 496 286 483 286 q 510 306 510 286 m 550 299 q 546 306 549 301 q 542 317 543 311 l 539 317 q 542 305 542 310 q 542 292 542 300 l 542 276 l 529 276 l 529 331 l 543 331 l 557 310 q 564 292 558 306 l 564 314 l 564 331 l 575 331 l 575 276 l 561 276 l 550 299 m 597 331 l 614 331 l 629 276 l 618 276 l 614 290 l 597 290 l 593 276 l 582 276 l 597 331 m 600 300 l 611 300 l 607 310 q 606 316 607 313 q 606 321 606 319 q 604 310 604 319 l 600 300 m 651 331 l 651 286 l 671 286 l 671 276 l 638 276 l 638 331 l 651 331 m 706 331 l 706 300 q 717 286 706 286 q 725 300 725 286 l 725 331 l 739 331 l 739 300 q 717 276 739 276 q 693 300 693 276 l 693 331 l 706 331 m 764 286 q 771 292 771 286 q 761 299 771 294 q 746 314 746 306 q 767 331 746 331 q 774 330 771 331 q 782 329 778 329 l 779 319 q 774 320 776 319 q 767 321 771 321 q 758 317 758 321 q 768 308 758 311 q 783 292 783 304 q 778 281 783 286 q 761 276 772 276 q 746 281 750 276 l 749 290 q 764 286 754 286 m 804 321 l 804 308 l 824 308 l 824 300 l 804 300 l 804 286 l 826 286 l 826 276 l 790 276 l 790 331 l 824 331 l 824 321 l 804 321 m 847 303 q 874 331 847 331 q 892 324 885 331 q 900 306 900 317 q 892 283 900 290 q 874 276 885 276 q 847 303 847 276 m 885 306 q 882 316 885 311 q 874 321 879 321 q 861 303 861 321 q 874 286 861 286 q 885 306 885 286 m 926 299 q 923 306 925 301 q 918 317 921 311 l 918 292 l 918 276 l 906 276 l 906 331 l 921 331 l 932 310 q 937 302 935 307 q 940 292 939 297 l 940 314 l 940 331 l 950 331 l 950 276 l 939 276 l 926 299 m 972 331 l 972 286 l 996 286 l 996 276 l 961 276 l 961 331 l 972 331 m 1008 276 l 1008 299 l 990 331 l 1004 331 l 1011 317 q 1015 307 1014 308 q 1017 312 1017 310 q 1018 317 1017 314 l 1024 331 l 1038 331 l 1019 299 l 1019 276 l 1008 276 m 301 229 l 301 211 q 307 201 301 201 q 313 211 313 201 l 313 229 l 319 229 l 319 211 q 307 196 319 196 q 292 211 292 196 l 292 229 l 301 229 m 335 201 q 339 207 339 201 q 335 211 339 208 q 325 221 325 214 q 338 231 325 231 q 343 230 340 231 q 347 229 346 229 l 346 222 q 342 224 343 222 q 338 225 340 225 q 333 221 333 225 q 339 215 333 219 q 347 207 347 215 q 335 196 347 196 q 325 197 328 196 l 328 204 q 335 201 329 201 m 361 229 l 371 229 l 382 196 l 375 196 l 371 204 l 361 204 l 357 196 l 353 196 l 361 229 m 361 211 l 371 211 l 368 218 q 367 225 367 221 q 366 223 367 224 q 365 221 365 222 q 364 218 364 219 l 361 211 m 403 225 q 394 222 399 225 q 390 213 390 219 q 400 201 390 201 l 404 201 l 404 211 l 400 211 l 400 215 l 413 215 l 413 197 q 407 196 411 196 q 400 196 403 196 q 389 200 390 196 q 382 213 382 207 q 403 231 382 231 q 407 230 406 231 q 411 229 408 229 l 408 222 q 406 224 407 222 q 403 225 404 224 m 425 222 l 425 215 l 438 215 l 438 211 l 425 211 l 425 201 l 440 201 l 440 196 l 419 196 l 419 229 l 440 229 l 440 222 l 425 222 m 467 231 q 476 226 469 231 q 478 218 478 225 q 476 213 478 213 q 464 208 474 208 l 463 208 l 463 196 l 456 196 l 456 229 q 460 230 458 229 q 467 231 461 231 m 464 215 q 472 218 472 215 q 467 225 472 225 l 463 225 l 463 215 l 464 215 m 490 222 l 490 215 l 503 215 l 503 211 l 490 211 l 490 201 l 506 201 l 506 196 l 485 196 l 485 229 l 506 229 l 506 222 l 490 222 m 535 221 q 528 213 535 213 q 531 210 531 211 q 535 207 532 208 q 535 200 535 203 q 536 196 536 197 l 528 196 q 525 204 528 200 q 519 211 525 207 l 517 211 l 517 196 l 511 196 l 511 229 q 516 230 514 229 q 521 231 518 231 q 532 226 528 231 q 535 221 535 226 m 521 215 q 528 221 528 215 q 521 225 528 225 l 517 225 l 517 215 l 521 215 m 549 201 q 554 207 554 201 q 549 211 554 207 q 539 221 539 213 q 553 231 539 231 q 557 230 556 231 q 560 229 558 229 l 558 222 q 556 224 557 222 q 553 225 554 225 q 546 221 546 225 q 553 215 546 219 q 561 207 561 215 q 549 196 561 196 q 538 197 539 196 l 539 204 q 549 201 542 201 m 564 213 q 582 231 564 231 q 597 213 597 231 q 582 196 597 196 q 564 213 564 196 m 589 213 q 587 221 589 217 q 582 225 585 225 q 575 221 578 225 q 572 213 572 217 q 582 201 572 201 q 589 213 589 201 m 615 208 q 613 214 614 211 q 608 221 611 217 l 608 207 l 608 196 l 604 196 l 604 229 l 611 229 l 618 215 q 624 207 621 215 l 624 221 l 624 229 l 629 229 l 629 196 l 622 196 l 615 208 m 649 208 q 646 214 647 211 q 644 221 644 217 l 644 207 l 644 196 l 636 196 l 636 229 l 647 229 l 651 215 q 658 207 653 215 q 657 213 658 210 q 656 221 656 217 l 656 229 l 665 229 l 665 196 l 656 196 l 649 208 m 678 222 l 678 215 l 692 215 l 692 211 l 678 211 l 678 201 l 692 201 l 692 196 l 671 196 l 671 229 l 692 229 l 692 222 l 678 222 m 706 229 l 706 201 l 718 201 l 718 196 l 697 196 l 697 229 l 706 229 m 740 229 l 740 211 q 746 201 740 201 q 753 211 753 201 l 753 229 l 761 229 l 761 211 q 746 196 761 196 q 732 211 732 196 l 732 229 l 740 229 m 779 208 q 772 221 776 213 l 772 207 l 772 196 l 767 196 l 767 229 l 775 229 l 783 215 q 788 207 788 215 l 788 221 l 788 229 l 793 229 l 793 196 l 788 196 l 779 208 m 801 196 l 801 229 l 808 229 l 808 196 l 801 196 m 847 213 q 844 204 847 208 q 838 197 840 200 q 842 197 840 197 q 847 196 843 196 l 844 190 q 831 196 836 192 l 829 196 q 814 213 814 196 q 831 231 814 231 q 847 213 847 231 m 831 201 q 838 213 838 201 q 835 221 838 217 q 831 225 833 225 q 824 221 825 225 q 822 213 822 217 q 831 201 822 201 m 858 229 l 858 211 q 865 201 858 201 q 871 211 871 201 l 871 229 l 878 229 l 878 211 q 865 196 878 196 q 851 211 851 196 l 851 229 l 858 229 m 892 222 l 892 215 l 904 215 l 904 211 l 892 211 l 892 201 l 906 201 l 906 196 l 885 196 l 885 229 l 906 229 l 906 222 l 892 222 m 935 229 l 946 229 l 947 196 l 940 196 l 939 208 l 939 222 q 938 217 939 219 q 935 211 936 214 l 931 196 l 925 196 l 922 211 q 921 217 921 214 q 918 222 921 219 l 918 208 l 918 196 l 910 196 l 913 229 l 922 229 l 926 218 q 927 213 926 215 q 928 207 928 210 q 931 213 931 210 q 932 218 931 215 l 935 229 m 961 222 l 961 215 l 972 215 l 972 211 l 961 211 l 961 201 l 975 201 l 975 196 l 953 196 l 953 229 l 972 229 l 972 222 l 961 222 m 992 208 q 989 214 990 211 q 986 221 988 217 l 986 207 l 986 196 l 979 196 l 979 229 l 988 229 l 996 215 q 1000 207 1000 215 l 1000 221 l 1000 229 l 1008 229 l 1008 196 l 1000 196 l 992 208 m 1019 196 l 1019 222 l 1013 222 l 1013 229 l 1038 229 l 1038 222 l 1029 222 l 1029 196 l 1019 196 m 379 126 q 394 113 394 126 q 379 99 394 99 q 367 113 367 99 q 379 126 367 126 m 379 100 q 393 113 393 100 q 379 124 393 124 q 371 113 371 124 q 379 100 371 100 m 382 106 q 386 108 385 106 l 386 106 q 383 104 385 104 l 382 104 q 372 113 372 104 q 382 121 372 121 q 386 118 386 121 l 386 117 l 385 117 q 383 117 383 117 q 382 118 383 118 q 375 113 375 118 q 382 106 375 106 m 421 104 l 421 96 l 415 96 l 415 100 l 413 100 q 407 96 413 96 q 397 108 397 96 q 401 117 397 113 q 407 121 404 121 q 413 117 413 121 l 413 128 l 421 128 l 421 104 m 413 110 q 408 114 413 114 q 404 108 404 114 q 408 101 404 101 q 411 103 410 101 l 413 104 l 413 106 l 413 110 m 438 114 q 431 108 431 114 q 433 103 431 106 q 438 101 436 101 l 442 101 l 442 99 q 436 96 442 96 q 425 108 425 96 q 428 117 425 113 q 438 121 431 121 q 441 119 440 121 q 444 118 442 118 l 442 114 l 438 114 m 456 121 q 465 117 463 121 q 468 108 468 113 q 456 96 468 96 q 444 108 444 96 q 448 117 444 113 q 456 121 451 121 m 456 101 q 460 108 460 101 q 456 114 460 114 q 451 108 451 114 q 456 101 451 101 m 494 104 l 494 96 l 489 96 l 489 100 l 488 100 q 481 96 488 96 q 469 108 469 96 q 474 117 469 113 q 481 121 478 121 q 488 117 488 121 l 488 128 l 494 128 l 494 104 m 488 110 q 483 114 488 114 q 478 108 478 114 q 483 101 478 101 q 486 103 483 101 q 488 104 488 103 l 488 106 l 488 110 m 517 99 q 510 96 515 96 q 499 108 499 96 q 501 116 499 111 q 510 121 503 121 q 517 117 515 121 q 519 108 519 113 l 519 106 l 506 106 q 511 101 506 101 l 517 101 l 517 99 m 510 114 q 506 110 506 114 l 514 110 q 510 114 514 114 m 532 101 q 529 106 532 104 q 524 113 524 106 q 532 121 524 121 q 534 120 533 121 q 536 119 535 119 l 538 118 l 538 114 l 532 114 q 529 113 529 114 l 535 110 q 539 104 539 107 q 529 96 539 96 q 526 97 528 96 q 521 99 524 99 l 524 101 l 529 101 l 532 101 m 546 128 q 550 124 550 128 l 546 124 l 543 124 q 546 128 543 128 m 543 118 l 550 118 l 550 96 l 543 96 l 543 118 m 564 92 q 571 99 571 92 l 571 100 q 564 99 568 99 q 554 108 554 99 q 557 117 554 113 q 564 121 560 121 q 571 117 571 121 l 571 118 l 576 118 l 576 113 l 576 100 q 572 90 576 92 q 564 88 571 88 q 557 90 558 88 l 558 94 q 560 93 558 93 q 564 92 561 92 m 571 110 q 567 114 567 114 q 561 108 561 114 q 567 101 561 101 q 568 103 568 101 q 571 104 568 104 l 571 106 l 571 110 m 594 121 q 604 110 604 121 l 604 96 l 597 96 l 597 108 q 593 114 597 114 q 590 113 590 114 q 589 113 590 113 l 589 110 l 589 96 l 582 96 l 582 113 l 582 118 l 589 118 l 589 117 l 590 118 q 594 121 593 121 m 619 106 l 607 106 l 607 110 l 619 110 l 619 106 m 638 114 l 651 114 l 651 99 q 646 97 649 99 q 640 96 643 96 q 628 100 632 96 q 625 106 626 103 q 624 113 624 110 q 640 128 624 128 q 643 127 642 128 q 646 126 644 126 l 649 126 l 649 121 q 645 122 647 121 q 640 124 643 124 q 629 113 629 124 q 640 101 629 101 l 644 101 l 644 108 l 638 108 l 638 114 m 656 96 l 656 113 q 654 118 656 117 l 660 118 l 663 114 q 669 121 663 121 l 669 118 l 669 113 l 667 113 q 663 110 663 113 l 663 108 l 663 96 l 656 96 m 693 107 q 692 106 693 106 l 676 106 q 685 101 678 101 l 692 101 l 692 99 q 683 96 689 96 q 671 108 671 96 q 674 116 671 111 q 683 121 676 121 q 690 117 688 121 q 693 108 693 113 l 693 107 m 685 110 q 683 114 685 114 q 676 110 678 114 l 685 110 m 706 92 q 711 99 711 92 l 711 100 q 706 99 710 99 q 696 108 696 99 q 698 117 696 113 q 706 121 700 121 q 711 117 707 121 l 711 118 l 718 118 l 718 113 l 718 100 q 714 90 718 92 q 706 88 711 88 q 697 90 699 88 l 699 94 q 700 93 699 93 q 706 92 701 92 m 711 110 l 710 110 q 707 114 710 114 q 701 108 701 114 q 707 101 701 101 q 710 103 710 101 l 710 104 l 711 106 l 711 110 m 743 108 q 735 96 743 96 q 721 108 721 96 q 724 117 721 113 q 735 121 728 121 q 741 117 739 121 q 743 108 743 113 m 731 108 q 735 101 731 101 q 739 108 739 101 q 735 114 739 114 q 731 108 731 114 m 749 96 l 749 113 l 749 118 l 754 118 l 754 114 l 757 114 q 761 121 757 121 q 764 118 764 121 l 764 113 l 761 113 q 757 110 757 113 l 757 108 l 757 96 l 749 96 m 772 96 l 772 99 l 765 118 l 772 118 l 776 108 l 776 104 q 779 108 776 106 l 782 118 l 789 118 l 783 104 q 775 90 778 93 q 772 88 772 88 q 768 85 771 88 l 767 92 q 768 93 768 92 q 771 94 768 94 l 772 96 m 833 126 l 835 96 l 829 96 l 826 108 l 826 121 q 825 115 826 118 q 822 110 824 113 l 819 99 l 814 99 l 810 108 q 809 115 810 111 q 808 121 808 118 l 808 108 l 806 96 l 800 96 l 801 126 l 811 126 l 814 117 q 815 106 815 114 l 818 106 q 819 117 818 114 l 824 126 l 833 126 m 849 121 q 857 117 856 121 q 858 108 858 113 l 858 106 l 844 106 q 851 101 844 101 l 857 101 l 858 99 q 851 96 856 96 q 838 108 838 96 q 840 116 838 111 q 849 121 842 121 m 853 110 q 849 114 853 114 q 844 110 844 114 l 853 110 m 885 104 l 885 96 l 881 96 l 881 100 q 876 97 878 99 q 871 96 874 96 q 863 108 863 96 q 865 117 861 113 q 871 121 868 121 q 878 117 878 121 l 878 128 l 885 128 l 885 104 m 878 110 q 874 114 878 114 q 869 108 869 114 q 874 101 869 101 q 876 103 874 101 q 878 104 878 103 l 878 106 l 878 110 m 894 128 q 899 124 899 128 l 894 124 l 889 124 q 894 128 889 128 m 889 118 l 899 118 l 899 96 l 889 96 l 889 118 m 917 121 q 925 110 925 121 l 925 96 l 917 96 l 917 108 q 914 114 917 114 q 913 113 913 114 q 911 113 913 113 l 910 113 l 910 110 l 910 96 l 904 96 l 904 113 q 903 115 904 114 q 903 118 903 117 l 907 118 l 910 117 l 911 118 q 917 121 914 121 m 950 101 l 950 96 l 943 96 l 943 100 l 940 100 q 935 96 940 96 q 928 104 928 96 q 940 113 928 113 l 939 113 q 936 114 938 113 q 931 113 932 114 l 931 118 q 933 119 932 118 q 935 120 935 119 q 939 121 936 121 q 947 117 944 121 q 950 110 950 113 l 950 101 m 940 108 q 935 104 935 108 q 939 101 935 101 q 940 104 939 101 l 940 108 m 331 385 l 308 385 l 308 485 q 322 488 313 488 q 339 488 331 488 q 372 478 361 488 q 379 458 379 472 q 364 433 379 439 l 364 431 q 375 413 375 428 q 380 395 378 403 q 385 385 382 388 l 361 385 q 353 408 360 386 q 349 422 353 419 q 338 425 344 425 l 331 425 l 331 385 m 331 442 l 339 442 q 357 456 357 442 q 342 469 357 469 l 331 469 l 331 442 m 463 385 l 399 385 l 399 488 l 460 488 l 460 468 l 421 468 l 421 444 l 458 444 l 458 426 l 421 426 l 421 403 l 463 403 l 463 385 m 499 385 l 476 385 l 483 488 l 514 488 l 524 451 q 528 433 526 443 q 532 415 529 424 l 535 415 q 538 434 536 424 q 543 451 540 444 l 554 488 l 585 488 l 589 385 l 567 385 l 564 422 l 564 467 q 558 445 561 456 q 553 425 556 435 l 539 386 l 521 386 l 511 425 q 506 445 508 435 q 501 467 504 456 l 501 422 l 499 385 m 629 385 l 607 385 l 607 488 l 629 488 l 629 385 m 674 385 l 651 385 l 651 488 l 676 488 l 699 449 q 708 431 704 440 q 717 415 713 422 q 714 434 714 424 q 714 456 714 444 l 714 488 l 736 488 l 736 385 l 711 385 l 689 422 q 680 442 685 433 q 671 460 675 450 q 672 438 671 449 q 674 415 674 426 l 674 385 m 829 397 q 809 386 821 390 q 782 382 797 382 q 765 383 771 382 q 754 385 760 385 l 754 485 q 769 488 761 488 q 788 488 778 488 q 829 476 814 488 q 842 460 836 469 q 847 438 847 451 q 842 413 847 424 q 829 397 836 403 m 779 400 l 788 400 q 822 438 822 400 q 789 469 822 469 q 783 469 785 469 q 779 468 782 468 l 779 400 m 926 385 l 861 385 l 861 488 l 925 488 l 925 468 l 883 468 l 883 444 l 922 444 l 922 426 l 883 426 l 883 403 l 926 403 l 926 385 m 965 385 l 943 385 l 943 485 q 956 488 949 488 q 972 488 964 488 q 1006 478 994 488 q 1017 458 1017 471 q 1010 442 1017 447 q 997 433 1004 436 l 997 431 q 1011 413 1007 429 q 1015 395 1014 403 q 1018 385 1017 388 l 996 385 q 988 408 994 386 q 983 422 986 419 q 972 425 979 425 l 965 425 l 965 385 m 965 442 l 972 442 q 992 456 992 442 q 975 469 992 469 l 965 469 l 965 442 m 1039 353 l 290 353 l 290 361 l 1039 361 l 1039 353 m 1039 244 l 290 244 l 290 254 l 1039 254 l 1039 244 m 1039 169 l 290 169 l 290 178 l 1039 178 l 1039 169 m 528 72 l 532 72 l 525 51 l 521 51 l 517 65 l 514 51 l 510 51 l 501 72 l 507 72 l 511 58 l 515 72 l 519 72 l 524 58 l 528 72 m 558 72 l 561 72 l 557 51 l 553 51 l 549 65 l 543 51 l 539 51 l 532 72 l 538 72 l 542 58 l 546 72 l 550 72 l 554 58 l 558 72 m 589 72 l 593 72 l 586 51 l 582 51 l 579 65 l 575 51 l 571 51 l 561 72 l 568 72 l 572 58 l 576 72 l 582 72 l 585 58 l 589 72 m 594 57 l 601 57 l 601 51 l 594 51 l 594 57 m 619 79 l 626 79 l 626 51 l 619 51 l 619 54 q 618 53 619 53 q 614 51 615 51 q 607 54 610 51 q 606 61 606 57 q 607 69 606 67 q 614 74 608 74 q 619 69 617 74 l 619 79 m 618 57 q 619 61 619 58 q 618 67 619 65 l 615 69 q 614 68 614 69 q 611 67 614 67 l 611 63 l 611 57 q 613 56 611 56 q 615 54 614 54 l 618 57 m 642 58 l 649 58 q 644 53 649 54 q 638 51 644 51 q 632 54 635 51 q 629 61 629 54 q 632 69 629 67 q 638 74 633 74 q 640 73 639 74 q 643 72 642 72 l 644 72 q 649 65 649 68 l 642 65 l 642 67 q 640 68 640 67 q 638 69 640 69 l 636 67 q 635 65 636 65 q 633 63 633 65 q 635 59 633 60 q 636 57 636 58 q 638 56 636 56 q 640 54 638 54 l 642 57 l 642 58 m 660 74 q 669 69 665 74 q 672 65 671 67 q 674 61 674 64 q 672 58 674 58 q 669 54 671 57 q 665 52 667 53 q 660 51 664 51 l 658 51 q 656 53 657 51 q 651 57 651 53 l 651 63 l 651 67 q 656 72 651 72 q 658 73 658 72 q 660 74 658 74 m 665 57 q 667 61 667 58 q 665 67 667 65 l 660 67 l 658 67 q 656 61 656 65 q 658 57 656 58 l 660 54 q 664 56 663 54 q 665 57 665 56 m 688 63 l 696 51 l 689 51 l 685 58 l 681 51 l 674 51 l 681 63 l 674 72 l 681 72 l 685 67 l 688 72 l 696 72 l 688 63 m 711 72 l 717 72 l 710 53 l 707 49 l 707 47 l 706 44 l 703 44 q 701 43 703 43 q 697 44 699 43 l 697 49 l 699 47 l 701 47 l 701 49 q 703 50 701 49 l 703 51 l 696 72 l 701 72 l 706 57 l 711 72 m 718 57 l 721 57 l 721 51 l 718 51 l 718 57 m 740 58 l 746 58 q 744 56 746 57 q 743 53 743 54 q 736 51 743 51 q 731 54 733 51 q 725 61 725 54 q 731 69 725 64 q 736 74 732 74 q 739 73 738 74 q 742 72 740 72 l 743 72 q 746 65 743 69 l 740 65 l 740 67 q 739 68 739 67 q 736 69 739 69 l 735 67 q 732 63 732 65 q 735 57 732 58 l 736 54 q 740 57 739 54 l 740 58 m 758 74 q 767 69 764 74 q 769 65 768 67 q 771 61 771 64 q 769 58 771 58 q 767 54 768 57 q 758 51 764 51 q 754 53 757 51 q 750 57 750 53 q 749 63 749 57 l 749 64 q 750 67 749 65 q 754 72 750 72 l 756 72 q 757 73 757 72 q 758 74 757 74 m 764 57 q 765 61 765 58 q 764 67 765 65 l 758 67 l 757 67 q 754 61 754 65 q 757 57 754 58 l 758 54 q 763 56 761 54 q 764 57 764 56 m 804 69 l 804 65 l 804 51 l 797 51 l 797 63 l 797 67 l 797 68 l 796 69 l 794 69 q 793 67 793 69 l 792 67 q 790 65 790 67 l 790 61 l 790 51 l 786 51 l 786 63 l 786 67 q 785 69 786 68 l 783 69 l 782 69 l 782 67 l 781 67 q 779 65 779 67 l 779 61 l 779 51 l 772 51 l 772 72 l 779 72 l 779 69 q 786 74 783 74 q 789 72 788 74 l 790 69 q 792 72 790 72 l 793 72 q 797 74 796 74 q 800 73 800 74 q 801 72 800 72 l 804 69 z "},"7":{"ha":1413,"x_min":225,"x_max":1100,"o":"m 532 790 q 536 808 532 801 q 550 815 540 815 q 563 808 558 815 q 568 790 568 801 q 563 775 568 782 q 550 768 558 768 q 537 775 542 768 q 532 790 532 782 m 804 814 l 811 814 q 835 793 835 814 q 810 768 835 768 l 804 768 l 804 814 m 740 776 q 742 783 740 782 q 743 786 742 785 q 752 778 749 783 q 758 771 756 774 q 749 767 756 767 q 740 776 740 767 m 1100 867 l 1100 0 l 225 0 l 225 867 l 1100 867 m 474 831 l 1063 831 l 1063 840 l 474 840 l 474 831 m 1013 788 q 1013 800 1013 794 q 1011 813 1013 806 l 1013 813 q 1022 793 1017 803 l 1039 765 l 1047 765 l 1047 819 l 1042 819 l 1042 797 l 1042 772 q 1031 790 1038 783 l 1013 819 l 1004 819 l 1004 765 l 1013 765 l 1013 788 m 978 768 q 961 774 968 768 q 954 790 954 779 q 961 808 954 801 q 978 814 968 814 q 990 813 988 814 l 992 818 q 978 819 990 819 q 950 790 950 819 q 951 779 950 785 q 957 771 951 774 q 978 763 963 763 q 987 764 982 763 q 994 767 992 765 l 994 793 l 975 793 l 975 788 l 988 788 l 988 771 q 983 769 986 771 q 978 768 981 768 m 932 819 l 932 765 l 939 765 l 939 819 l 932 819 m 904 789 q 914 779 914 788 q 904 768 914 768 q 897 769 900 768 q 889 772 893 771 l 888 767 q 895 764 890 765 q 903 763 900 763 q 918 767 914 763 q 922 779 922 772 q 907 794 922 789 q 899 806 899 801 q 907 814 899 814 q 918 813 917 814 l 921 818 q 907 819 918 819 q 889 806 889 819 q 904 789 889 796 m 857 794 l 857 814 l 881 814 l 881 819 l 851 819 l 851 765 l 881 765 l 881 771 l 857 771 l 857 789 l 881 789 l 881 794 l 857 794 m 840 793 q 835 814 840 803 q 811 819 828 819 l 796 819 l 796 765 q 802 764 799 765 q 808 763 806 763 q 835 771 824 763 q 840 793 840 782 m 739 797 q 743 789 739 790 q 735 775 735 783 q 749 763 735 763 q 761 768 753 763 q 765 765 767 765 l 771 765 q 765 772 767 767 q 767 779 767 775 q 771 789 768 783 l 765 789 q 761 775 765 781 q 750 788 758 779 q 761 800 761 792 q 750 810 761 810 q 739 797 739 810 m 693 789 q 703 779 703 788 q 692 768 703 768 q 685 769 689 768 q 678 772 682 771 l 676 767 q 683 764 679 765 q 692 763 686 763 q 707 767 703 763 q 711 779 711 772 q 708 789 711 786 q 697 794 704 792 q 685 806 685 803 q 696 814 685 814 q 707 813 706 814 l 707 818 q 697 819 706 819 q 678 806 678 819 q 693 789 678 796 m 651 814 l 651 765 l 656 765 l 656 814 l 674 814 l 674 819 l 633 819 l 633 814 l 651 814 m 590 813 q 596 803 593 807 q 601 793 599 799 l 619 765 l 628 765 l 628 819 l 619 819 l 619 797 q 619 785 619 790 q 622 772 619 779 q 617 783 619 778 q 611 790 614 788 l 593 819 l 585 819 l 585 765 l 590 765 l 590 788 l 590 813 m 576 793 q 550 819 576 819 q 532 813 539 819 q 525 790 525 806 q 532 771 525 779 q 550 763 539 763 q 569 770 561 763 q 576 793 576 778 m 494 794 l 494 814 l 517 814 l 517 819 l 489 819 l 489 765 l 494 765 l 494 789 l 515 789 l 515 794 l 494 794 m 474 743 l 1063 743 l 1063 753 l 474 753 l 474 743 m 1044 632 q 1039 671 1044 653 q 1019 701 1033 689 q 954 728 994 728 q 885 701 910 728 q 861 629 861 669 q 888 557 861 586 q 953 529 913 529 q 1018 558 993 529 q 1044 632 1044 583 m 736 585 q 728 628 728 597 q 757 688 728 688 q 776 678 768 688 q 782 667 781 675 q 786 651 783 660 l 836 651 q 830 683 835 669 q 814 707 825 696 q 757 728 794 728 q 692 701 713 728 q 669 628 669 675 q 693 557 669 579 q 757 529 718 529 q 811 547 789 529 q 836 601 833 565 l 786 606 q 757 572 782 572 q 736 585 742 572 m 647 629 q 622 697 647 665 q 550 725 599 725 l 474 725 l 474 535 l 554 535 q 619 560 599 535 q 647 629 647 590 m 294 736 q 269 714 278 733 q 263 671 260 694 q 282 633 268 647 q 313 622 296 619 q 310 608 310 618 q 324 568 310 583 q 344 549 331 557 q 375 538 358 542 q 410 533 392 535 q 450 532 429 532 l 450 539 q 419 540 435 539 q 390 543 404 542 q 381 544 386 543 q 372 547 376 546 q 356 553 367 547 q 341 561 349 557 q 329 572 333 565 q 324 585 326 579 q 321 600 321 592 q 333 583 326 589 q 350 572 340 578 q 356 569 353 571 q 361 567 358 568 q 403 560 381 561 q 450 558 426 558 l 450 571 q 405 572 426 571 q 367 579 383 574 q 352 585 358 582 q 339 590 346 588 q 328 603 332 597 q 321 618 324 610 l 321 624 q 325 636 324 631 q 329 644 326 642 q 375 671 343 664 q 385 674 381 674 q 394 675 390 674 q 397 676 397 675 q 399 676 397 676 q 403 678 399 678 q 408 681 404 681 l 411 681 l 413 681 l 418 681 q 425 676 418 679 l 426 676 q 428 678 426 678 q 431 681 429 678 q 440 685 435 685 q 450 688 442 688 l 450 840 q 358 802 383 838 q 329 718 333 767 q 313 733 322 726 q 294 736 304 739 m 450 644 q 435 649 443 644 q 425 656 428 653 q 411 651 422 651 q 393 663 396 651 l 393 660 q 411 646 393 646 q 425 651 419 646 q 450 640 432 640 l 450 644 m 1063 514 l 263 514 l 263 32 l 1063 32 l 1063 514 m 754 800 q 749 790 754 794 q 744 794 746 793 q 743 800 743 796 q 750 806 743 806 q 754 800 754 806 m 550 685 q 576 669 567 685 q 586 629 586 650 q 576 590 586 607 q 550 575 564 575 l 532 575 l 532 685 l 550 685 m 922 628 q 954 688 922 688 q 983 633 983 688 q 982 604 983 617 q 975 585 981 592 q 953 571 971 571 q 922 628 922 571 m 307 632 q 290 639 299 629 q 278 656 281 649 q 271 695 268 676 q 288 721 274 714 q 309 720 301 726 q 325 703 317 714 q 325 678 329 700 q 313 676 317 678 q 324 671 319 676 q 313 672 318 674 q 306 669 308 671 q 311 665 307 667 q 319 660 315 664 q 306 658 308 660 q 310 656 308 657 q 314 654 313 656 l 317 651 q 307 632 313 635 m 397 693 q 372 706 381 696 q 367 717 364 717 q 422 718 407 739 q 418 704 422 715 q 399 693 414 693 l 397 693 m 310 331 q 321 330 317 331 q 328 328 325 329 q 333 314 333 319 q 332 307 333 310 q 328 300 331 304 q 320 297 325 299 q 310 296 315 296 l 307 296 l 307 276 l 294 276 l 294 329 q 310 331 299 331 m 310 306 q 321 313 321 306 q 310 321 321 321 l 307 321 l 307 306 l 310 306 m 353 321 l 353 308 l 372 308 l 372 300 l 353 300 l 353 286 l 375 286 l 375 276 l 342 276 l 342 331 l 375 331 l 375 321 l 353 321 m 421 314 q 413 303 421 307 q 419 292 417 297 q 422 276 422 281 l 411 276 q 410 281 411 278 q 407 290 408 283 q 399 299 407 299 l 394 299 l 394 276 l 382 276 l 382 329 q 390 331 385 331 q 399 331 394 331 q 410 330 406 331 q 418 328 414 329 q 421 314 421 322 m 400 307 q 408 314 408 307 q 400 321 408 321 l 394 321 l 394 307 l 400 307 m 444 286 q 451 292 451 286 q 444 299 451 294 q 429 314 429 306 q 450 331 429 331 q 457 330 454 331 q 463 329 460 329 l 460 319 q 456 320 458 319 q 450 321 453 321 q 442 317 442 321 q 451 308 442 310 q 464 292 464 304 q 460 281 464 286 q 444 276 456 276 q 426 281 432 276 l 431 290 q 444 286 435 286 m 469 303 q 496 331 469 331 q 515 324 510 331 q 521 306 521 317 q 496 276 521 276 q 469 303 469 276 m 510 306 q 506 316 510 311 q 496 321 503 321 q 483 303 483 321 q 496 286 483 286 q 510 306 510 286 m 550 299 q 546 306 549 301 q 542 317 543 311 l 539 317 q 542 305 542 310 q 542 292 542 300 l 542 276 l 529 276 l 529 331 l 543 331 l 557 310 q 564 292 558 306 l 564 314 l 564 331 l 575 331 l 575 276 l 561 276 l 550 299 m 597 331 l 614 331 l 629 276 l 618 276 l 614 290 l 597 290 l 593 276 l 582 276 l 597 331 m 600 300 l 611 300 l 607 310 q 606 316 607 313 q 606 321 606 319 q 604 310 604 319 l 600 300 m 651 331 l 651 286 l 671 286 l 671 276 l 638 276 l 638 331 l 651 331 m 706 331 l 706 300 q 717 286 706 286 q 725 300 725 286 l 725 331 l 739 331 l 739 300 q 717 276 739 276 q 693 300 693 276 l 693 331 l 706 331 m 764 286 q 771 292 771 286 q 761 299 771 294 q 746 314 746 306 q 767 331 746 331 q 774 330 771 331 q 782 329 778 329 l 779 319 q 774 320 776 319 q 767 321 771 321 q 758 317 758 321 q 768 308 758 311 q 783 292 783 304 q 778 281 783 286 q 761 276 772 276 q 746 281 750 276 l 749 290 q 764 286 754 286 m 804 321 l 804 308 l 824 308 l 824 300 l 804 300 l 804 286 l 826 286 l 826 276 l 790 276 l 790 331 l 824 331 l 824 321 l 804 321 m 847 303 q 874 331 847 331 q 892 324 885 331 q 900 306 900 317 q 892 283 900 290 q 874 276 885 276 q 847 303 847 276 m 885 306 q 882 316 885 311 q 874 321 879 321 q 861 303 861 321 q 874 286 861 286 q 885 306 885 286 m 926 299 q 923 306 925 301 q 918 317 921 311 l 918 292 l 918 276 l 906 276 l 906 331 l 921 331 l 932 310 q 937 302 935 307 q 940 292 939 297 l 940 314 l 940 331 l 950 331 l 950 276 l 939 276 l 926 299 m 972 331 l 972 286 l 996 286 l 996 276 l 961 276 l 961 331 l 972 331 m 1008 276 l 1008 299 l 990 331 l 1004 331 l 1011 317 q 1015 307 1014 308 q 1017 312 1017 310 q 1018 317 1017 314 l 1024 331 l 1038 331 l 1019 299 l 1019 276 l 1008 276 m 301 229 l 301 211 q 307 201 301 201 q 313 211 313 201 l 313 229 l 319 229 l 319 211 q 307 196 319 196 q 292 211 292 196 l 292 229 l 301 229 m 335 201 q 339 207 339 201 q 335 211 339 208 q 325 221 325 214 q 338 231 325 231 q 343 230 340 231 q 347 229 346 229 l 346 222 q 342 224 343 222 q 338 225 340 225 q 333 221 333 225 q 339 215 333 219 q 347 207 347 215 q 335 196 347 196 q 325 197 328 196 l 328 204 q 335 201 329 201 m 361 229 l 371 229 l 382 196 l 375 196 l 371 204 l 361 204 l 357 196 l 353 196 l 361 229 m 361 211 l 371 211 l 368 218 q 367 225 367 221 q 366 223 367 224 q 365 221 365 222 q 364 218 364 219 l 361 211 m 403 225 q 394 222 399 225 q 390 213 390 219 q 400 201 390 201 l 404 201 l 404 211 l 400 211 l 400 215 l 413 215 l 413 197 q 407 196 411 196 q 400 196 403 196 q 389 200 390 196 q 382 213 382 207 q 403 231 382 231 q 407 230 406 231 q 411 229 408 229 l 408 222 q 406 224 407 222 q 403 225 404 224 m 425 222 l 425 215 l 438 215 l 438 211 l 425 211 l 425 201 l 440 201 l 440 196 l 419 196 l 419 229 l 440 229 l 440 222 l 425 222 m 467 231 q 476 226 469 231 q 478 218 478 225 q 476 213 478 213 q 464 208 474 208 l 463 208 l 463 196 l 456 196 l 456 229 q 460 230 458 229 q 467 231 461 231 m 464 215 q 472 218 472 215 q 467 225 472 225 l 463 225 l 463 215 l 464 215 m 490 222 l 490 215 l 503 215 l 503 211 l 490 211 l 490 201 l 506 201 l 506 196 l 485 196 l 485 229 l 506 229 l 506 222 l 490 222 m 535 221 q 528 213 535 213 q 531 210 531 211 q 535 207 532 208 q 535 200 535 203 q 536 196 536 197 l 528 196 q 525 204 528 200 q 519 211 525 207 l 517 211 l 517 196 l 511 196 l 511 229 q 516 230 514 229 q 521 231 518 231 q 532 226 528 231 q 535 221 535 226 m 521 215 q 528 221 528 215 q 521 225 528 225 l 517 225 l 517 215 l 521 215 m 549 201 q 554 207 554 201 q 549 211 554 207 q 539 221 539 213 q 553 231 539 231 q 557 230 556 231 q 560 229 558 229 l 558 222 q 556 224 557 222 q 553 225 554 225 q 546 221 546 225 q 553 215 546 219 q 561 207 561 215 q 549 196 561 196 q 538 197 539 196 l 539 204 q 549 201 542 201 m 564 213 q 582 231 564 231 q 597 213 597 231 q 582 196 597 196 q 564 213 564 196 m 589 213 q 587 221 589 217 q 582 225 585 225 q 575 221 578 225 q 572 213 572 217 q 582 201 572 201 q 589 213 589 201 m 615 208 q 613 214 614 211 q 608 221 611 217 l 608 207 l 608 196 l 604 196 l 604 229 l 611 229 l 618 215 q 624 207 621 215 l 624 221 l 624 229 l 629 229 l 629 196 l 622 196 l 615 208 m 649 208 q 646 214 647 211 q 644 221 644 217 l 644 207 l 644 196 l 636 196 l 636 229 l 647 229 l 651 215 q 658 207 653 215 q 657 213 658 210 q 656 221 656 217 l 656 229 l 665 229 l 665 196 l 656 196 l 649 208 m 678 222 l 678 215 l 692 215 l 692 211 l 678 211 l 678 201 l 692 201 l 692 196 l 671 196 l 671 229 l 692 229 l 692 222 l 678 222 m 706 229 l 706 201 l 718 201 l 718 196 l 697 196 l 697 229 l 706 229 m 740 229 l 740 211 q 746 201 740 201 q 753 211 753 201 l 753 229 l 761 229 l 761 211 q 746 196 761 196 q 732 211 732 196 l 732 229 l 740 229 m 779 208 q 772 221 776 213 l 772 207 l 772 196 l 767 196 l 767 229 l 775 229 l 783 215 q 788 207 788 215 l 788 221 l 788 229 l 793 229 l 793 196 l 788 196 l 779 208 m 801 196 l 801 229 l 808 229 l 808 196 l 801 196 m 847 213 q 844 204 847 208 q 838 197 840 200 q 842 197 840 197 q 847 196 843 196 l 844 190 q 831 196 836 192 l 829 196 q 814 213 814 196 q 831 231 814 231 q 847 213 847 231 m 831 201 q 838 213 838 201 q 835 221 838 217 q 831 225 833 225 q 824 221 825 225 q 822 213 822 217 q 831 201 822 201 m 858 229 l 858 211 q 865 201 858 201 q 871 211 871 201 l 871 229 l 878 229 l 878 211 q 865 196 878 196 q 851 211 851 196 l 851 229 l 858 229 m 892 222 l 892 215 l 904 215 l 904 211 l 892 211 l 892 201 l 906 201 l 906 196 l 885 196 l 885 229 l 906 229 l 906 222 l 892 222 m 935 229 l 946 229 l 947 196 l 940 196 l 939 208 l 939 222 q 938 217 939 219 q 935 211 936 214 l 931 196 l 925 196 l 922 211 q 921 217 921 214 q 918 222 921 219 l 918 208 l 918 196 l 910 196 l 913 229 l 922 229 l 926 218 q 927 213 926 215 q 928 207 928 210 q 931 213 931 210 q 932 218 931 215 l 935 229 m 961 222 l 961 215 l 972 215 l 972 211 l 961 211 l 961 201 l 975 201 l 975 196 l 953 196 l 953 229 l 972 229 l 972 222 l 961 222 m 992 208 q 989 214 990 211 q 986 221 988 217 l 986 207 l 986 196 l 979 196 l 979 229 l 988 229 l 996 215 q 1000 207 1000 215 l 1000 221 l 1000 229 l 1008 229 l 1008 196 l 1000 196 l 992 208 m 1019 196 l 1019 222 l 1013 222 l 1013 229 l 1038 229 l 1038 222 l 1029 222 l 1029 196 l 1019 196 m 379 126 q 394 113 394 126 q 379 99 394 99 q 367 113 367 99 q 379 126 367 126 m 379 100 q 393 113 393 100 q 379 124 393 124 q 371 113 371 124 q 379 100 371 100 m 382 106 q 386 108 385 106 l 386 106 q 383 104 385 104 l 382 104 q 372 113 372 104 q 382 121 372 121 q 386 118 386 121 l 386 117 l 385 117 q 383 117 383 117 q 382 118 383 118 q 375 113 375 118 q 382 106 375 106 m 421 104 l 421 96 l 415 96 l 415 100 l 413 100 q 407 96 413 96 q 397 108 397 96 q 401 117 397 113 q 407 121 404 121 q 413 117 413 121 l 413 128 l 421 128 l 421 104 m 413 110 q 408 114 413 114 q 404 108 404 114 q 408 101 404 101 q 411 103 410 101 l 413 104 l 413 106 l 413 110 m 438 114 q 431 108 431 114 q 433 103 431 106 q 438 101 436 101 l 442 101 l 442 99 q 436 96 442 96 q 425 108 425 96 q 428 117 425 113 q 438 121 431 121 q 441 119 440 121 q 444 118 442 118 l 442 114 l 438 114 m 456 121 q 465 117 463 121 q 468 108 468 113 q 456 96 468 96 q 444 108 444 96 q 448 117 444 113 q 456 121 451 121 m 456 101 q 460 108 460 101 q 456 114 460 114 q 451 108 451 114 q 456 101 451 101 m 494 104 l 494 96 l 489 96 l 489 100 l 488 100 q 481 96 488 96 q 469 108 469 96 q 474 117 469 113 q 481 121 478 121 q 488 117 488 121 l 488 128 l 494 128 l 494 104 m 488 110 q 483 114 488 114 q 478 108 478 114 q 483 101 478 101 q 486 103 483 101 q 488 104 488 103 l 488 106 l 488 110 m 517 99 q 510 96 515 96 q 499 108 499 96 q 501 116 499 111 q 510 121 503 121 q 517 117 515 121 q 519 108 519 113 l 519 106 l 506 106 q 511 101 506 101 l 517 101 l 517 99 m 510 114 q 506 110 506 114 l 514 110 q 510 114 514 114 m 532 101 q 529 106 532 104 q 524 113 524 106 q 532 121 524 121 q 534 120 533 121 q 536 119 535 119 l 538 118 l 538 114 l 532 114 q 529 113 529 114 l 535 110 q 539 104 539 107 q 529 96 539 96 q 526 97 528 96 q 521 99 524 99 l 524 101 l 529 101 l 532 101 m 546 128 q 550 124 550 128 l 546 124 l 543 124 q 546 128 543 128 m 543 118 l 550 118 l 550 96 l 543 96 l 543 118 m 564 92 q 571 99 571 92 l 571 100 q 564 99 568 99 q 554 108 554 99 q 557 117 554 113 q 564 121 560 121 q 571 117 571 121 l 571 118 l 576 118 l 576 113 l 576 100 q 572 90 576 92 q 564 88 571 88 q 557 90 558 88 l 558 94 q 560 93 558 93 q 564 92 561 92 m 571 110 q 567 114 567 114 q 561 108 561 114 q 567 101 561 101 q 568 103 568 101 q 571 104 568 104 l 571 106 l 571 110 m 594 121 q 604 110 604 121 l 604 96 l 597 96 l 597 108 q 593 114 597 114 q 590 113 590 114 q 589 113 590 113 l 589 110 l 589 96 l 582 96 l 582 113 l 582 118 l 589 118 l 589 117 l 590 118 q 594 121 593 121 m 619 106 l 607 106 l 607 110 l 619 110 l 619 106 m 638 114 l 651 114 l 651 99 q 646 97 649 99 q 640 96 643 96 q 628 100 632 96 q 625 106 626 103 q 624 113 624 110 q 640 128 624 128 q 643 127 642 128 q 646 126 644 126 l 649 126 l 649 121 q 645 122 647 121 q 640 124 643 124 q 629 113 629 124 q 640 101 629 101 l 644 101 l 644 108 l 638 108 l 638 114 m 656 96 l 656 113 q 654 118 656 117 l 660 118 l 663 114 q 669 121 663 121 l 669 118 l 669 113 l 667 113 q 663 110 663 113 l 663 108 l 663 96 l 656 96 m 693 107 q 692 106 693 106 l 676 106 q 685 101 678 101 l 692 101 l 692 99 q 683 96 689 96 q 671 108 671 96 q 674 116 671 111 q 683 121 676 121 q 690 117 688 121 q 693 108 693 113 l 693 107 m 685 110 q 683 114 685 114 q 676 110 678 114 l 685 110 m 706 92 q 711 99 711 92 l 711 100 q 706 99 710 99 q 696 108 696 99 q 698 117 696 113 q 706 121 700 121 q 711 117 707 121 l 711 118 l 718 118 l 718 113 l 718 100 q 714 90 718 92 q 706 88 711 88 q 697 90 699 88 l 699 94 q 700 93 699 93 q 706 92 701 92 m 711 110 l 710 110 q 707 114 710 114 q 701 108 701 114 q 707 101 701 101 q 710 103 710 101 l 710 104 l 711 106 l 711 110 m 743 108 q 735 96 743 96 q 721 108 721 96 q 724 117 721 113 q 735 121 728 121 q 741 117 739 121 q 743 108 743 113 m 731 108 q 735 101 731 101 q 739 108 739 101 q 735 114 739 114 q 731 108 731 114 m 749 96 l 749 113 l 749 118 l 754 118 l 754 114 l 757 114 q 761 121 757 121 q 764 118 764 121 l 764 113 l 761 113 q 757 110 757 113 l 757 108 l 757 96 l 749 96 m 772 96 l 772 99 l 765 118 l 772 118 l 776 108 l 776 104 q 779 108 776 106 l 782 118 l 789 118 l 783 104 q 775 90 778 93 q 772 88 772 88 q 768 85 771 88 l 767 92 q 768 93 768 92 q 771 94 768 94 l 772 96 m 833 126 l 835 96 l 829 96 l 826 108 l 826 121 q 825 115 826 118 q 822 110 824 113 l 819 99 l 814 99 l 810 108 q 809 115 810 111 q 808 121 808 118 l 808 108 l 806 96 l 800 96 l 801 126 l 811 126 l 814 117 q 815 106 815 114 l 818 106 q 819 117 818 114 l 824 126 l 833 126 m 849 121 q 857 117 856 121 q 858 108 858 113 l 858 106 l 844 106 q 851 101 844 101 l 857 101 l 858 99 q 851 96 856 96 q 838 108 838 96 q 840 116 838 111 q 849 121 842 121 m 853 110 q 849 114 853 114 q 844 110 844 114 l 853 110 m 885 104 l 885 96 l 881 96 l 881 100 q 876 97 878 99 q 871 96 874 96 q 863 108 863 96 q 865 117 861 113 q 871 121 868 121 q 878 117 878 121 l 878 128 l 885 128 l 885 104 m 878 110 q 874 114 878 114 q 869 108 869 114 q 874 101 869 101 q 876 103 874 101 q 878 104 878 103 l 878 106 l 878 110 m 894 128 q 899 124 899 128 l 894 124 l 889 124 q 894 128 889 128 m 889 118 l 899 118 l 899 96 l 889 96 l 889 118 m 917 121 q 925 110 925 121 l 925 96 l 917 96 l 917 108 q 914 114 917 114 q 913 113 913 114 q 911 113 913 113 l 910 113 l 910 110 l 910 96 l 904 96 l 904 113 q 903 115 904 114 q 903 118 903 117 l 907 118 l 910 117 l 911 118 q 917 121 914 121 m 950 101 l 950 96 l 943 96 l 943 100 l 940 100 q 935 96 940 96 q 928 104 928 96 q 940 113 928 113 l 939 113 q 936 114 938 113 q 931 113 932 114 l 931 118 q 933 119 932 118 q 935 120 935 119 q 939 121 936 121 q 947 117 944 121 q 950 110 950 113 l 950 101 m 940 108 q 935 104 935 108 q 939 101 935 101 q 940 104 939 101 l 940 108 m 331 385 l 308 385 l 308 485 q 322 488 313 488 q 339 488 331 488 q 372 478 361 488 q 379 458 379 472 q 364 433 379 439 l 364 431 q 375 413 375 428 q 380 395 378 403 q 385 385 382 388 l 361 385 q 353 408 360 386 q 349 422 353 419 q 338 425 344 425 l 331 425 l 331 385 m 331 442 l 339 442 q 357 456 357 442 q 342 469 357 469 l 331 469 l 331 442 m 463 385 l 399 385 l 399 488 l 460 488 l 460 468 l 421 468 l 421 444 l 458 444 l 458 426 l 421 426 l 421 403 l 463 403 l 463 385 m 499 385 l 476 385 l 483 488 l 514 488 l 524 451 q 528 433 526 443 q 532 415 529 424 l 535 415 q 538 434 536 424 q 543 451 540 444 l 554 488 l 585 488 l 589 385 l 567 385 l 564 422 l 564 467 q 558 445 561 456 q 553 425 556 435 l 539 386 l 521 386 l 511 425 q 506 445 508 435 q 501 467 504 456 l 501 422 l 499 385 m 629 385 l 607 385 l 607 488 l 629 488 l 629 385 m 674 385 l 651 385 l 651 488 l 676 488 l 699 449 q 708 431 704 440 q 717 415 713 422 q 714 434 714 424 q 714 456 714 444 l 714 488 l 736 488 l 736 385 l 711 385 l 689 422 q 680 442 685 433 q 671 460 675 450 q 672 438 671 449 q 674 415 674 426 l 674 385 m 829 397 q 809 386 821 390 q 782 382 797 382 q 765 383 771 382 q 754 385 760 385 l 754 485 q 769 488 761 488 q 788 488 778 488 q 829 476 814 488 q 842 460 836 469 q 847 438 847 451 q 842 413 847 424 q 829 397 836 403 m 779 400 l 788 400 q 822 438 822 400 q 789 469 822 469 q 783 469 785 469 q 779 468 782 468 l 779 400 m 926 385 l 861 385 l 861 488 l 925 488 l 925 468 l 883 468 l 883 444 l 922 444 l 922 426 l 883 426 l 883 403 l 926 403 l 926 385 m 965 385 l 943 385 l 943 485 q 956 488 949 488 q 972 488 964 488 q 1006 478 994 488 q 1017 458 1017 471 q 1010 442 1017 447 q 997 433 1004 436 l 997 431 q 1011 413 1007 429 q 1015 395 1014 403 q 1018 385 1017 388 l 996 385 q 988 408 994 386 q 983 422 986 419 q 972 425 979 425 l 965 425 l 965 385 m 965 442 l 972 442 q 992 456 992 442 q 975 469 992 469 l 965 469 l 965 442 m 1039 353 l 290 353 l 290 361 l 1039 361 l 1039 353 m 1039 244 l 290 244 l 290 254 l 1039 254 l 1039 244 m 1039 169 l 290 169 l 290 178 l 1039 178 l 1039 169 m 528 72 l 532 72 l 525 51 l 521 51 l 517 65 l 514 51 l 510 51 l 501 72 l 507 72 l 511 58 l 515 72 l 519 72 l 524 58 l 528 72 m 558 72 l 561 72 l 557 51 l 553 51 l 549 65 l 543 51 l 539 51 l 532 72 l 538 72 l 542 58 l 546 72 l 550 72 l 554 58 l 558 72 m 589 72 l 593 72 l 586 51 l 582 51 l 579 65 l 575 51 l 571 51 l 561 72 l 568 72 l 572 58 l 576 72 l 582 72 l 585 58 l 589 72 m 594 57 l 601 57 l 601 51 l 594 51 l 594 57 m 619 79 l 626 79 l 626 51 l 619 51 l 619 54 q 618 53 619 53 q 614 51 615 51 q 607 54 610 51 q 606 61 606 57 q 607 69 606 67 q 614 74 608 74 q 619 69 617 74 l 619 79 m 618 57 q 619 61 619 58 q 618 67 619 65 l 615 69 q 614 68 614 69 q 611 67 614 67 l 611 63 l 611 57 q 613 56 611 56 q 615 54 614 54 l 618 57 m 642 58 l 649 58 q 644 53 649 54 q 638 51 644 51 q 632 54 635 51 q 629 61 629 54 q 632 69 629 67 q 638 74 633 74 q 640 73 639 74 q 643 72 642 72 l 644 72 q 649 65 649 68 l 642 65 l 642 67 q 640 68 640 67 q 638 69 640 69 l 636 67 q 635 65 636 65 q 633 63 633 65 q 635 59 633 60 q 636 57 636 58 q 638 56 636 56 q 640 54 638 54 l 642 57 l 642 58 m 660 74 q 669 69 665 74 q 672 65 671 67 q 674 61 674 64 q 672 58 674 58 q 669 54 671 57 q 665 52 667 53 q 660 51 664 51 l 658 51 q 656 53 657 51 q 651 57 651 53 l 651 63 l 651 67 q 656 72 651 72 q 658 73 658 72 q 660 74 658 74 m 665 57 q 667 61 667 58 q 665 67 667 65 l 660 67 l 658 67 q 656 61 656 65 q 658 57 656 58 l 660 54 q 664 56 663 54 q 665 57 665 56 m 688 63 l 696 51 l 689 51 l 685 58 l 681 51 l 674 51 l 681 63 l 674 72 l 681 72 l 685 67 l 688 72 l 696 72 l 688 63 m 711 72 l 717 72 l 710 53 l 707 49 l 707 47 l 706 44 l 703 44 q 701 43 703 43 q 697 44 699 43 l 697 49 l 699 47 l 701 47 l 701 49 q 703 50 701 49 l 703 51 l 696 72 l 701 72 l 706 57 l 711 72 m 718 57 l 721 57 l 721 51 l 718 51 l 718 57 m 740 58 l 746 58 q 744 56 746 57 q 743 53 743 54 q 736 51 743 51 q 731 54 733 51 q 725 61 725 54 q 731 69 725 64 q 736 74 732 74 q 739 73 738 74 q 742 72 740 72 l 743 72 q 746 65 743 69 l 740 65 l 740 67 q 739 68 739 67 q 736 69 739 69 l 735 67 q 732 63 732 65 q 735 57 732 58 l 736 54 q 740 57 739 54 l 740 58 m 758 74 q 767 69 764 74 q 769 65 768 67 q 771 61 771 64 q 769 58 771 58 q 767 54 768 57 q 758 51 764 51 q 754 53 757 51 q 750 57 750 53 q 749 63 749 57 l 749 64 q 750 67 749 65 q 754 72 750 72 l 756 72 q 757 73 757 72 q 758 74 757 74 m 764 57 q 765 61 765 58 q 764 67 765 65 l 758 67 l 757 67 q 754 61 754 65 q 757 57 754 58 l 758 54 q 763 56 761 54 q 764 57 764 56 m 804 69 l 804 65 l 804 51 l 797 51 l 797 63 l 797 67 l 797 68 l 796 69 l 794 69 q 793 67 793 69 l 792 67 q 790 65 790 67 l 790 61 l 790 51 l 786 51 l 786 63 l 786 67 q 785 69 786 68 l 783 69 l 782 69 l 782 67 l 781 67 q 779 65 779 67 l 779 61 l 779 51 l 772 51 l 772 72 l 779 72 l 779 69 q 786 74 783 74 q 789 72 788 74 l 790 69 q 792 72 790 72 l 793 72 q 797 74 796 74 q 800 73 800 74 q 801 72 800 72 l 804 69 z "},"8":{"ha":1413,"x_min":225,"x_max":1100,"o":"m 532 790 q 536 808 532 801 q 550 815 540 815 q 563 808 558 815 q 568 790 568 801 q 563 775 568 782 q 550 768 558 768 q 537 775 542 768 q 532 790 532 782 m 804 814 l 811 814 q 835 793 835 814 q 810 768 835 768 l 804 768 l 804 814 m 740 776 q 742 783 740 782 q 743 786 742 785 q 752 778 749 783 q 758 771 756 774 q 749 767 756 767 q 740 776 740 767 m 1100 867 l 1100 0 l 225 0 l 225 867 l 1100 867 m 474 831 l 1063 831 l 1063 840 l 474 840 l 474 831 m 1013 788 q 1013 800 1013 794 q 1011 813 1013 806 l 1013 813 q 1022 793 1017 803 l 1039 765 l 1047 765 l 1047 819 l 1042 819 l 1042 797 l 1042 772 q 1031 790 1038 783 l 1013 819 l 1004 819 l 1004 765 l 1013 765 l 1013 788 m 978 768 q 961 774 968 768 q 954 790 954 779 q 961 808 954 801 q 978 814 968 814 q 990 813 988 814 l 992 818 q 978 819 990 819 q 950 790 950 819 q 951 779 950 785 q 957 771 951 774 q 978 763 963 763 q 987 764 982 763 q 994 767 992 765 l 994 793 l 975 793 l 975 788 l 988 788 l 988 771 q 983 769 986 771 q 978 768 981 768 m 932 819 l 932 765 l 939 765 l 939 819 l 932 819 m 904 789 q 914 779 914 788 q 904 768 914 768 q 897 769 900 768 q 889 772 893 771 l 888 767 q 895 764 890 765 q 903 763 900 763 q 918 767 914 763 q 922 779 922 772 q 907 794 922 789 q 899 806 899 801 q 907 814 899 814 q 918 813 917 814 l 921 818 q 907 819 918 819 q 889 806 889 819 q 904 789 889 796 m 857 794 l 857 814 l 881 814 l 881 819 l 851 819 l 851 765 l 881 765 l 881 771 l 857 771 l 857 789 l 881 789 l 881 794 l 857 794 m 840 793 q 835 814 840 803 q 811 819 828 819 l 796 819 l 796 765 q 802 764 799 765 q 808 763 806 763 q 835 771 824 763 q 840 793 840 782 m 739 797 q 743 789 739 790 q 735 775 735 783 q 749 763 735 763 q 761 768 753 763 q 765 765 767 765 l 771 765 q 765 772 767 767 q 767 779 767 775 q 771 789 768 783 l 765 789 q 761 775 765 781 q 750 788 758 779 q 761 800 761 792 q 750 810 761 810 q 739 797 739 810 m 693 789 q 703 779 703 788 q 692 768 703 768 q 685 769 689 768 q 678 772 682 771 l 676 767 q 683 764 679 765 q 692 763 686 763 q 707 767 703 763 q 711 779 711 772 q 708 789 711 786 q 697 794 704 792 q 685 806 685 803 q 696 814 685 814 q 707 813 706 814 l 707 818 q 697 819 706 819 q 678 806 678 819 q 693 789 678 796 m 651 814 l 651 765 l 656 765 l 656 814 l 674 814 l 674 819 l 633 819 l 633 814 l 651 814 m 590 813 q 596 803 593 807 q 601 793 599 799 l 619 765 l 628 765 l 628 819 l 619 819 l 619 797 q 619 785 619 790 q 622 772 619 779 q 617 783 619 778 q 611 790 614 788 l 593 819 l 585 819 l 585 765 l 590 765 l 590 788 l 590 813 m 576 793 q 550 819 576 819 q 532 813 539 819 q 525 790 525 806 q 532 771 525 779 q 550 763 539 763 q 569 770 561 763 q 576 793 576 778 m 494 794 l 494 814 l 517 814 l 517 819 l 489 819 l 489 765 l 494 765 l 494 789 l 515 789 l 515 794 l 494 794 m 474 743 l 1063 743 l 1063 753 l 474 753 l 474 743 m 1044 632 q 1039 671 1044 653 q 1019 701 1033 689 q 954 728 994 728 q 885 701 910 728 q 861 629 861 669 q 888 557 861 586 q 953 529 913 529 q 1018 558 993 529 q 1044 632 1044 583 m 736 585 q 728 628 728 597 q 757 688 728 688 q 776 678 768 688 q 782 667 781 675 q 786 651 783 660 l 836 651 q 830 683 835 669 q 814 707 825 696 q 757 728 794 728 q 692 701 713 728 q 669 628 669 675 q 693 557 669 579 q 757 529 718 529 q 811 547 789 529 q 836 601 833 565 l 786 606 q 757 572 782 572 q 736 585 742 572 m 647 629 q 622 697 647 665 q 550 725 599 725 l 474 725 l 474 535 l 554 535 q 619 560 599 535 q 647 629 647 590 m 294 736 q 269 714 278 733 q 263 671 260 694 q 282 633 268 647 q 313 622 296 619 q 310 608 310 618 q 324 568 310 583 q 344 549 331 557 q 375 538 358 542 q 410 533 392 535 q 450 532 429 532 l 450 539 q 419 540 435 539 q 390 543 404 542 q 381 544 386 543 q 372 547 376 546 q 356 553 367 547 q 341 561 349 557 q 329 572 333 565 q 324 585 326 579 q 321 600 321 592 q 333 583 326 589 q 350 572 340 578 q 356 569 353 571 q 361 567 358 568 q 403 560 381 561 q 450 558 426 558 l 450 571 q 405 572 426 571 q 367 579 383 574 q 352 585 358 582 q 339 590 346 588 q 328 603 332 597 q 321 618 324 610 l 321 624 q 325 636 324 631 q 329 644 326 642 q 375 671 343 664 q 385 674 381 674 q 394 675 390 674 q 397 676 397 675 q 399 676 397 676 q 403 678 399 678 q 408 681 404 681 l 411 681 l 413 681 l 418 681 q 425 676 418 679 l 426 676 q 428 678 426 678 q 431 681 429 678 q 440 685 435 685 q 450 688 442 688 l 450 840 q 358 802 383 838 q 329 718 333 767 q 313 733 322 726 q 294 736 304 739 m 450 644 q 435 649 443 644 q 425 656 428 653 q 411 651 422 651 q 393 663 396 651 l 393 660 q 411 646 393 646 q 425 651 419 646 q 450 640 432 640 l 450 644 m 1063 514 l 263 514 l 263 32 l 1063 32 l 1063 514 m 754 800 q 749 790 754 794 q 744 794 746 793 q 743 800 743 796 q 750 806 743 806 q 754 800 754 806 m 550 685 q 576 669 567 685 q 586 629 586 650 q 576 590 586 607 q 550 575 564 575 l 532 575 l 532 685 l 550 685 m 922 628 q 954 688 922 688 q 983 633 983 688 q 982 604 983 617 q 975 585 981 592 q 953 571 971 571 q 922 628 922 571 m 307 632 q 290 639 299 629 q 278 656 281 649 q 271 695 268 676 q 288 721 274 714 q 309 720 301 726 q 325 703 317 714 q 325 678 329 700 q 313 676 317 678 q 324 671 319 676 q 313 672 318 674 q 306 669 308 671 q 311 665 307 667 q 319 660 315 664 q 306 658 308 660 q 310 656 308 657 q 314 654 313 656 l 317 651 q 307 632 313 635 m 397 693 q 372 706 381 696 q 367 717 364 717 q 422 718 407 739 q 418 704 422 715 q 399 693 414 693 l 397 693 m 310 331 q 321 330 317 331 q 328 328 325 329 q 333 314 333 319 q 332 307 333 310 q 328 300 331 304 q 320 297 325 299 q 310 296 315 296 l 307 296 l 307 276 l 294 276 l 294 329 q 310 331 299 331 m 310 306 q 321 313 321 306 q 310 321 321 321 l 307 321 l 307 306 l 310 306 m 353 321 l 353 308 l 372 308 l 372 300 l 353 300 l 353 286 l 375 286 l 375 276 l 342 276 l 342 331 l 375 331 l 375 321 l 353 321 m 421 314 q 413 303 421 307 q 419 292 417 297 q 422 276 422 281 l 411 276 q 410 281 411 278 q 407 290 408 283 q 399 299 407 299 l 394 299 l 394 276 l 382 276 l 382 329 q 390 331 385 331 q 399 331 394 331 q 410 330 406 331 q 418 328 414 329 q 421 314 421 322 m 400 307 q 408 314 408 307 q 400 321 408 321 l 394 321 l 394 307 l 400 307 m 444 286 q 451 292 451 286 q 444 299 451 294 q 429 314 429 306 q 450 331 429 331 q 457 330 454 331 q 463 329 460 329 l 460 319 q 456 320 458 319 q 450 321 453 321 q 442 317 442 321 q 451 308 442 310 q 464 292 464 304 q 460 281 464 286 q 444 276 456 276 q 426 281 432 276 l 431 290 q 444 286 435 286 m 469 303 q 496 331 469 331 q 515 324 510 331 q 521 306 521 317 q 496 276 521 276 q 469 303 469 276 m 510 306 q 506 316 510 311 q 496 321 503 321 q 483 303 483 321 q 496 286 483 286 q 510 306 510 286 m 550 299 q 546 306 549 301 q 542 317 543 311 l 539 317 q 542 305 542 310 q 542 292 542 300 l 542 276 l 529 276 l 529 331 l 543 331 l 557 310 q 564 292 558 306 l 564 314 l 564 331 l 575 331 l 575 276 l 561 276 l 550 299 m 597 331 l 614 331 l 629 276 l 618 276 l 614 290 l 597 290 l 593 276 l 582 276 l 597 331 m 600 300 l 611 300 l 607 310 q 606 316 607 313 q 606 321 606 319 q 604 310 604 319 l 600 300 m 651 331 l 651 286 l 671 286 l 671 276 l 638 276 l 638 331 l 651 331 m 706 331 l 706 300 q 717 286 706 286 q 725 300 725 286 l 725 331 l 739 331 l 739 300 q 717 276 739 276 q 693 300 693 276 l 693 331 l 706 331 m 764 286 q 771 292 771 286 q 761 299 771 294 q 746 314 746 306 q 767 331 746 331 q 774 330 771 331 q 782 329 778 329 l 779 319 q 774 320 776 319 q 767 321 771 321 q 758 317 758 321 q 768 308 758 311 q 783 292 783 304 q 778 281 783 286 q 761 276 772 276 q 746 281 750 276 l 749 290 q 764 286 754 286 m 804 321 l 804 308 l 824 308 l 824 300 l 804 300 l 804 286 l 826 286 l 826 276 l 790 276 l 790 331 l 824 331 l 824 321 l 804 321 m 847 303 q 874 331 847 331 q 892 324 885 331 q 900 306 900 317 q 892 283 900 290 q 874 276 885 276 q 847 303 847 276 m 885 306 q 882 316 885 311 q 874 321 879 321 q 861 303 861 321 q 874 286 861 286 q 885 306 885 286 m 926 299 q 923 306 925 301 q 918 317 921 311 l 918 292 l 918 276 l 906 276 l 906 331 l 921 331 l 932 310 q 937 302 935 307 q 940 292 939 297 l 940 314 l 940 331 l 950 331 l 950 276 l 939 276 l 926 299 m 972 331 l 972 286 l 996 286 l 996 276 l 961 276 l 961 331 l 972 331 m 1008 276 l 1008 299 l 990 331 l 1004 331 l 1011 317 q 1015 307 1014 308 q 1017 312 1017 310 q 1018 317 1017 314 l 1024 331 l 1038 331 l 1019 299 l 1019 276 l 1008 276 m 301 229 l 301 211 q 307 201 301 201 q 313 211 313 201 l 313 229 l 319 229 l 319 211 q 307 196 319 196 q 292 211 292 196 l 292 229 l 301 229 m 335 201 q 339 207 339 201 q 335 211 339 208 q 325 221 325 214 q 338 231 325 231 q 343 230 340 231 q 347 229 346 229 l 346 222 q 342 224 343 222 q 338 225 340 225 q 333 221 333 225 q 339 215 333 219 q 347 207 347 215 q 335 196 347 196 q 325 197 328 196 l 328 204 q 335 201 329 201 m 361 229 l 371 229 l 382 196 l 375 196 l 371 204 l 361 204 l 357 196 l 353 196 l 361 229 m 361 211 l 371 211 l 368 218 q 367 225 367 221 q 366 223 367 224 q 365 221 365 222 q 364 218 364 219 l 361 211 m 403 225 q 394 222 399 225 q 390 213 390 219 q 400 201 390 201 l 404 201 l 404 211 l 400 211 l 400 215 l 413 215 l 413 197 q 407 196 411 196 q 400 196 403 196 q 389 200 390 196 q 382 213 382 207 q 403 231 382 231 q 407 230 406 231 q 411 229 408 229 l 408 222 q 406 224 407 222 q 403 225 404 224 m 425 222 l 425 215 l 438 215 l 438 211 l 425 211 l 425 201 l 440 201 l 440 196 l 419 196 l 419 229 l 440 229 l 440 222 l 425 222 m 467 231 q 476 226 469 231 q 478 218 478 225 q 476 213 478 213 q 464 208 474 208 l 463 208 l 463 196 l 456 196 l 456 229 q 460 230 458 229 q 467 231 461 231 m 464 215 q 472 218 472 215 q 467 225 472 225 l 463 225 l 463 215 l 464 215 m 490 222 l 490 215 l 503 215 l 503 211 l 490 211 l 490 201 l 506 201 l 506 196 l 485 196 l 485 229 l 506 229 l 506 222 l 490 222 m 535 221 q 528 213 535 213 q 531 210 531 211 q 535 207 532 208 q 535 200 535 203 q 536 196 536 197 l 528 196 q 525 204 528 200 q 519 211 525 207 l 517 211 l 517 196 l 511 196 l 511 229 q 516 230 514 229 q 521 231 518 231 q 532 226 528 231 q 535 221 535 226 m 521 215 q 528 221 528 215 q 521 225 528 225 l 517 225 l 517 215 l 521 215 m 549 201 q 554 207 554 201 q 549 211 554 207 q 539 221 539 213 q 553 231 539 231 q 557 230 556 231 q 560 229 558 229 l 558 222 q 556 224 557 222 q 553 225 554 225 q 546 221 546 225 q 553 215 546 219 q 561 207 561 215 q 549 196 561 196 q 538 197 539 196 l 539 204 q 549 201 542 201 m 564 213 q 582 231 564 231 q 597 213 597 231 q 582 196 597 196 q 564 213 564 196 m 589 213 q 587 221 589 217 q 582 225 585 225 q 575 221 578 225 q 572 213 572 217 q 582 201 572 201 q 589 213 589 201 m 615 208 q 613 214 614 211 q 608 221 611 217 l 608 207 l 608 196 l 604 196 l 604 229 l 611 229 l 618 215 q 624 207 621 215 l 624 221 l 624 229 l 629 229 l 629 196 l 622 196 l 615 208 m 649 208 q 646 214 647 211 q 644 221 644 217 l 644 207 l 644 196 l 636 196 l 636 229 l 647 229 l 651 215 q 658 207 653 215 q 657 213 658 210 q 656 221 656 217 l 656 229 l 665 229 l 665 196 l 656 196 l 649 208 m 678 222 l 678 215 l 692 215 l 692 211 l 678 211 l 678 201 l 692 201 l 692 196 l 671 196 l 671 229 l 692 229 l 692 222 l 678 222 m 706 229 l 706 201 l 718 201 l 718 196 l 697 196 l 697 229 l 706 229 m 740 229 l 740 211 q 746 201 740 201 q 753 211 753 201 l 753 229 l 761 229 l 761 211 q 746 196 761 196 q 732 211 732 196 l 732 229 l 740 229 m 779 208 q 772 221 776 213 l 772 207 l 772 196 l 767 196 l 767 229 l 775 229 l 783 215 q 788 207 788 215 l 788 221 l 788 229 l 793 229 l 793 196 l 788 196 l 779 208 m 801 196 l 801 229 l 808 229 l 808 196 l 801 196 m 847 213 q 844 204 847 208 q 838 197 840 200 q 842 197 840 197 q 847 196 843 196 l 844 190 q 831 196 836 192 l 829 196 q 814 213 814 196 q 831 231 814 231 q 847 213 847 231 m 831 201 q 838 213 838 201 q 835 221 838 217 q 831 225 833 225 q 824 221 825 225 q 822 213 822 217 q 831 201 822 201 m 858 229 l 858 211 q 865 201 858 201 q 871 211 871 201 l 871 229 l 878 229 l 878 211 q 865 196 878 196 q 851 211 851 196 l 851 229 l 858 229 m 892 222 l 892 215 l 904 215 l 904 211 l 892 211 l 892 201 l 906 201 l 906 196 l 885 196 l 885 229 l 906 229 l 906 222 l 892 222 m 935 229 l 946 229 l 947 196 l 940 196 l 939 208 l 939 222 q 938 217 939 219 q 935 211 936 214 l 931 196 l 925 196 l 922 211 q 921 217 921 214 q 918 222 921 219 l 918 208 l 918 196 l 910 196 l 913 229 l 922 229 l 926 218 q 927 213 926 215 q 928 207 928 210 q 931 213 931 210 q 932 218 931 215 l 935 229 m 961 222 l 961 215 l 972 215 l 972 211 l 961 211 l 961 201 l 975 201 l 975 196 l 953 196 l 953 229 l 972 229 l 972 222 l 961 222 m 992 208 q 989 214 990 211 q 986 221 988 217 l 986 207 l 986 196 l 979 196 l 979 229 l 988 229 l 996 215 q 1000 207 1000 215 l 1000 221 l 1000 229 l 1008 229 l 1008 196 l 1000 196 l 992 208 m 1019 196 l 1019 222 l 1013 222 l 1013 229 l 1038 229 l 1038 222 l 1029 222 l 1029 196 l 1019 196 m 379 126 q 394 113 394 126 q 379 99 394 99 q 367 113 367 99 q 379 126 367 126 m 379 100 q 393 113 393 100 q 379 124 393 124 q 371 113 371 124 q 379 100 371 100 m 382 106 q 386 108 385 106 l 386 106 q 383 104 385 104 l 382 104 q 372 113 372 104 q 382 121 372 121 q 386 118 386 121 l 386 117 l 385 117 q 383 117 383 117 q 382 118 383 118 q 375 113 375 118 q 382 106 375 106 m 421 104 l 421 96 l 415 96 l 415 100 l 413 100 q 407 96 413 96 q 397 108 397 96 q 401 117 397 113 q 407 121 404 121 q 413 117 413 121 l 413 128 l 421 128 l 421 104 m 413 110 q 408 114 413 114 q 404 108 404 114 q 408 101 404 101 q 411 103 410 101 l 413 104 l 413 106 l 413 110 m 438 114 q 431 108 431 114 q 433 103 431 106 q 438 101 436 101 l 442 101 l 442 99 q 436 96 442 96 q 425 108 425 96 q 428 117 425 113 q 438 121 431 121 q 441 119 440 121 q 444 118 442 118 l 442 114 l 438 114 m 456 121 q 465 117 463 121 q 468 108 468 113 q 456 96 468 96 q 444 108 444 96 q 448 117 444 113 q 456 121 451 121 m 456 101 q 460 108 460 101 q 456 114 460 114 q 451 108 451 114 q 456 101 451 101 m 494 104 l 494 96 l 489 96 l 489 100 l 488 100 q 481 96 488 96 q 469 108 469 96 q 474 117 469 113 q 481 121 478 121 q 488 117 488 121 l 488 128 l 494 128 l 494 104 m 488 110 q 483 114 488 114 q 478 108 478 114 q 483 101 478 101 q 486 103 483 101 q 488 104 488 103 l 488 106 l 488 110 m 517 99 q 510 96 515 96 q 499 108 499 96 q 501 116 499 111 q 510 121 503 121 q 517 117 515 121 q 519 108 519 113 l 519 106 l 506 106 q 511 101 506 101 l 517 101 l 517 99 m 510 114 q 506 110 506 114 l 514 110 q 510 114 514 114 m 532 101 q 529 106 532 104 q 524 113 524 106 q 532 121 524 121 q 534 120 533 121 q 536 119 535 119 l 538 118 l 538 114 l 532 114 q 529 113 529 114 l 535 110 q 539 104 539 107 q 529 96 539 96 q 526 97 528 96 q 521 99 524 99 l 524 101 l 529 101 l 532 101 m 546 128 q 550 124 550 128 l 546 124 l 543 124 q 546 128 543 128 m 543 118 l 550 118 l 550 96 l 543 96 l 543 118 m 564 92 q 571 99 571 92 l 571 100 q 564 99 568 99 q 554 108 554 99 q 557 117 554 113 q 564 121 560 121 q 571 117 571 121 l 571 118 l 576 118 l 576 113 l 576 100 q 572 90 576 92 q 564 88 571 88 q 557 90 558 88 l 558 94 q 560 93 558 93 q 564 92 561 92 m 571 110 q 567 114 567 114 q 561 108 561 114 q 567 101 561 101 q 568 103 568 101 q 571 104 568 104 l 571 106 l 571 110 m 594 121 q 604 110 604 121 l 604 96 l 597 96 l 597 108 q 593 114 597 114 q 590 113 590 114 q 589 113 590 113 l 589 110 l 589 96 l 582 96 l 582 113 l 582 118 l 589 118 l 589 117 l 590 118 q 594 121 593 121 m 619 106 l 607 106 l 607 110 l 619 110 l 619 106 m 638 114 l 651 114 l 651 99 q 646 97 649 99 q 640 96 643 96 q 628 100 632 96 q 625 106 626 103 q 624 113 624 110 q 640 128 624 128 q 643 127 642 128 q 646 126 644 126 l 649 126 l 649 121 q 645 122 647 121 q 640 124 643 124 q 629 113 629 124 q 640 101 629 101 l 644 101 l 644 108 l 638 108 l 638 114 m 656 96 l 656 113 q 654 118 656 117 l 660 118 l 663 114 q 669 121 663 121 l 669 118 l 669 113 l 667 113 q 663 110 663 113 l 663 108 l 663 96 l 656 96 m 693 107 q 692 106 693 106 l 676 106 q 685 101 678 101 l 692 101 l 692 99 q 683 96 689 96 q 671 108 671 96 q 674 116 671 111 q 683 121 676 121 q 690 117 688 121 q 693 108 693 113 l 693 107 m 685 110 q 683 114 685 114 q 676 110 678 114 l 685 110 m 706 92 q 711 99 711 92 l 711 100 q 706 99 710 99 q 696 108 696 99 q 698 117 696 113 q 706 121 700 121 q 711 117 707 121 l 711 118 l 718 118 l 718 113 l 718 100 q 714 90 718 92 q 706 88 711 88 q 697 90 699 88 l 699 94 q 700 93 699 93 q 706 92 701 92 m 711 110 l 710 110 q 707 114 710 114 q 701 108 701 114 q 707 101 701 101 q 710 103 710 101 l 710 104 l 711 106 l 711 110 m 743 108 q 735 96 743 96 q 721 108 721 96 q 724 117 721 113 q 735 121 728 121 q 741 117 739 121 q 743 108 743 113 m 731 108 q 735 101 731 101 q 739 108 739 101 q 735 114 739 114 q 731 108 731 114 m 749 96 l 749 113 l 749 118 l 754 118 l 754 114 l 757 114 q 761 121 757 121 q 764 118 764 121 l 764 113 l 761 113 q 757 110 757 113 l 757 108 l 757 96 l 749 96 m 772 96 l 772 99 l 765 118 l 772 118 l 776 108 l 776 104 q 779 108 776 106 l 782 118 l 789 118 l 783 104 q 775 90 778 93 q 772 88 772 88 q 768 85 771 88 l 767 92 q 768 93 768 92 q 771 94 768 94 l 772 96 m 833 126 l 835 96 l 829 96 l 826 108 l 826 121 q 825 115 826 118 q 822 110 824 113 l 819 99 l 814 99 l 810 108 q 809 115 810 111 q 808 121 808 118 l 808 108 l 806 96 l 800 96 l 801 126 l 811 126 l 814 117 q 815 106 815 114 l 818 106 q 819 117 818 114 l 824 126 l 833 126 m 849 121 q 857 117 856 121 q 858 108 858 113 l 858 106 l 844 106 q 851 101 844 101 l 857 101 l 858 99 q 851 96 856 96 q 838 108 838 96 q 840 116 838 111 q 849 121 842 121 m 853 110 q 849 114 853 114 q 844 110 844 114 l 853 110 m 885 104 l 885 96 l 881 96 l 881 100 q 876 97 878 99 q 871 96 874 96 q 863 108 863 96 q 865 117 861 113 q 871 121 868 121 q 878 117 878 121 l 878 128 l 885 128 l 885 104 m 878 110 q 874 114 878 114 q 869 108 869 114 q 874 101 869 101 q 876 103 874 101 q 878 104 878 103 l 878 106 l 878 110 m 894 128 q 899 124 899 128 l 894 124 l 889 124 q 894 128 889 128 m 889 118 l 899 118 l 899 96 l 889 96 l 889 118 m 917 121 q 925 110 925 121 l 925 96 l 917 96 l 917 108 q 914 114 917 114 q 913 113 913 114 q 911 113 913 113 l 910 113 l 910 110 l 910 96 l 904 96 l 904 113 q 903 115 904 114 q 903 118 903 117 l 907 118 l 910 117 l 911 118 q 917 121 914 121 m 950 101 l 950 96 l 943 96 l 943 100 l 940 100 q 935 96 940 96 q 928 104 928 96 q 940 113 928 113 l 939 113 q 936 114 938 113 q 931 113 932 114 l 931 118 q 933 119 932 118 q 935 120 935 119 q 939 121 936 121 q 947 117 944 121 q 950 110 950 113 l 950 101 m 940 108 q 935 104 935 108 q 939 101 935 101 q 940 104 939 101 l 940 108 m 331 385 l 308 385 l 308 485 q 322 488 313 488 q 339 488 331 488 q 372 478 361 488 q 379 458 379 472 q 364 433 379 439 l 364 431 q 375 413 375 428 q 380 395 378 403 q 385 385 382 388 l 361 385 q 353 408 360 386 q 349 422 353 419 q 338 425 344 425 l 331 425 l 331 385 m 331 442 l 339 442 q 357 456 357 442 q 342 469 357 469 l 331 469 l 331 442 m 463 385 l 399 385 l 399 488 l 460 488 l 460 468 l 421 468 l 421 444 l 458 444 l 458 426 l 421 426 l 421 403 l 463 403 l 463 385 m 499 385 l 476 385 l 483 488 l 514 488 l 524 451 q 528 433 526 443 q 532 415 529 424 l 535 415 q 538 434 536 424 q 543 451 540 444 l 554 488 l 585 488 l 589 385 l 567 385 l 564 422 l 564 467 q 558 445 561 456 q 553 425 556 435 l 539 386 l 521 386 l 511 425 q 506 445 508 435 q 501 467 504 456 l 501 422 l 499 385 m 629 385 l 607 385 l 607 488 l 629 488 l 629 385 m 674 385 l 651 385 l 651 488 l 676 488 l 699 449 q 708 431 704 440 q 717 415 713 422 q 714 434 714 424 q 714 456 714 444 l 714 488 l 736 488 l 736 385 l 711 385 l 689 422 q 680 442 685 433 q 671 460 675 450 q 672 438 671 449 q 674 415 674 426 l 674 385 m 829 397 q 809 386 821 390 q 782 382 797 382 q 765 383 771 382 q 754 385 760 385 l 754 485 q 769 488 761 488 q 788 488 778 488 q 829 476 814 488 q 842 460 836 469 q 847 438 847 451 q 842 413 847 424 q 829 397 836 403 m 779 400 l 788 400 q 822 438 822 400 q 789 469 822 469 q 783 469 785 469 q 779 468 782 468 l 779 400 m 926 385 l 861 385 l 861 488 l 925 488 l 925 468 l 883 468 l 883 444 l 922 444 l 922 426 l 883 426 l 883 403 l 926 403 l 926 385 m 965 385 l 943 385 l 943 485 q 956 488 949 488 q 972 488 964 488 q 1006 478 994 488 q 1017 458 1017 471 q 1010 442 1017 447 q 997 433 1004 436 l 997 431 q 1011 413 1007 429 q 1015 395 1014 403 q 1018 385 1017 388 l 996 385 q 988 408 994 386 q 983 422 986 419 q 972 425 979 425 l 965 425 l 965 385 m 965 442 l 972 442 q 992 456 992 442 q 975 469 992 469 l 965 469 l 965 442 m 1039 353 l 290 353 l 290 361 l 1039 361 l 1039 353 m 1039 244 l 290 244 l 290 254 l 1039 254 l 1039 244 m 1039 169 l 290 169 l 290 178 l 1039 178 l 1039 169 m 528 72 l 532 72 l 525 51 l 521 51 l 517 65 l 514 51 l 510 51 l 501 72 l 507 72 l 511 58 l 515 72 l 519 72 l 524 58 l 528 72 m 558 72 l 561 72 l 557 51 l 553 51 l 549 65 l 543 51 l 539 51 l 532 72 l 538 72 l 542 58 l 546 72 l 550 72 l 554 58 l 558 72 m 589 72 l 593 72 l 586 51 l 582 51 l 579 65 l 575 51 l 571 51 l 561 72 l 568 72 l 572 58 l 576 72 l 582 72 l 585 58 l 589 72 m 594 57 l 601 57 l 601 51 l 594 51 l 594 57 m 619 79 l 626 79 l 626 51 l 619 51 l 619 54 q 618 53 619 53 q 614 51 615 51 q 607 54 610 51 q 606 61 606 57 q 607 69 606 67 q 614 74 608 74 q 619 69 617 74 l 619 79 m 618 57 q 619 61 619 58 q 618 67 619 65 l 615 69 q 614 68 614 69 q 611 67 614 67 l 611 63 l 611 57 q 613 56 611 56 q 615 54 614 54 l 618 57 m 642 58 l 649 58 q 644 53 649 54 q 638 51 644 51 q 632 54 635 51 q 629 61 629 54 q 632 69 629 67 q 638 74 633 74 q 640 73 639 74 q 643 72 642 72 l 644 72 q 649 65 649 68 l 642 65 l 642 67 q 640 68 640 67 q 638 69 640 69 l 636 67 q 635 65 636 65 q 633 63 633 65 q 635 59 633 60 q 636 57 636 58 q 638 56 636 56 q 640 54 638 54 l 642 57 l 642 58 m 660 74 q 669 69 665 74 q 672 65 671 67 q 674 61 674 64 q 672 58 674 58 q 669 54 671 57 q 665 52 667 53 q 660 51 664 51 l 658 51 q 656 53 657 51 q 651 57 651 53 l 651 63 l 651 67 q 656 72 651 72 q 658 73 658 72 q 660 74 658 74 m 665 57 q 667 61 667 58 q 665 67 667 65 l 660 67 l 658 67 q 656 61 656 65 q 658 57 656 58 l 660 54 q 664 56 663 54 q 665 57 665 56 m 688 63 l 696 51 l 689 51 l 685 58 l 681 51 l 674 51 l 681 63 l 674 72 l 681 72 l 685 67 l 688 72 l 696 72 l 688 63 m 711 72 l 717 72 l 710 53 l 707 49 l 707 47 l 706 44 l 703 44 q 701 43 703 43 q 697 44 699 43 l 697 49 l 699 47 l 701 47 l 701 49 q 703 50 701 49 l 703 51 l 696 72 l 701 72 l 706 57 l 711 72 m 718 57 l 721 57 l 721 51 l 718 51 l 718 57 m 740 58 l 746 58 q 744 56 746 57 q 743 53 743 54 q 736 51 743 51 q 731 54 733 51 q 725 61 725 54 q 731 69 725 64 q 736 74 732 74 q 739 73 738 74 q 742 72 740 72 l 743 72 q 746 65 743 69 l 740 65 l 740 67 q 739 68 739 67 q 736 69 739 69 l 735 67 q 732 63 732 65 q 735 57 732 58 l 736 54 q 740 57 739 54 l 740 58 m 758 74 q 767 69 764 74 q 769 65 768 67 q 771 61 771 64 q 769 58 771 58 q 767 54 768 57 q 758 51 764 51 q 754 53 757 51 q 750 57 750 53 q 749 63 749 57 l 749 64 q 750 67 749 65 q 754 72 750 72 l 756 72 q 757 73 757 72 q 758 74 757 74 m 764 57 q 765 61 765 58 q 764 67 765 65 l 758 67 l 757 67 q 754 61 754 65 q 757 57 754 58 l 758 54 q 763 56 761 54 q 764 57 764 56 m 804 69 l 804 65 l 804 51 l 797 51 l 797 63 l 797 67 l 797 68 l 796 69 l 794 69 q 793 67 793 69 l 792 67 q 790 65 790 67 l 790 61 l 790 51 l 786 51 l 786 63 l 786 67 q 785 69 786 68 l 783 69 l 782 69 l 782 67 l 781 67 q 779 65 779 67 l 779 61 l 779 51 l 772 51 l 772 72 l 779 72 l 779 69 q 786 74 783 74 q 789 72 788 74 l 790 69 q 792 72 790 72 l 793 72 q 797 74 796 74 q 800 73 800 74 q 801 72 800 72 l 804 69 z "},"9":{"ha":1413,"x_min":225,"x_max":1100,"o":"m 532 790 q 536 808 532 801 q 550 815 540 815 q 563 808 558 815 q 568 790 568 801 q 563 775 568 782 q 550 768 558 768 q 537 775 542 768 q 532 790 532 782 m 804 814 l 811 814 q 835 793 835 814 q 810 768 835 768 l 804 768 l 804 814 m 740 776 q 742 783 740 782 q 743 786 742 785 q 752 778 749 783 q 758 771 756 774 q 749 767 756 767 q 740 776 740 767 m 1100 867 l 1100 0 l 225 0 l 225 867 l 1100 867 m 474 831 l 1063 831 l 1063 840 l 474 840 l 474 831 m 1013 788 q 1013 800 1013 794 q 1011 813 1013 806 l 1013 813 q 1022 793 1017 803 l 1039 765 l 1047 765 l 1047 819 l 1042 819 l 1042 797 l 1042 772 q 1031 790 1038 783 l 1013 819 l 1004 819 l 1004 765 l 1013 765 l 1013 788 m 978 768 q 961 774 968 768 q 954 790 954 779 q 961 808 954 801 q 978 814 968 814 q 990 813 988 814 l 992 818 q 978 819 990 819 q 950 790 950 819 q 951 779 950 785 q 957 771 951 774 q 978 763 963 763 q 987 764 982 763 q 994 767 992 765 l 994 793 l 975 793 l 975 788 l 988 788 l 988 771 q 983 769 986 771 q 978 768 981 768 m 932 819 l 932 765 l 939 765 l 939 819 l 932 819 m 904 789 q 914 779 914 788 q 904 768 914 768 q 897 769 900 768 q 889 772 893 771 l 888 767 q 895 764 890 765 q 903 763 900 763 q 918 767 914 763 q 922 779 922 772 q 907 794 922 789 q 899 806 899 801 q 907 814 899 814 q 918 813 917 814 l 921 818 q 907 819 918 819 q 889 806 889 819 q 904 789 889 796 m 857 794 l 857 814 l 881 814 l 881 819 l 851 819 l 851 765 l 881 765 l 881 771 l 857 771 l 857 789 l 881 789 l 881 794 l 857 794 m 840 793 q 835 814 840 803 q 811 819 828 819 l 796 819 l 796 765 q 802 764 799 765 q 808 763 806 763 q 835 771 824 763 q 840 793 840 782 m 739 797 q 743 789 739 790 q 735 775 735 783 q 749 763 735 763 q 761 768 753 763 q 765 765 767 765 l 771 765 q 765 772 767 767 q 767 779 767 775 q 771 789 768 783 l 765 789 q 761 775 765 781 q 750 788 758 779 q 761 800 761 792 q 750 810 761 810 q 739 797 739 810 m 693 789 q 703 779 703 788 q 692 768 703 768 q 685 769 689 768 q 678 772 682 771 l 676 767 q 683 764 679 765 q 692 763 686 763 q 707 767 703 763 q 711 779 711 772 q 708 789 711 786 q 697 794 704 792 q 685 806 685 803 q 696 814 685 814 q 707 813 706 814 l 707 818 q 697 819 706 819 q 678 806 678 819 q 693 789 678 796 m 651 814 l 651 765 l 656 765 l 656 814 l 674 814 l 674 819 l 633 819 l 633 814 l 651 814 m 590 813 q 596 803 593 807 q 601 793 599 799 l 619 765 l 628 765 l 628 819 l 619 819 l 619 797 q 619 785 619 790 q 622 772 619 779 q 617 783 619 778 q 611 790 614 788 l 593 819 l 585 819 l 585 765 l 590 765 l 590 788 l 590 813 m 576 793 q 550 819 576 819 q 532 813 539 819 q 525 790 525 806 q 532 771 525 779 q 550 763 539 763 q 569 770 561 763 q 576 793 576 778 m 494 794 l 494 814 l 517 814 l 517 819 l 489 819 l 489 765 l 494 765 l 494 789 l 515 789 l 515 794 l 494 794 m 474 743 l 1063 743 l 1063 753 l 474 753 l 474 743 m 1044 632 q 1039 671 1044 653 q 1019 701 1033 689 q 954 728 994 728 q 885 701 910 728 q 861 629 861 669 q 888 557 861 586 q 953 529 913 529 q 1018 558 993 529 q 1044 632 1044 583 m 736 585 q 728 628 728 597 q 757 688 728 688 q 776 678 768 688 q 782 667 781 675 q 786 651 783 660 l 836 651 q 830 683 835 669 q 814 707 825 696 q 757 728 794 728 q 692 701 713 728 q 669 628 669 675 q 693 557 669 579 q 757 529 718 529 q 811 547 789 529 q 836 601 833 565 l 786 606 q 757 572 782 572 q 736 585 742 572 m 647 629 q 622 697 647 665 q 550 725 599 725 l 474 725 l 474 535 l 554 535 q 619 560 599 535 q 647 629 647 590 m 294 736 q 269 714 278 733 q 263 671 260 694 q 282 633 268 647 q 313 622 296 619 q 310 608 310 618 q 324 568 310 583 q 344 549 331 557 q 375 538 358 542 q 410 533 392 535 q 450 532 429 532 l 450 539 q 419 540 435 539 q 390 543 404 542 q 381 544 386 543 q 372 547 376 546 q 356 553 367 547 q 341 561 349 557 q 329 572 333 565 q 324 585 326 579 q 321 600 321 592 q 333 583 326 589 q 350 572 340 578 q 356 569 353 571 q 361 567 358 568 q 403 560 381 561 q 450 558 426 558 l 450 571 q 405 572 426 571 q 367 579 383 574 q 352 585 358 582 q 339 590 346 588 q 328 603 332 597 q 321 618 324 610 l 321 624 q 325 636 324 631 q 329 644 326 642 q 375 671 343 664 q 385 674 381 674 q 394 675 390 674 q 397 676 397 675 q 399 676 397 676 q 403 678 399 678 q 408 681 404 681 l 411 681 l 413 681 l 418 681 q 425 676 418 679 l 426 676 q 428 678 426 678 q 431 681 429 678 q 440 685 435 685 q 450 688 442 688 l 450 840 q 358 802 383 838 q 329 718 333 767 q 313 733 322 726 q 294 736 304 739 m 450 644 q 435 649 443 644 q 425 656 428 653 q 411 651 422 651 q 393 663 396 651 l 393 660 q 411 646 393 646 q 425 651 419 646 q 450 640 432 640 l 450 644 m 1063 514 l 263 514 l 263 32 l 1063 32 l 1063 514 m 754 800 q 749 790 754 794 q 744 794 746 793 q 743 800 743 796 q 750 806 743 806 q 754 800 754 806 m 550 685 q 576 669 567 685 q 586 629 586 650 q 576 590 586 607 q 550 575 564 575 l 532 575 l 532 685 l 550 685 m 922 628 q 954 688 922 688 q 983 633 983 688 q 982 604 983 617 q 975 585 981 592 q 953 571 971 571 q 922 628 922 571 m 307 632 q 290 639 299 629 q 278 656 281 649 q 271 695 268 676 q 288 721 274 714 q 309 720 301 726 q 325 703 317 714 q 325 678 329 700 q 313 676 317 678 q 324 671 319 676 q 313 672 318 674 q 306 669 308 671 q 311 665 307 667 q 319 660 315 664 q 306 658 308 660 q 310 656 308 657 q 314 654 313 656 l 317 651 q 307 632 313 635 m 397 693 q 372 706 381 696 q 367 717 364 717 q 422 718 407 739 q 418 704 422 715 q 399 693 414 693 l 397 693 m 310 331 q 321 330 317 331 q 328 328 325 329 q 333 314 333 319 q 332 307 333 310 q 328 300 331 304 q 320 297 325 299 q 310 296 315 296 l 307 296 l 307 276 l 294 276 l 294 329 q 310 331 299 331 m 310 306 q 321 313 321 306 q 310 321 321 321 l 307 321 l 307 306 l 310 306 m 353 321 l 353 308 l 372 308 l 372 300 l 353 300 l 353 286 l 375 286 l 375 276 l 342 276 l 342 331 l 375 331 l 375 321 l 353 321 m 421 314 q 413 303 421 307 q 419 292 417 297 q 422 276 422 281 l 411 276 q 410 281 411 278 q 407 290 408 283 q 399 299 407 299 l 394 299 l 394 276 l 382 276 l 382 329 q 390 331 385 331 q 399 331 394 331 q 410 330 406 331 q 418 328 414 329 q 421 314 421 322 m 400 307 q 408 314 408 307 q 400 321 408 321 l 394 321 l 394 307 l 400 307 m 444 286 q 451 292 451 286 q 444 299 451 294 q 429 314 429 306 q 450 331 429 331 q 457 330 454 331 q 463 329 460 329 l 460 319 q 456 320 458 319 q 450 321 453 321 q 442 317 442 321 q 451 308 442 310 q 464 292 464 304 q 460 281 464 286 q 444 276 456 276 q 426 281 432 276 l 431 290 q 444 286 435 286 m 469 303 q 496 331 469 331 q 515 324 510 331 q 521 306 521 317 q 496 276 521 276 q 469 303 469 276 m 510 306 q 506 316 510 311 q 496 321 503 321 q 483 303 483 321 q 496 286 483 286 q 510 306 510 286 m 550 299 q 546 306 549 301 q 542 317 543 311 l 539 317 q 542 305 542 310 q 542 292 542 300 l 542 276 l 529 276 l 529 331 l 543 331 l 557 310 q 564 292 558 306 l 564 314 l 564 331 l 575 331 l 575 276 l 561 276 l 550 299 m 597 331 l 614 331 l 629 276 l 618 276 l 614 290 l 597 290 l 593 276 l 582 276 l 597 331 m 600 300 l 611 300 l 607 310 q 606 316 607 313 q 606 321 606 319 q 604 310 604 319 l 600 300 m 651 331 l 651 286 l 671 286 l 671 276 l 638 276 l 638 331 l 651 331 m 706 331 l 706 300 q 717 286 706 286 q 725 300 725 286 l 725 331 l 739 331 l 739 300 q 717 276 739 276 q 693 300 693 276 l 693 331 l 706 331 m 764 286 q 771 292 771 286 q 761 299 771 294 q 746 314 746 306 q 767 331 746 331 q 774 330 771 331 q 782 329 778 329 l 779 319 q 774 320 776 319 q 767 321 771 321 q 758 317 758 321 q 768 308 758 311 q 783 292 783 304 q 778 281 783 286 q 761 276 772 276 q 746 281 750 276 l 749 290 q 764 286 754 286 m 804 321 l 804 308 l 824 308 l 824 300 l 804 300 l 804 286 l 826 286 l 826 276 l 790 276 l 790 331 l 824 331 l 824 321 l 804 321 m 847 303 q 874 331 847 331 q 892 324 885 331 q 900 306 900 317 q 892 283 900 290 q 874 276 885 276 q 847 303 847 276 m 885 306 q 882 316 885 311 q 874 321 879 321 q 861 303 861 321 q 874 286 861 286 q 885 306 885 286 m 926 299 q 923 306 925 301 q 918 317 921 311 l 918 292 l 918 276 l 906 276 l 906 331 l 921 331 l 932 310 q 937 302 935 307 q 940 292 939 297 l 940 314 l 940 331 l 950 331 l 950 276 l 939 276 l 926 299 m 972 331 l 972 286 l 996 286 l 996 276 l 961 276 l 961 331 l 972 331 m 1008 276 l 1008 299 l 990 331 l 1004 331 l 1011 317 q 1015 307 1014 308 q 1017 312 1017 310 q 1018 317 1017 314 l 1024 331 l 1038 331 l 1019 299 l 1019 276 l 1008 276 m 301 229 l 301 211 q 307 201 301 201 q 313 211 313 201 l 313 229 l 319 229 l 319 211 q 307 196 319 196 q 292 211 292 196 l 292 229 l 301 229 m 335 201 q 339 207 339 201 q 335 211 339 208 q 325 221 325 214 q 338 231 325 231 q 343 230 340 231 q 347 229 346 229 l 346 222 q 342 224 343 222 q 338 225 340 225 q 333 221 333 225 q 339 215 333 219 q 347 207 347 215 q 335 196 347 196 q 325 197 328 196 l 328 204 q 335 201 329 201 m 361 229 l 371 229 l 382 196 l 375 196 l 371 204 l 361 204 l 357 196 l 353 196 l 361 229 m 361 211 l 371 211 l 368 218 q 367 225 367 221 q 366 223 367 224 q 365 221 365 222 q 364 218 364 219 l 361 211 m 403 225 q 394 222 399 225 q 390 213 390 219 q 400 201 390 201 l 404 201 l 404 211 l 400 211 l 400 215 l 413 215 l 413 197 q 407 196 411 196 q 400 196 403 196 q 389 200 390 196 q 382 213 382 207 q 403 231 382 231 q 407 230 406 231 q 411 229 408 229 l 408 222 q 406 224 407 222 q 403 225 404 224 m 425 222 l 425 215 l 438 215 l 438 211 l 425 211 l 425 201 l 440 201 l 440 196 l 419 196 l 419 229 l 440 229 l 440 222 l 425 222 m 467 231 q 476 226 469 231 q 478 218 478 225 q 476 213 478 213 q 464 208 474 208 l 463 208 l 463 196 l 456 196 l 456 229 q 460 230 458 229 q 467 231 461 231 m 464 215 q 472 218 472 215 q 467 225 472 225 l 463 225 l 463 215 l 464 215 m 490 222 l 490 215 l 503 215 l 503 211 l 490 211 l 490 201 l 506 201 l 506 196 l 485 196 l 485 229 l 506 229 l 506 222 l 490 222 m 535 221 q 528 213 535 213 q 531 210 531 211 q 535 207 532 208 q 535 200 535 203 q 536 196 536 197 l 528 196 q 525 204 528 200 q 519 211 525 207 l 517 211 l 517 196 l 511 196 l 511 229 q 516 230 514 229 q 521 231 518 231 q 532 226 528 231 q 535 221 535 226 m 521 215 q 528 221 528 215 q 521 225 528 225 l 517 225 l 517 215 l 521 215 m 549 201 q 554 207 554 201 q 549 211 554 207 q 539 221 539 213 q 553 231 539 231 q 557 230 556 231 q 560 229 558 229 l 558 222 q 556 224 557 222 q 553 225 554 225 q 546 221 546 225 q 553 215 546 219 q 561 207 561 215 q 549 196 561 196 q 538 197 539 196 l 539 204 q 549 201 542 201 m 564 213 q 582 231 564 231 q 597 213 597 231 q 582 196 597 196 q 564 213 564 196 m 589 213 q 587 221 589 217 q 582 225 585 225 q 575 221 578 225 q 572 213 572 217 q 582 201 572 201 q 589 213 589 201 m 615 208 q 613 214 614 211 q 608 221 611 217 l 608 207 l 608 196 l 604 196 l 604 229 l 611 229 l 618 215 q 624 207 621 215 l 624 221 l 624 229 l 629 229 l 629 196 l 622 196 l 615 208 m 649 208 q 646 214 647 211 q 644 221 644 217 l 644 207 l 644 196 l 636 196 l 636 229 l 647 229 l 651 215 q 658 207 653 215 q 657 213 658 210 q 656 221 656 217 l 656 229 l 665 229 l 665 196 l 656 196 l 649 208 m 678 222 l 678 215 l 692 215 l 692 211 l 678 211 l 678 201 l 692 201 l 692 196 l 671 196 l 671 229 l 692 229 l 692 222 l 678 222 m 706 229 l 706 201 l 718 201 l 718 196 l 697 196 l 697 229 l 706 229 m 740 229 l 740 211 q 746 201 740 201 q 753 211 753 201 l 753 229 l 761 229 l 761 211 q 746 196 761 196 q 732 211 732 196 l 732 229 l 740 229 m 779 208 q 772 221 776 213 l 772 207 l 772 196 l 767 196 l 767 229 l 775 229 l 783 215 q 788 207 788 215 l 788 221 l 788 229 l 793 229 l 793 196 l 788 196 l 779 208 m 801 196 l 801 229 l 808 229 l 808 196 l 801 196 m 847 213 q 844 204 847 208 q 838 197 840 200 q 842 197 840 197 q 847 196 843 196 l 844 190 q 831 196 836 192 l 829 196 q 814 213 814 196 q 831 231 814 231 q 847 213 847 231 m 831 201 q 838 213 838 201 q 835 221 838 217 q 831 225 833 225 q 824 221 825 225 q 822 213 822 217 q 831 201 822 201 m 858 229 l 858 211 q 865 201 858 201 q 871 211 871 201 l 871 229 l 878 229 l 878 211 q 865 196 878 196 q 851 211 851 196 l 851 229 l 858 229 m 892 222 l 892 215 l 904 215 l 904 211 l 892 211 l 892 201 l 906 201 l 906 196 l 885 196 l 885 229 l 906 229 l 906 222 l 892 222 m 935 229 l 946 229 l 947 196 l 940 196 l 939 208 l 939 222 q 938 217 939 219 q 935 211 936 214 l 931 196 l 925 196 l 922 211 q 921 217 921 214 q 918 222 921 219 l 918 208 l 918 196 l 910 196 l 913 229 l 922 229 l 926 218 q 927 213 926 215 q 928 207 928 210 q 931 213 931 210 q 932 218 931 215 l 935 229 m 961 222 l 961 215 l 972 215 l 972 211 l 961 211 l 961 201 l 975 201 l 975 196 l 953 196 l 953 229 l 972 229 l 972 222 l 961 222 m 992 208 q 989 214 990 211 q 986 221 988 217 l 986 207 l 986 196 l 979 196 l 979 229 l 988 229 l 996 215 q 1000 207 1000 215 l 1000 221 l 1000 229 l 1008 229 l 1008 196 l 1000 196 l 992 208 m 1019 196 l 1019 222 l 1013 222 l 1013 229 l 1038 229 l 1038 222 l 1029 222 l 1029 196 l 1019 196 m 379 126 q 394 113 394 126 q 379 99 394 99 q 367 113 367 99 q 379 126 367 126 m 379 100 q 393 113 393 100 q 379 124 393 124 q 371 113 371 124 q 379 100 371 100 m 382 106 q 386 108 385 106 l 386 106 q 383 104 385 104 l 382 104 q 372 113 372 104 q 382 121 372 121 q 386 118 386 121 l 386 117 l 385 117 q 383 117 383 117 q 382 118 383 118 q 375 113 375 118 q 382 106 375 106 m 421 104 l 421 96 l 415 96 l 415 100 l 413 100 q 407 96 413 96 q 397 108 397 96 q 401 117 397 113 q 407 121 404 121 q 413 117 413 121 l 413 128 l 421 128 l 421 104 m 413 110 q 408 114 413 114 q 404 108 404 114 q 408 101 404 101 q 411 103 410 101 l 413 104 l 413 106 l 413 110 m 438 114 q 431 108 431 114 q 433 103 431 106 q 438 101 436 101 l 442 101 l 442 99 q 436 96 442 96 q 425 108 425 96 q 428 117 425 113 q 438 121 431 121 q 441 119 440 121 q 444 118 442 118 l 442 114 l 438 114 m 456 121 q 465 117 463 121 q 468 108 468 113 q 456 96 468 96 q 444 108 444 96 q 448 117 444 113 q 456 121 451 121 m 456 101 q 460 108 460 101 q 456 114 460 114 q 451 108 451 114 q 456 101 451 101 m 494 104 l 494 96 l 489 96 l 489 100 l 488 100 q 481 96 488 96 q 469 108 469 96 q 474 117 469 113 q 481 121 478 121 q 488 117 488 121 l 488 128 l 494 128 l 494 104 m 488 110 q 483 114 488 114 q 478 108 478 114 q 483 101 478 101 q 486 103 483 101 q 488 104 488 103 l 488 106 l 488 110 m 517 99 q 510 96 515 96 q 499 108 499 96 q 501 116 499 111 q 510 121 503 121 q 517 117 515 121 q 519 108 519 113 l 519 106 l 506 106 q 511 101 506 101 l 517 101 l 517 99 m 510 114 q 506 110 506 114 l 514 110 q 510 114 514 114 m 532 101 q 529 106 532 104 q 524 113 524 106 q 532 121 524 121 q 534 120 533 121 q 536 119 535 119 l 538 118 l 538 114 l 532 114 q 529 113 529 114 l 535 110 q 539 104 539 107 q 529 96 539 96 q 526 97 528 96 q 521 99 524 99 l 524 101 l 529 101 l 532 101 m 546 128 q 550 124 550 128 l 546 124 l 543 124 q 546 128 543 128 m 543 118 l 550 118 l 550 96 l 543 96 l 543 118 m 564 92 q 571 99 571 92 l 571 100 q 564 99 568 99 q 554 108 554 99 q 557 117 554 113 q 564 121 560 121 q 571 117 571 121 l 571 118 l 576 118 l 576 113 l 576 100 q 572 90 576 92 q 564 88 571 88 q 557 90 558 88 l 558 94 q 560 93 558 93 q 564 92 561 92 m 571 110 q 567 114 567 114 q 561 108 561 114 q 567 101 561 101 q 568 103 568 101 q 571 104 568 104 l 571 106 l 571 110 m 594 121 q 604 110 604 121 l 604 96 l 597 96 l 597 108 q 593 114 597 114 q 590 113 590 114 q 589 113 590 113 l 589 110 l 589 96 l 582 96 l 582 113 l 582 118 l 589 118 l 589 117 l 590 118 q 594 121 593 121 m 619 106 l 607 106 l 607 110 l 619 110 l 619 106 m 638 114 l 651 114 l 651 99 q 646 97 649 99 q 640 96 643 96 q 628 100 632 96 q 625 106 626 103 q 624 113 624 110 q 640 128 624 128 q 643 127 642 128 q 646 126 644 126 l 649 126 l 649 121 q 645 122 647 121 q 640 124 643 124 q 629 113 629 124 q 640 101 629 101 l 644 101 l 644 108 l 638 108 l 638 114 m 656 96 l 656 113 q 654 118 656 117 l 660 118 l 663 114 q 669 121 663 121 l 669 118 l 669 113 l 667 113 q 663 110 663 113 l 663 108 l 663 96 l 656 96 m 693 107 q 692 106 693 106 l 676 106 q 685 101 678 101 l 692 101 l 692 99 q 683 96 689 96 q 671 108 671 96 q 674 116 671 111 q 683 121 676 121 q 690 117 688 121 q 693 108 693 113 l 693 107 m 685 110 q 683 114 685 114 q 676 110 678 114 l 685 110 m 706 92 q 711 99 711 92 l 711 100 q 706 99 710 99 q 696 108 696 99 q 698 117 696 113 q 706 121 700 121 q 711 117 707 121 l 711 118 l 718 118 l 718 113 l 718 100 q 714 90 718 92 q 706 88 711 88 q 697 90 699 88 l 699 94 q 700 93 699 93 q 706 92 701 92 m 711 110 l 710 110 q 707 114 710 114 q 701 108 701 114 q 707 101 701 101 q 710 103 710 101 l 710 104 l 711 106 l 711 110 m 743 108 q 735 96 743 96 q 721 108 721 96 q 724 117 721 113 q 735 121 728 121 q 741 117 739 121 q 743 108 743 113 m 731 108 q 735 101 731 101 q 739 108 739 101 q 735 114 739 114 q 731 108 731 114 m 749 96 l 749 113 l 749 118 l 754 118 l 754 114 l 757 114 q 761 121 757 121 q 764 118 764 121 l 764 113 l 761 113 q 757 110 757 113 l 757 108 l 757 96 l 749 96 m 772 96 l 772 99 l 765 118 l 772 118 l 776 108 l 776 104 q 779 108 776 106 l 782 118 l 789 118 l 783 104 q 775 90 778 93 q 772 88 772 88 q 768 85 771 88 l 767 92 q 768 93 768 92 q 771 94 768 94 l 772 96 m 833 126 l 835 96 l 829 96 l 826 108 l 826 121 q 825 115 826 118 q 822 110 824 113 l 819 99 l 814 99 l 810 108 q 809 115 810 111 q 808 121 808 118 l 808 108 l 806 96 l 800 96 l 801 126 l 811 126 l 814 117 q 815 106 815 114 l 818 106 q 819 117 818 114 l 824 126 l 833 126 m 849 121 q 857 117 856 121 q 858 108 858 113 l 858 106 l 844 106 q 851 101 844 101 l 857 101 l 858 99 q 851 96 856 96 q 838 108 838 96 q 840 116 838 111 q 849 121 842 121 m 853 110 q 849 114 853 114 q 844 110 844 114 l 853 110 m 885 104 l 885 96 l 881 96 l 881 100 q 876 97 878 99 q 871 96 874 96 q 863 108 863 96 q 865 117 861 113 q 871 121 868 121 q 878 117 878 121 l 878 128 l 885 128 l 885 104 m 878 110 q 874 114 878 114 q 869 108 869 114 q 874 101 869 101 q 876 103 874 101 q 878 104 878 103 l 878 106 l 878 110 m 894 128 q 899 124 899 128 l 894 124 l 889 124 q 894 128 889 128 m 889 118 l 899 118 l 899 96 l 889 96 l 889 118 m 917 121 q 925 110 925 121 l 925 96 l 917 96 l 917 108 q 914 114 917 114 q 913 113 913 114 q 911 113 913 113 l 910 113 l 910 110 l 910 96 l 904 96 l 904 113 q 903 115 904 114 q 903 118 903 117 l 907 118 l 910 117 l 911 118 q 917 121 914 121 m 950 101 l 950 96 l 943 96 l 943 100 l 940 100 q 935 96 940 96 q 928 104 928 96 q 940 113 928 113 l 939 113 q 936 114 938 113 q 931 113 932 114 l 931 118 q 933 119 932 118 q 935 120 935 119 q 939 121 936 121 q 947 117 944 121 q 950 110 950 113 l 950 101 m 940 108 q 935 104 935 108 q 939 101 935 101 q 940 104 939 101 l 940 108 m 331 385 l 308 385 l 308 485 q 322 488 313 488 q 339 488 331 488 q 372 478 361 488 q 379 458 379 472 q 364 433 379 439 l 364 431 q 375 413 375 428 q 380 395 378 403 q 385 385 382 388 l 361 385 q 353 408 360 386 q 349 422 353 419 q 338 425 344 425 l 331 425 l 331 385 m 331 442 l 339 442 q 357 456 357 442 q 342 469 357 469 l 331 469 l 331 442 m 463 385 l 399 385 l 399 488 l 460 488 l 460 468 l 421 468 l 421 444 l 458 444 l 458 426 l 421 426 l 421 403 l 463 403 l 463 385 m 499 385 l 476 385 l 483 488 l 514 488 l 524 451 q 528 433 526 443 q 532 415 529 424 l 535 415 q 538 434 536 424 q 543 451 540 444 l 554 488 l 585 488 l 589 385 l 567 385 l 564 422 l 564 467 q 558 445 561 456 q 553 425 556 435 l 539 386 l 521 386 l 511 425 q 506 445 508 435 q 501 467 504 456 l 501 422 l 499 385 m 629 385 l 607 385 l 607 488 l 629 488 l 629 385 m 674 385 l 651 385 l 651 488 l 676 488 l 699 449 q 708 431 704 440 q 717 415 713 422 q 714 434 714 424 q 714 456 714 444 l 714 488 l 736 488 l 736 385 l 711 385 l 689 422 q 680 442 685 433 q 671 460 675 450 q 672 438 671 449 q 674 415 674 426 l 674 385 m 829 397 q 809 386 821 390 q 782 382 797 382 q 765 383 771 382 q 754 385 760 385 l 754 485 q 769 488 761 488 q 788 488 778 488 q 829 476 814 488 q 842 460 836 469 q 847 438 847 451 q 842 413 847 424 q 829 397 836 403 m 779 400 l 788 400 q 822 438 822 400 q 789 469 822 469 q 783 469 785 469 q 779 468 782 468 l 779 400 m 926 385 l 861 385 l 861 488 l 925 488 l 925 468 l 883 468 l 883 444 l 922 444 l 922 426 l 883 426 l 883 403 l 926 403 l 926 385 m 965 385 l 943 385 l 943 485 q 956 488 949 488 q 972 488 964 488 q 1006 478 994 488 q 1017 458 1017 471 q 1010 442 1017 447 q 997 433 1004 436 l 997 431 q 1011 413 1007 429 q 1015 395 1014 403 q 1018 385 1017 388 l 996 385 q 988 408 994 386 q 983 422 986 419 q 972 425 979 425 l 965 425 l 965 385 m 965 442 l 972 442 q 992 456 992 442 q 975 469 992 469 l 965 469 l 965 442 m 1039 353 l 290 353 l 290 361 l 1039 361 l 1039 353 m 1039 244 l 290 244 l 290 254 l 1039 254 l 1039 244 m 1039 169 l 290 169 l 290 178 l 1039 178 l 1039 169 m 528 72 l 532 72 l 525 51 l 521 51 l 517 65 l 514 51 l 510 51 l 501 72 l 507 72 l 511 58 l 515 72 l 519 72 l 524 58 l 528 72 m 558 72 l 561 72 l 557 51 l 553 51 l 549 65 l 543 51 l 539 51 l 532 72 l 538 72 l 542 58 l 546 72 l 550 72 l 554 58 l 558 72 m 589 72 l 593 72 l 586 51 l 582 51 l 579 65 l 575 51 l 571 51 l 561 72 l 568 72 l 572 58 l 576 72 l 582 72 l 585 58 l 589 72 m 594 57 l 601 57 l 601 51 l 594 51 l 594 57 m 619 79 l 626 79 l 626 51 l 619 51 l 619 54 q 618 53 619 53 q 614 51 615 51 q 607 54 610 51 q 606 61 606 57 q 607 69 606 67 q 614 74 608 74 q 619 69 617 74 l 619 79 m 618 57 q 619 61 619 58 q 618 67 619 65 l 615 69 q 614 68 614 69 q 611 67 614 67 l 611 63 l 611 57 q 613 56 611 56 q 615 54 614 54 l 618 57 m 642 58 l 649 58 q 644 53 649 54 q 638 51 644 51 q 632 54 635 51 q 629 61 629 54 q 632 69 629 67 q 638 74 633 74 q 640 73 639 74 q 643 72 642 72 l 644 72 q 649 65 649 68 l 642 65 l 642 67 q 640 68 640 67 q 638 69 640 69 l 636 67 q 635 65 636 65 q 633 63 633 65 q 635 59 633 60 q 636 57 636 58 q 638 56 636 56 q 640 54 638 54 l 642 57 l 642 58 m 660 74 q 669 69 665 74 q 672 65 671 67 q 674 61 674 64 q 672 58 674 58 q 669 54 671 57 q 665 52 667 53 q 660 51 664 51 l 658 51 q 656 53 657 51 q 651 57 651 53 l 651 63 l 651 67 q 656 72 651 72 q 658 73 658 72 q 660 74 658 74 m 665 57 q 667 61 667 58 q 665 67 667 65 l 660 67 l 658 67 q 656 61 656 65 q 658 57 656 58 l 660 54 q 664 56 663 54 q 665 57 665 56 m 688 63 l 696 51 l 689 51 l 685 58 l 681 51 l 674 51 l 681 63 l 674 72 l 681 72 l 685 67 l 688 72 l 696 72 l 688 63 m 711 72 l 717 72 l 710 53 l 707 49 l 707 47 l 706 44 l 703 44 q 701 43 703 43 q 697 44 699 43 l 697 49 l 699 47 l 701 47 l 701 49 q 703 50 701 49 l 703 51 l 696 72 l 701 72 l 706 57 l 711 72 m 718 57 l 721 57 l 721 51 l 718 51 l 718 57 m 740 58 l 746 58 q 744 56 746 57 q 743 53 743 54 q 736 51 743 51 q 731 54 733 51 q 725 61 725 54 q 731 69 725 64 q 736 74 732 74 q 739 73 738 74 q 742 72 740 72 l 743 72 q 746 65 743 69 l 740 65 l 740 67 q 739 68 739 67 q 736 69 739 69 l 735 67 q 732 63 732 65 q 735 57 732 58 l 736 54 q 740 57 739 54 l 740 58 m 758 74 q 767 69 764 74 q 769 65 768 67 q 771 61 771 64 q 769 58 771 58 q 767 54 768 57 q 758 51 764 51 q 754 53 757 51 q 750 57 750 53 q 749 63 749 57 l 749 64 q 750 67 749 65 q 754 72 750 72 l 756 72 q 757 73 757 72 q 758 74 757 74 m 764 57 q 765 61 765 58 q 764 67 765 65 l 758 67 l 757 67 q 754 61 754 65 q 757 57 754 58 l 758 54 q 763 56 761 54 q 764 57 764 56 m 804 69 l 804 65 l 804 51 l 797 51 l 797 63 l 797 67 l 797 68 l 796 69 l 794 69 q 793 67 793 69 l 792 67 q 790 65 790 67 l 790 61 l 790 51 l 786 51 l 786 63 l 786 67 q 785 69 786 68 l 783 69 l 782 69 l 782 67 l 781 67 q 779 65 779 67 l 779 61 l 779 51 l 772 51 l 772 72 l 779 72 l 779 69 q 786 74 783 74 q 789 72 788 74 l 790 69 q 792 72 790 72 l 793 72 q 797 74 796 74 q 800 73 800 74 q 801 72 800 72 l 804 69 z "}," ":{"ha":278,"x_min":0,"x_max":0,"o":""},"D":{"ha":758,"x_min":-99,"x_max":774,"o":"m 144 803 q 210 898 165 860 q 310 956 254 936 q 430 978 367 976 q 551 963 493 979 q 659 911 610 946 q 738 824 708 876 q 770 700 767 771 q 740 542 774 629 q 593 274 683 390 q 400 85 503 158 q 192 -12 297 13 q 1 -8 88 -37 q -69 53 -46 8 q -96 156 -93 97 q -83 278 -99 214 q -37 401 -67 343 q 35 501 -7 458 q 128 560 78 544 q 33 476 78 535 q -37 350 -11 417 q 57 490 8 440 q 151 564 106 540 q 233 591 196 588 q 293 593 271 594 q 223 581 256 592 q 164 554 190 571 q 120 518 138 538 q 94 481 103 499 q 144 534 117 515 q 197 560 172 553 q 240 566 222 567 q 261 563 257 565 q 151 516 199 564 q 72 399 104 468 q 116 463 94 440 q 155 494 138 485 q 184 504 172 504 q 201 501 196 504 q 147 472 176 503 q 90 393 117 440 q 40 290 63 346 q 8 183 18 233 q 2 97 -3 133 q 32 54 7 61 q 76 112 40 51 q 163 276 111 172 q 273 521 214 381 q 389 821 332 661 q 276 779 332 813 q 188 683 221 746 q 227 770 194 731 q 300 831 260 810 q 250 806 275 822 q 204 766 225 790 q 167 712 183 742 q 143 647 151 682 q 141 689 138 661 q 158 749 144 717 q 198 813 172 781 q 262 869 224 844 q 352 904 300 893 q 472 907 404 915 q 381 923 428 924 q 289 907 333 922 q 207 865 244 892 q 144 803 169 838 m 604 556 q 617 651 621 606 q 594 733 614 697 q 542 792 575 768 q 468 824 510 817 q 493 814 485 819 q 504 807 499 810 q 444 647 482 744 q 358 441 406 549 q 258 231 311 333 q 156 57 206 128 q 146 54 151 56 q 138 51 142 53 q 132 47 135 49 q 287 114 213 61 q 424 239 361 167 q 533 395 486 311 q 604 556 579 479 m 50 524 q 29 503 46 519 q -8 459 13 488 q -51 390 -29 431 q -85 294 -72 349 q -74 355 -85 319 q -45 425 -64 390 q -2 488 -26 460 q 50 524 22 515 m 40 744 q 71 789 68 750 q 87 758 75 767 q 114 750 99 750 q 76 707 79 740 q 40 744 68 739 m 118 940 q 134 909 122 918 q 161 900 146 900 q 134 883 142 894 q 125 857 126 872 q 89 894 117 888 q 111 909 104 897 q 118 940 118 921 m 153 751 q 168 800 156 778 q 197 839 181 822 q 232 866 214 856 q 265 881 250 876 q 240 865 256 875 q 208 838 225 854 q 176 801 192 822 q 153 751 161 779 m 107 665 q 121 628 100 639 q 86 613 97 633 q 74 646 90 635 q 107 665 94 642 m -64 621 q -33 639 -46 617 q -32 616 -37 624 q -19 604 -26 608 q -53 589 -40 608 q -64 621 -49 608 m -62 511 q -60 483 -69 496 q -85 482 -75 492 q -92 508 -76 494 q -62 511 -75 499 m 10 863 q 14 835 3 849 q -12 835 1 844 q -18 860 -4 846 q 10 863 -1 851 z "},"E":{"ha":600,"x_min":-44,"x_max":814,"o":"m 701 808 q 756 847 735 824 q 788 885 778 871 q 755 818 786 847 q 681 758 724 789 q 594 690 639 728 q 524 597 550 653 q 504 597 515 593 q 483 610 493 601 q 464 632 472 619 q 453 658 456 644 q 482 721 451 681 q 505 799 504 761 q 486 849 506 836 q 466 854 476 854 q 441 844 456 854 q 406 812 426 833 q 356 753 385 790 q 328 713 346 740 q 300 656 311 686 q 291 600 289 626 q 325 565 293 574 q 342 549 338 561 q 347 524 347 538 q 339 497 346 510 q 321 475 332 483 q 310 471 319 474 q 294 467 300 468 q 210 416 247 450 q 145 341 172 382 q 101 256 118 300 q 78 172 85 211 q 76 104 72 133 q 96 64 81 75 q 147 55 118 47 q 208 86 176 63 q 270 146 239 110 q 328 222 301 182 q 377 303 356 263 q 411 376 399 343 q 410 360 413 376 q 397 313 408 343 q 360 241 385 283 q 294 146 336 199 q 325 176 303 151 q 372 239 347 201 q 419 324 397 276 q 444 426 440 372 q 449 390 450 414 q 440 336 449 367 q 415 270 432 306 q 371 200 397 235 q 408 247 390 221 q 439 298 425 272 q 463 347 453 324 q 476 383 472 369 q 470 338 475 363 q 453 283 465 313 q 422 220 442 254 q 371 149 401 186 q 405 184 388 163 q 438 228 422 206 q 466 274 453 251 q 486 314 479 297 q 470 256 486 293 q 425 175 454 218 q 356 90 396 132 q 269 21 317 49 q 167 -15 222 -7 q 56 0 113 -24 q -19 68 1 22 q -37 170 -40 114 q -9 288 -33 226 q 53 404 15 350 q -1 320 25 367 q -44 218 -26 274 q -4 349 -33 292 q 59 448 25 407 q 124 513 93 489 q 169 543 156 536 q 166 655 153 588 q 240 801 179 722 q 381 940 308 894 q 532 960 453 985 q 583 922 564 949 q 610 854 603 894 q 671 918 650 894 q 692 967 692 942 q 700 953 699 971 q 682 910 701 935 q 692 921 686 913 q 703 939 697 929 q 713 958 710 949 q 717 974 717 968 q 722 958 719 967 q 719 935 724 949 q 703 903 715 922 q 664 857 690 883 q 692 878 675 863 q 725 911 708 893 q 754 947 742 929 q 768 976 767 964 q 747 904 779 950 q 647 806 715 858 q 711 851 682 825 q 761 902 740 876 q 794 951 782 928 q 808 989 807 974 q 806 947 814 971 q 780 897 797 922 q 741 849 763 872 q 701 808 719 825 m 183 950 q 165 915 165 931 q 176 883 165 899 q 144 897 160 897 q 113 885 128 896 q 117 944 135 918 q 183 950 146 924 m 26 633 q 57 678 54 639 q 73 647 61 656 q 100 639 85 639 q 63 596 65 629 q 26 633 54 628 m 278 992 q 294 960 282 969 q 321 951 306 951 q 294 935 301 946 q 285 908 286 924 q 249 946 276 939 q 271 960 264 949 q 278 992 278 972 m 26 840 q 57 858 44 836 q 58 835 53 843 q 71 824 64 828 q 50 822 58 826 q 36 811 42 818 q 35 826 39 818 q 26 840 32 833 m 160 761 q 163 733 153 746 q 138 732 147 742 q 131 758 146 744 q 160 761 147 749 m 639 936 q 643 908 632 922 q 617 908 631 918 q 611 933 625 919 q 639 936 628 925 z "},"F":{"ha":700,"x_min":-151,"x_max":851,"o":"m 833 933 q 848 910 844 925 q 844 875 851 894 q 818 835 836 856 q 768 799 800 815 q 754 842 772 825 q 702 865 736 858 q 621 869 668 871 q 519 858 574 867 q 532 858 524 858 q 547 860 540 858 q 567 861 556 860 q 532 767 551 818 q 491 661 513 717 q 446 549 469 606 q 399 438 422 492 q 388 436 393 436 l 369 436 q 435 433 400 433 q 500 433 469 432 q 554 440 531 435 q 589 453 578 444 q 583 437 586 444 q 568 424 579 429 q 536 415 557 418 q 479 411 515 411 q 554 411 518 404 q 606 428 590 418 q 599 413 604 424 q 577 391 594 401 q 525 376 560 381 q 429 378 490 371 q 469 369 442 371 q 525 367 496 367 q 580 374 554 368 q 615 390 606 379 q 603 372 614 382 q 574 354 593 363 q 528 341 556 346 q 463 339 500 336 q 487 334 472 336 q 517 332 501 332 q 549 333 533 332 q 578 342 565 335 q 539 314 567 321 q 478 309 511 307 q 410 318 444 311 q 351 331 376 325 q 268 175 311 249 q 181 49 225 101 q 91 -30 136 -4 q 4 -40 46 -56 q -67 35 -46 -22 q -86 169 -87 93 q -65 328 -85 244 q -12 481 -44 411 q 59 597 19 551 q 140 646 99 643 q 110 620 129 639 q 70 570 92 601 q 28 495 49 539 q -10 396 7 451 q 31 485 7 438 q 85 573 54 533 q 153 638 115 613 q 235 660 190 664 q 196 633 219 654 q 147 581 172 611 q 99 518 122 551 q 63 456 76 485 q 126 549 97 518 q 176 590 156 579 q 208 599 196 601 q 221 594 219 597 q 172 556 199 596 q 117 456 144 517 q 67 322 90 394 q 30 187 43 250 q 17 78 17 124 q 38 26 18 33 q 63 47 44 24 q 106 112 81 69 q 162 213 131 154 q 226 342 193 272 q 168 329 200 340 q 156 344 160 333 q 151 369 151 356 q 156 397 151 383 q 169 422 160 411 q 207 439 179 435 q 272 442 235 443 q 355 634 313 532 q 438 844 397 736 q 315 815 379 826 q 196 803 251 804 q 99 812 140 803 q 44 842 58 821 q 100 831 63 835 q 181 828 138 828 q 266 837 224 829 q 339 861 308 844 q 269 847 307 853 q 197 841 232 842 q 132 844 161 840 q 88 860 103 849 q 162 856 121 853 q 239 866 203 858 q 302 883 275 874 q 336 899 329 892 q 188 870 249 874 q 88 874 128 867 q 28 897 49 882 q 0 924 7 911 q 70 903 28 907 q 156 903 113 900 q 235 915 199 907 q 289 929 272 924 q 172 912 215 914 q 108 915 129 910 q 84 926 88 919 q 83 935 81 933 q 138 931 92 926 q 253 947 185 936 q 403 967 321 957 q 567 980 486 978 q 717 973 647 982 q 833 933 788 964 m -69 346 q -49 431 -64 381 q -12 527 -33 482 q 33 603 8 572 q 85 632 58 635 q 59 611 75 625 q 23 567 43 597 q -21 483 3 536 q -69 346 -44 431 m -85 667 q -75 627 -85 639 q -47 613 -65 615 q -78 598 -67 610 q -94 569 -90 586 q -129 617 -99 608 q -85 667 -96 621 m 154 675 q 160 700 163 686 q 147 728 158 714 q 180 716 165 714 q 206 728 194 718 q 206 671 186 697 q 154 675 179 689 m -151 817 q -119 805 -133 804 q -93 817 -104 806 q -102 785 -104 800 q -90 760 -100 771 q -143 764 -115 778 q -151 817 -124 788 m 253 757 q 263 789 268 768 q 279 774 269 776 q 297 775 289 772 q 282 740 276 763 q 269 753 278 749 q 253 757 261 757 m -87 919 q -67 901 -82 904 q -83 883 -83 897 q -107 899 -87 899 q -87 919 -87 903 m 39 782 q 60 765 44 767 q 42 747 46 761 q 21 763 40 760 q 39 782 39 767 z "},"G":{"ha":663,"x_min":-206,"x_max":647,"o":"m 554 478 q 573 456 565 469 q 583 429 581 443 q 585 404 586 415 q 576 388 583 393 q 492 374 526 383 q 448 274 476 325 q 383 176 419 224 q 304 90 346 129 q 220 24 263 50 q 137 -12 178 -3 q 61 -10 96 -22 q -1 58 17 7 q -17 182 -19 110 q 7 340 -14 254 q 63 513 28 426 q -29 596 0 549 q -65 690 -58 643 q -59 781 -71 738 q -26 853 -47 824 q -47 740 -44 803 q -12 615 -50 678 q -38 701 -33 656 q -29 792 -43 747 q 10 867 -15 838 q 65 910 36 896 q 125 928 94 925 q 179 924 156 931 q 99 896 131 921 q 50 834 67 871 q 33 755 33 797 q 49 674 32 713 q 43 712 42 694 q 51 739 44 729 q 53 701 49 719 q 65 665 57 682 q 85 635 74 649 q 108 613 97 621 q 203 770 150 696 q 313 895 256 844 q 431 968 369 946 q 550 971 492 990 q 627 903 607 951 q 637 794 647 854 q 588 672 626 735 q 487 560 549 608 q 344 486 425 511 q 168 478 263 461 q 175 475 171 475 q 179 474 178 474 q 122 333 147 403 q 85 206 97 263 q 76 113 74 150 q 103 67 79 75 q 149 78 118 61 q 217 129 179 94 q 293 213 254 164 q 364 321 332 261 q 361 319 363 321 q 317 303 339 311 q 274 294 294 296 q 237 294 254 292 q 210 310 219 297 q 240 309 224 307 q 272 315 256 311 q 301 325 288 319 q 322 335 314 331 q 258 322 286 324 q 210 323 231 319 q 177 334 189 326 q 161 349 165 342 q 199 341 174 340 q 254 348 225 342 q 309 363 283 354 q 346 381 335 372 q 253 356 288 358 q 199 359 218 353 q 172 375 179 365 q 163 389 164 385 q 217 384 181 382 q 289 401 253 386 q 232 391 253 393 q 199 392 211 389 q 182 402 188 396 q 172 415 176 408 q 206 413 181 411 q 261 420 231 415 q 323 433 292 425 q 375 450 354 442 q 439 469 408 463 q 494 479 469 476 q 535 481 519 482 q 554 478 551 479 m 210 569 q 195 570 203 569 q 182 571 188 571 q 313 573 256 557 q 413 622 371 589 q 483 699 456 656 q 524 782 511 742 q 535 851 536 822 q 518 883 533 879 q 453 869 489 892 q 378 801 417 846 q 301 697 340 757 q 226 569 261 636 l 210 569 m -72 717 q -69 679 -72 700 q -57 636 -65 658 q -34 592 -49 614 q 4 553 -19 571 q -41 586 -24 565 q -67 631 -58 607 q -78 677 -76 654 q -72 717 -79 700 m -161 878 q -145 847 -157 856 q -118 838 -133 838 q -145 821 -137 832 q -154 794 -153 810 q -190 832 -162 825 q -168 847 -175 835 q -161 878 -161 858 m -82 483 q -97 532 -76 514 q -53 560 -71 526 q -51 526 -58 539 q -31 507 -43 514 q -82 483 -67 513 m -106 653 q -92 615 -112 626 q -126 600 -115 621 q -139 633 -122 622 q -106 653 -118 629 m -54 903 q -24 921 -36 899 q -22 898 -28 906 q -10 886 -17 890 q -43 871 -31 890 q -54 903 -39 890 m 147 933 q 91 926 119 935 q 47 906 63 918 q 60 919 50 913 q 85 931 71 926 q 116 937 100 936 q 147 933 132 938 m -176 615 q -174 588 -183 600 q -199 586 -189 596 q -206 613 -190 599 q -176 615 -189 603 m -111 753 q -107 725 -118 739 q -133 725 -119 735 q -139 750 -125 736 q -111 753 -122 742 z "},"H":{"ha":731,"x_min":-135,"x_max":819,"o":"m 597 281 q 615 260 614 274 q 608 232 615 246 q 590 207 600 218 q 574 194 579 196 q 560 192 567 193 q 547 190 554 192 q 494 72 522 131 q 443 -22 467 13 q 417 -28 432 -28 q 388 -26 401 -29 q 363 -17 374 -24 q 353 -3 353 -11 q 362 17 354 0 q 380 60 369 33 q 403 119 390 86 q 429 188 415 151 q 333 197 386 190 q 240 208 281 204 q 244 206 242 207 q 250 204 247 206 q 256 203 253 203 q 194 102 225 149 q 133 24 164 56 q 69 -20 101 -7 q 4 -22 38 -33 q -69 39 -44 -6 q -99 144 -93 83 q -93 276 -104 206 q -60 414 -82 346 q -6 541 -37 482 q 60 638 25 600 q 133 688 96 676 q 203 671 169 699 q 156 659 183 674 q 102 613 129 644 q 51 533 75 581 q 11 422 26 485 q 72 544 42 504 q 128 600 103 585 q 172 613 154 615 q 192 608 189 611 q 144 568 169 608 q 94 467 118 528 q 51 335 71 407 q 22 201 32 264 q 15 93 13 138 q 36 43 17 49 q 72 87 47 40 q 133 208 96 133 q 83 211 106 214 q 56 203 61 208 q 83 242 61 222 q 147 265 106 263 q 96 258 126 265 q 38 218 65 250 q 92 303 53 279 q 189 325 132 326 q 295 576 239 436 q 404 872 351 717 q 227 867 303 878 q 101 836 151 856 q 27 794 51 817 q 4 757 3 772 q -3 774 -3 758 q 14 810 -4 789 q 74 855 32 832 q 194 896 115 878 q 126 887 158 896 q 67 864 93 878 q 24 837 40 850 q 6 815 8 824 q 22 851 7 833 q 56 884 36 869 q 100 908 76 899 q 144 921 124 918 q 78 904 111 918 q 17 870 44 890 q -30 826 -11 850 q -53 778 -49 801 q -40 849 -56 817 q 6 907 -24 882 q 76 948 35 932 q 168 968 118 964 q 239 970 203 971 q 311 968 275 969 q 383 967 347 967 q 451 974 418 967 q 482 974 465 978 q 513 960 499 969 q 534 937 526 950 q 538 910 542 924 q 492 780 517 853 q 438 628 467 707 q 376 467 408 549 q 310 310 344 385 q 288 311 297 310 q 272 313 279 313 q 261 314 264 314 q 308 305 281 310 q 363 294 335 300 q 418 285 392 289 q 463 278 444 281 q 533 468 496 367 q 605 665 571 569 q 667 838 639 760 q 711 957 696 915 q 767 977 733 985 q 819 938 800 969 q 779 824 804 897 q 723 658 754 750 q 656 467 692 567 q 582 274 619 367 q 597 281 590 275 m 82 678 q 44 640 69 668 q -9 563 19 613 q -64 442 -37 514 q -106 271 -90 369 q -86 411 -101 338 q -47 546 -71 485 q 10 644 -22 607 q 82 678 43 682 m 193 768 q 224 813 221 774 q 240 782 228 790 q 267 774 251 774 q 229 731 232 764 q 193 768 221 763 m -135 719 q -104 703 -119 704 q -76 710 -89 701 q -90 681 -89 694 q -83 654 -90 667 q -133 665 -107 676 q -123 690 -122 676 q -135 719 -124 704 m -93 881 q -79 843 -100 854 q -114 828 -103 849 q -126 861 -110 850 q -93 881 -106 857 m 17 729 q 47 747 35 725 q 49 724 43 732 q 61 713 54 717 q 26 697 39 717 q 26 715 29 707 q 17 729 24 722 m -42 947 q -39 919 -49 932 q -64 918 -54 928 q -71 944 -56 931 q -42 947 -54 935 m 278 658 q 282 631 271 644 q 256 631 269 640 q 250 656 264 642 q 278 658 267 647 z "},"I":{"ha":460,"x_min":-210,"x_max":578,"o":"m 513 969 q 538 961 525 968 q 560 944 551 954 q 574 923 569 935 q 574 900 578 911 q 504 721 544 824 q 416 510 464 618 q 315 299 368 401 q 206 119 261 196 q 94 4 150 43 q -15 -14 38 -35 q -79 49 -58 3 q -103 155 -100 94 q -93 285 -106 215 q -58 419 -81 354 q -3 537 -35 483 q 64 619 29 590 q 135 645 99 647 q 203 597 171 643 q 153 560 181 599 q 99 464 126 522 q 49 336 72 406 q 12 206 25 267 q -1 102 -1 146 q 19 51 0 58 q 76 112 33 47 q 179 289 119 176 q 307 551 239 401 q 439 867 375 701 q 267 867 340 875 q 144 842 193 858 q 70 806 94 826 q 46 771 46 786 q 42 780 43 772 q 44 799 40 788 q 60 824 49 810 q 93 850 71 838 q 36 819 65 838 q -19 778 7 801 q -69 723 -46 754 q -106 653 -92 692 q -92 740 -108 696 q -39 826 -76 785 q 61 901 -1 867 q 215 956 124 935 q 177 950 199 954 q 133 939 156 946 q 90 924 111 932 q 51 910 68 917 q 112 948 72 933 q 200 969 151 963 q 299 978 249 976 q 394 978 350 979 q 471 974 439 976 q 513 969 503 971 m 156 651 q 88 645 119 663 q 31 600 56 628 q -9 544 7 572 q -31 506 -25 515 q 14 601 -12 565 q 67 653 40 638 q 118 667 94 669 q 156 651 142 665 m -76 897 q -46 942 -49 903 q -30 911 -42 919 q -3 903 -18 903 q -40 860 -37 893 q -76 897 -49 892 m -181 724 q -165 692 -176 701 q -137 683 -153 683 q -165 667 -157 678 q -174 640 -172 656 q -210 678 -182 671 q -187 692 -194 681 q -181 724 -181 704 m 115 743 q 129 706 108 717 q 94 690 106 711 q 82 724 99 713 q 115 743 103 719 m -19 733 q 11 751 -1 729 q 13 728 7 736 q 25 717 18 721 q -8 701 3 721 q -19 733 -4 721 m -56 625 q -53 597 -62 610 q -78 596 -68 606 q -85 622 -69 608 q -56 625 -68 613 m -129 858 q -125 831 -136 844 q -151 831 -137 840 q -157 856 -143 842 q -129 858 -140 847 z "},"J":{"ha":456,"x_min":-182,"x_max":561,"o":"m 465 979 q 482 975 465 979 q 517 963 499 971 q 548 943 535 954 q 557 918 561 932 q 509 781 538 860 q 446 610 481 701 q 372 424 411 519 q 289 240 332 329 q 201 73 246 150 q 112 -59 157 -4 q 24 -140 67 -114 q -60 -153 -19 -167 q -119 -93 -103 -139 q -131 17 -135 -47 q -105 155 -126 81 q -51 302 -83 229 q 23 439 -18 375 q 107 544 64 503 q 192 599 150 586 q 268 581 233 611 q 238 565 253 578 q 210 537 224 553 q 188 503 197 521 q 172 472 178 486 q 225 542 200 518 q 269 575 250 565 q 299 584 288 585 q 313 581 310 583 q 359 699 336 639 q 404 822 382 760 q 316 785 364 804 q 222 755 268 767 q 133 741 175 743 q 63 753 92 739 q 81 751 69 751 q 106 753 93 751 q 133 758 119 754 q 156 765 146 761 q 66 764 107 754 q -3 792 25 774 q -48 832 -32 810 q -62 869 -64 854 q -8 830 -43 843 q 66 814 26 817 q 146 819 106 811 q 218 842 186 826 q 94 822 138 819 q 29 835 50 824 q 5 862 8 847 q 4 879 1 876 q 45 855 10 864 q 141 853 81 846 q 283 890 201 861 q 465 979 365 918 m -28 -86 q -2 -64 -21 -89 q 43 8 17 -39 q 103 117 69 54 q 171 255 136 181 q 242 411 206 329 q 311 575 278 493 q 262 543 290 572 q 201 468 233 514 q 135 365 169 422 q 71 247 101 307 q 16 129 40 188 q -23 24 -8 71 q -40 -52 -37 -22 q -28 -86 -43 -82 m -86 675 q -56 719 -58 681 q -40 689 -51 697 q -12 681 -28 681 q -50 638 -47 671 q -86 675 -58 669 m -128 976 q -112 945 -124 954 q -85 936 -100 936 q -112 919 -104 931 q -121 893 -119 908 q -157 931 -129 924 q -135 945 -142 933 q -128 976 -128 957 m 250 885 q 100 855 158 854 q 32 874 42 856 q 108 865 49 865 q 250 885 167 865 m 61 943 q 92 961 79 939 q 93 938 88 946 q 106 926 99 931 q 71 911 83 931 q 71 928 74 921 q 61 943 68 936 m 72 646 q 75 618 65 631 q 50 617 60 626 q 43 643 58 629 q 72 646 60 633 m -154 889 q -150 861 -161 875 q -176 861 -162 871 q -182 886 -168 872 q -154 889 -165 878 z "},"K":{"ha":721,"x_min":-104,"x_max":974,"o":"m 904 982 q 922 969 910 983 q 947 933 935 954 q 966 888 958 911 q 968 846 974 864 q 910 810 942 844 q 840 722 879 775 q 751 603 800 668 q 642 477 703 539 q 508 365 582 415 q 346 289 435 314 q 458 135 396 207 q 580 11 521 63 q 685 -64 639 -40 q 747 -72 731 -87 q 735 -91 747 -79 q 697 -101 724 -103 q 623 -72 669 -99 q 506 22 576 -46 q 561 -37 531 -7 q 631 -89 592 -67 q 717 -118 669 -111 q 825 -108 765 -125 q 784 -132 810 -121 q 724 -144 758 -143 q 648 -131 690 -146 q 558 -76 606 -117 q 591 -108 571 -92 q 638 -136 611 -124 q 695 -153 664 -149 q 761 -150 726 -158 q 719 -163 744 -157 q 661 -163 694 -169 q 588 -133 628 -157 q 500 -56 547 -108 q 530 -92 513 -74 q 567 -125 547 -110 q 605 -151 586 -140 q 640 -165 624 -161 q 551 -137 603 -172 q 447 -42 500 -101 q 344 89 393 17 q 265 226 296 161 q 199 119 233 167 q 131 40 165 71 q 60 -3 96 8 q -10 -4 25 -15 q -74 47 -53 10 q -100 133 -96 85 q -94 238 -104 182 q -62 347 -83 294 q -11 444 -40 400 q 52 513 18 488 q 122 538 86 538 q 190 506 157 539 q 126 463 163 507 q 44 318 89 418 q 106 423 75 385 q 161 478 136 461 q 205 497 186 496 q 231 489 224 497 q 173 461 204 490 q 112 387 142 432 q 57 288 82 342 q 17 185 32 233 q 2 103 3 138 q 22 63 1 68 q 72 116 35 58 q 158 276 108 174 q 267 517 208 378 q 382 814 325 656 q 270 733 313 772 q 205 662 228 694 q 176 604 182 629 q 176 567 171 579 q 149 615 150 579 q 192 706 147 651 q 142 640 164 674 q 113 558 119 606 q 106 611 103 576 q 129 685 110 646 q 183 762 149 724 q 271 825 218 800 q 217 801 243 817 q 170 765 192 785 q 133 722 149 744 q 113 674 118 699 q 141 772 107 733 q 227 839 175 810 q 338 896 279 868 q 439 964 396 924 q 469 973 451 975 q 504 961 488 971 q 531 936 521 951 q 535 907 540 921 q 495 797 518 861 q 445 663 472 733 q 390 519 418 592 q 335 385 361 447 q 452 460 397 408 q 557 575 507 511 q 652 708 607 639 q 740 835 697 776 q 822 935 782 894 q 904 982 863 975 m 446 -47 q 467 -70 451 -54 q 501 -104 482 -86 q 542 -137 521 -122 q 581 -158 563 -153 q 553 -153 569 -160 q 518 -133 536 -147 q 481 -98 500 -119 q 446 -47 463 -76 m 260 860 q 206 833 228 846 q 172 810 185 821 q 152 792 158 800 q 142 779 146 783 q 163 815 147 800 q 196 839 178 829 q 231 853 214 849 q 260 860 249 858 m 90 864 q 121 908 118 869 q 137 878 125 886 q 164 869 149 869 q 126 826 129 860 q 90 864 118 858 m 813 -143 q 826 -181 806 -169 q 792 -196 803 -175 q 779 -162 796 -174 q 813 -143 800 -167 m 10 628 q 33 683 38 640 q 58 653 43 658 q 88 650 72 649 q 57 593 50 632 q 10 628 46 625 m 697 -189 q 700 -217 690 -204 q 675 -218 685 -208 q 668 -192 683 -206 q 697 -189 685 -201 m 32 819 q 36 792 25 806 q 10 792 24 801 q 4 817 18 803 q 32 819 21 808 z "},"L":{"ha":486,"x_min":-124,"x_max":713,"o":"m 660 -74 q 609 -124 647 -106 q 532 -140 571 -142 q 583 -142 554 -144 q 622 -129 611 -140 q 492 -181 583 -194 q 281 -78 401 -168 q 153 14 214 -26 q 45 -49 99 -39 q -48 -44 -8 -60 q -106 8 -87 -28 q -107 82 -124 43 q -72 125 -96 108 q -16 148 -47 142 q 51 151 15 154 q 124 133 88 147 q 199 253 156 179 q 288 418 242 328 q 381 609 335 508 q 467 808 428 710 q 314 689 376 751 q 214 572 251 626 q 163 478 176 518 q 158 425 150 438 q 150 431 156 425 q 140 449 144 436 q 137 483 136 463 q 147 531 138 503 q 125 476 135 501 q 110 427 115 451 q 103 377 104 403 q 106 319 101 351 q 82 358 90 332 q 72 417 74 383 q 78 488 71 450 q 99 562 85 526 q 134 627 113 597 q 185 675 156 657 q 154 652 169 667 q 124 622 139 638 q 95 590 108 606 q 74 561 82 574 q 115 649 82 606 q 193 735 147 693 q 292 813 239 776 q 392 880 344 850 q 478 932 440 910 q 531 965 515 954 q 561 973 543 975 q 595 960 579 971 q 620 935 611 950 q 624 906 629 919 q 576 790 604 856 q 515 649 549 724 q 442 497 481 575 q 365 343 404 418 q 286 201 325 268 q 211 85 247 135 q 326 14 269 46 q 437 -39 383 -18 q 538 -67 490 -60 q 624 -62 586 -74 q 607 -80 621 -71 q 570 -94 593 -89 q 515 -95 547 -99 q 444 -74 483 -92 q 503 -101 472 -94 q 563 -106 533 -108 q 617 -95 592 -104 q 660 -74 642 -86 m -1 57 q -6 40 -7 49 q 2 28 -6 31 q 26 33 10 25 q 67 65 42 40 q -1 57 15 83 m 390 -154 q 472 -185 436 -178 q 533 -189 507 -192 q 574 -178 558 -186 q 593 -167 589 -171 q 546 -197 574 -190 q 489 -200 518 -204 q 433 -183 460 -196 q 390 -154 406 -171 m 150 392 q 166 360 154 369 q 193 351 178 351 q 166 335 174 346 q 157 308 158 324 q 121 346 149 339 q 143 360 136 349 q 150 392 150 372 m -33 358 q -36 413 -15 381 q -5 398 -19 397 q 21 407 10 399 q 18 350 -1 378 q -33 358 -7 371 m 75 507 q 69 476 72 494 q 65 438 67 458 q 66 397 64 418 q 75 357 68 375 q 58 390 63 369 q 55 433 54 411 q 61 476 56 456 q 75 507 67 496 m 38 579 q 51 542 31 553 q 17 526 28 547 q 4 560 21 549 q 38 579 25 556 m -6 244 q -3 204 -15 224 q -35 203 -21 217 q -43 240 -24 224 q -6 244 -22 228 m 668 -174 q 699 -156 686 -178 q 700 -178 694 -171 q 713 -190 706 -186 q 678 -206 689 -186 q 678 -187 681 -194 q 668 -174 675 -181 m 675 -119 q 678 -147 668 -135 q 653 -149 663 -139 q 646 -122 661 -136 q 675 -119 663 -132 m 92 286 q 96 258 85 272 q 69 258 83 268 q 64 283 78 269 q 92 286 81 275 m 599 -201 q 603 -229 592 -215 q 576 -229 590 -219 q 571 -204 585 -218 q 599 -201 588 -212 z "},"M":{"ha":924,"x_min":-115,"x_max":1022,"o":"m 890 960 q 922 975 899 969 q 967 978 944 981 q 1006 967 990 976 q 1017 936 1022 957 q 978 825 1001 897 q 924 664 954 753 q 858 476 893 575 q 786 285 822 378 q 715 113 750 192 q 649 -14 679 35 q 622 -20 638 -19 q 592 -17 607 -21 q 568 -8 578 -14 q 558 7 558 -1 q 578 53 563 13 q 619 158 594 94 q 673 303 643 222 q 735 471 703 385 q 653 339 693 403 q 576 219 613 275 q 508 120 540 164 q 453 50 476 76 q 426 44 442 44 q 394 49 410 44 q 368 60 379 53 q 358 75 357 67 q 381 242 371 154 q 406 428 390 329 q 344 305 378 368 q 272 183 310 242 q 192 76 233 125 q 112 -3 151 28 q 35 -44 72 -35 q -33 -35 -1 -54 q -85 37 -71 -12 q -96 147 -99 86 q -77 272 -93 207 q -39 390 -61 336 q 9 479 -17 444 q 57 517 35 514 q 29 476 43 501 q 1 419 15 450 q -24 355 -12 388 q -42 294 -35 322 q 11 427 -19 369 q 76 523 42 485 q 144 580 110 561 q 210 594 178 599 q 180 570 194 585 q 152 539 165 556 q 128 506 139 522 q 113 476 118 489 q 172 550 143 524 q 222 588 200 576 q 258 597 243 599 q 281 588 274 596 q 242 571 265 592 q 192 513 218 550 q 139 428 167 476 q 87 328 111 381 q 42 225 63 276 q 11 132 22 174 q -1 61 0 90 q 11 24 -3 32 q 67 71 24 17 q 172 235 111 125 q 306 510 233 346 q 449 888 378 675 q 306 883 371 894 q 193 850 240 871 q 120 806 146 829 q 96 765 94 782 q 93 776 93 767 q 99 799 93 785 q 122 830 106 813 q 168 864 138 847 q 128 839 149 854 q 86 801 107 824 q 48 750 65 779 q 21 683 31 721 q 32 742 22 706 q 67 815 42 778 q 139 882 93 851 q 258 924 185 913 q 201 917 236 925 q 129 888 165 908 q 60 835 93 868 q 11 758 28 803 q 28 816 14 786 q 66 872 43 846 q 119 918 89 899 q 185 943 150 938 q 135 935 165 942 q 86 913 106 928 q 162 969 117 957 q 258 982 207 982 q 363 977 310 982 q 464 981 417 972 q 508 979 486 983 q 550 967 531 975 q 584 947 569 958 q 603 925 599 936 q 572 778 592 861 q 530 599 551 694 q 488 401 508 504 q 456 196 468 299 q 588 404 522 294 q 713 617 654 514 q 817 811 771 721 q 890 960 863 901 m -51 383 q -65 346 -56 375 q -85 276 -75 317 q -101 188 -94 235 q -103 97 -107 140 q -113 197 -115 146 q -101 289 -111 247 q -77 357 -92 331 q -51 383 -62 383 m 221 729 q 183 769 221 758 q 215 777 204 768 q 231 801 226 786 q 265 757 232 765 q 221 729 233 757 m 17 928 q 17 892 10 906 q 36 872 24 879 q 4 869 17 876 q -15 850 -8 863 q -28 899 -8 883 q 17 928 -1 893 m 228 853 q 191 833 210 844 q 156 810 172 822 q 128 789 139 799 q 114 774 117 779 q 118 793 107 781 q 148 819 129 806 q 189 842 167 832 q 228 853 211 851 m 17 638 q 40 633 31 631 q 57 643 50 636 q 53 623 50 632 q 64 607 57 614 q 29 601 43 615 q 17 638 38 621 m -74 521 q -43 539 -56 517 q -42 516 -47 524 q -29 504 -36 508 q -62 489 -50 508 q -74 521 -58 508 m 156 672 q 183 669 169 663 q 179 644 171 657 q 153 644 168 656 q 156 672 164 657 m -18 800 q -14 772 -25 786 q -40 772 -26 782 q -46 797 -32 783 q -18 800 -29 789 z "},"N":{"ha":819,"x_min":-106,"x_max":922,"o":"m 807 958 q 838 975 818 972 q 878 974 858 978 q 910 960 897 969 q 917 939 922 950 q 876 828 901 900 q 820 668 851 757 q 753 481 789 579 q 679 291 717 383 q 606 120 642 199 q 539 -7 569 42 q 513 -13 528 -12 q 483 -11 497 -14 q 459 -2 469 -8 q 449 13 449 4 q 454 138 450 65 q 462 290 458 211 q 469 442 465 368 q 474 571 472 517 l 408 413 q 311 231 367 322 q 197 69 256 139 q 80 -33 138 0 q -24 -39 22 -67 q -75 33 -61 -17 q -86 142 -89 82 q -67 267 -83 203 q -29 386 -51 332 q 19 475 -7 440 q 67 513 44 510 q 39 473 53 499 q 11 416 25 447 q -14 352 -3 385 q -32 290 -25 319 q 21 423 -10 365 q 85 519 51 481 q 153 577 119 558 q 219 592 188 596 q 190 567 204 582 q 162 536 175 553 q 138 503 149 519 q 122 474 128 486 q 181 547 153 521 q 231 584 210 574 q 268 593 253 594 q 289 585 283 592 q 235 553 268 590 q 166 456 201 515 q 97 325 131 397 q 40 189 63 253 q 10 77 17 125 q 21 19 3 29 q 77 67 33 13 q 182 232 121 121 q 315 508 243 343 q 458 885 388 672 q 315 880 381 892 q 202 847 249 868 q 129 803 156 826 q 104 763 103 779 q 101 773 101 764 q 108 796 101 782 q 131 826 115 810 q 178 860 147 843 q 138 836 158 851 q 96 799 117 821 q 58 747 75 776 q 31 679 40 717 q 42 738 32 701 q 77 812 51 775 q 149 879 103 849 q 268 921 194 910 q 210 914 246 922 q 139 885 175 906 q 70 832 103 864 q 21 756 38 800 q 38 813 24 783 q 76 869 53 843 q 129 915 99 896 q 194 940 160 935 q 145 931 175 938 q 96 910 115 925 q 172 966 126 953 q 268 978 217 979 q 373 973 319 978 q 474 976 426 968 q 518 975 496 979 q 560 963 540 971 q 594 943 579 954 q 613 921 608 932 q 595 786 603 861 q 580 626 588 711 q 565 451 572 542 q 550 268 558 360 q 624 462 585 358 q 698 661 663 565 q 763 837 733 757 q 807 958 792 917 m 238 850 q 201 830 219 842 q 165 807 182 818 q 138 786 149 796 q 124 771 126 776 q 128 790 117 776 q 158 815 139 803 q 199 838 176 828 q 238 850 221 849 m -42 381 q -56 343 -46 372 q -75 273 -65 314 q -91 185 -85 232 q -93 94 -97 138 q -104 194 -106 143 q -92 286 -103 244 q -68 354 -82 328 q -42 381 -54 381 m 221 729 q 183 769 221 758 q 215 777 204 768 q 231 801 226 786 q 265 757 232 765 q 221 729 233 757 m 17 928 q 17 892 10 906 q 36 872 24 879 q 4 869 17 876 q -15 850 -8 863 q -28 899 -8 883 q 17 928 -1 893 m 17 638 q 40 633 31 631 q 57 643 50 636 q 53 623 50 632 q 64 607 57 614 q 29 601 43 615 q 17 638 38 621 m -74 521 q -43 539 -56 517 q -42 516 -47 524 q -29 504 -36 508 q -62 489 -50 508 q -74 521 -58 508 m 156 672 q 183 669 169 663 q 179 644 171 657 q 153 644 168 656 q 156 672 164 657 m -18 800 q -14 772 -25 786 q -40 772 -26 782 q -46 797 -32 783 q -18 800 -29 789 z "},"O":{"ha":560,"x_min":-36,"x_max":597,"o":"m 543 958 q 588 886 578 942 q 587 752 597 831 q 548 581 576 674 q 478 396 519 488 q 385 222 438 304 q 275 85 333 140 q 155 7 217 29 q 32 13 93 -15 q -19 74 -3 29 q -35 182 -35 119 q -22 317 -36 244 q 15 463 -8 390 q 71 599 39 535 q 140 707 103 663 q 116 662 129 689 q 104 624 103 635 q 187 759 143 694 q 277 872 231 824 q 372 948 324 921 q 467 969 419 975 q 512 967 492 971 q 543 958 532 963 m 81 85 q 135 108 100 79 q 213 192 171 138 q 297 322 254 246 q 371 483 339 397 q 304 463 336 467 q 253 475 272 460 q 285 457 267 461 q 333 460 303 453 q 306 449 326 453 q 263 452 286 446 q 219 478 240 458 q 192 536 199 497 q 123 383 151 461 q 78 241 94 306 q 63 133 63 176 q 81 85 63 90 m 407 592 q 431 707 422 649 q 442 828 440 765 l 438 824 q 366 758 397 800 q 315 671 335 715 q 291 588 296 626 q 301 536 286 550 q 318 542 307 536 q 342 558 329 549 q 369 579 356 567 q 393 604 382 592 q 354 549 386 578 q 380 567 367 557 q 407 592 393 578 m 200 497 q 232 461 211 478 q 283 444 253 444 q 235 447 260 433 q 200 497 210 460 m 224 360 q 254 378 242 356 q 256 355 250 363 q 268 343 261 347 q 235 328 247 347 q 224 360 239 347 m 189 426 q 217 424 203 417 q 213 399 204 411 q 186 399 201 410 q 189 426 197 411 m 396 664 q 400 636 389 650 q 374 636 388 646 q 368 661 382 647 q 396 664 385 653 m 253 475 q 251 476 253 476 q 253 475 251 475 z "},"P":{"ha":769,"x_min":-99,"x_max":786,"o":"m 204 907 q 317 965 249 947 q 459 977 386 983 q 601 941 532 971 q 715 857 669 911 q 773 723 760 803 q 749 539 786 643 q 635 342 704 417 q 492 226 567 267 q 349 172 418 185 q 235 160 281 158 q 176 76 207 115 q 115 9 146 36 q 53 -30 83 -18 q -7 -32 22 -42 q -79 42 -60 -14 q -94 169 -99 97 q -63 317 -89 240 q 1 455 -37 394 q 85 549 39 515 q 178 568 131 582 q 142 559 161 568 q 107 536 124 550 q 78 506 90 522 q 60 476 65 490 q 119 528 92 511 q 169 549 147 544 q 208 551 192 554 q 236 542 225 547 q 164 520 197 544 q 104 461 131 496 q 61 390 78 426 q 39 335 44 354 q 96 437 68 400 q 147 490 124 474 q 186 507 169 507 q 210 497 203 507 q 154 467 183 499 q 98 385 125 435 q 49 278 71 336 q 15 167 26 219 q 3 78 3 115 q 25 35 4 40 q 76 92 38 31 q 168 263 115 154 q 281 515 221 371 q 397 818 340 658 q 286 776 339 810 q 199 681 233 742 q 198 706 196 690 q 208 741 200 722 q 230 778 217 760 q 261 814 243 797 q 182 728 211 774 q 151 664 153 683 q 145 696 144 676 q 152 735 146 715 q 169 774 158 756 q 194 807 181 793 q 144 750 174 796 q 104 626 115 704 q 93 677 94 644 q 103 749 92 710 q 138 828 114 788 q 204 907 163 869 m 613 553 q 626 649 628 604 q 606 730 624 694 q 558 790 589 765 q 482 824 526 814 q 494 817 489 821 q 504 811 499 814 q 515 804 510 807 q 469 674 494 743 q 415 534 443 606 q 355 392 386 463 q 292 260 324 322 q 385 295 336 272 q 478 354 433 318 q 558 440 522 390 q 613 553 593 489 m 256 953 q 222 931 244 947 q 175 890 200 915 q 128 831 150 865 q 97 751 107 796 q 130 862 92 806 q 256 953 168 918 m 122 574 q 83 557 101 569 q 50 530 65 544 q 24 501 35 515 q 10 481 14 488 q 55 553 24 525 q 122 574 86 581 m 276 653 q 239 693 276 682 q 271 701 260 692 q 286 725 282 710 q 321 681 288 689 q 276 653 289 681 m 22 660 q 22 624 15 638 q 42 604 29 611 q 10 601 22 608 q -10 582 -3 594 q -22 631 -3 615 q 22 660 4 625 m 165 428 q 196 446 183 424 q 197 423 192 431 q 210 411 203 415 q 176 396 189 415 q 165 428 181 415 m 208 629 q 236 626 222 619 q 232 601 224 614 q 206 601 221 613 q 208 629 217 614 m 68 764 q 72 736 61 750 q 46 736 60 746 q 40 761 54 747 q 68 764 57 753 z "}}}
